<?xml version="1.0" encoding="UTF-8"?>
<svg width="25px" height="25px" viewBox="0 0 25 25" version="1.1" xmlns="http://www.w3.org/2000/svg" xmlns:xlink="http://www.w3.org/1999/xlink">
    <!-- Generator: Sketch 63.1 (92452) - https://sketch.com -->
    <title>Group</title>
    <desc>Created with Sketch.</desc>
    <g id="Page-1" stroke="none" stroke-width="1" fill="none" fill-rule="evenodd" stroke-linecap="round" stroke-linejoin="round">
        <g id="S1_Web_Blog_Post" transform="translate(-990.000000, -811.000000)" stroke="#5B07EB" stroke-width="2">
            <g id="Group" transform="translate(991.000000, 812.000000)">
                <g id="headphones-person">
                    <circle id="Oval" cx="11.504722" cy="11.502" r="5"></circle>
                    <path d="M4.00472203,7.5 C4.00472203,3.35786438 7.36258641,0 11.504722,0 C15.6468577,0 19.004722,3.35786438 19.004722,7.5" id="Shape"></path>
                    <path d="M4.00472203,7.49999447 C1.85976233,7.49750041 0.094629872,9.1873217 0.00365972639,11.3303529 C-0.0873104192,13.4733841 1.52826678,15.3067141 3.66572203,15.486 C3.75289303,15.4929629 3.83901886,15.4632585 3.90336368,15.4040385 C3.96770849,15.3448185 4.00444268,15.2614482 4.00472203,15.174 L4.00472203,7.49999447 Z" id="Shape"></path>
                    <path d="M19.004722,7.49999447 C21.1496817,7.49750041 22.9148142,9.1873217 23.0057843,11.3303529 C23.0967545,13.4733841 21.4811773,15.3067141 19.343722,15.486 C19.256551,15.4929629 19.1704252,15.4632585 19.1060804,15.4040385 C19.0417356,15.3448185 19.0050014,15.2614482 19.004722,15.174 L19.004722,7.49999447 Z" id="Shape"></path>
                    <path d="M18.504722,22.502 C17.1259574,20.0399203 14.4345969,18.502 11.504722,18.502 C8.5748472,18.502 5.88348666,20.0399203 4.50472203,22.502" id="Path"></path>
                </g>
            </g>
        </g>
    </g>
</svg>