<?xml version="1.0" encoding="UTF-8" standalone="no"?>
<svg
   version="1.0"
   width="1067pt"
   height="180pt"
   viewBox="0 0 1067 180"
   preserveAspectRatio="xMidYMid"
   id="svg7"
   sodipodi:docname="emersalogosvg1.svg"
   inkscape:version="1.3 (0e150ed6c4, 2023-07-21)"
   xmlns:inkscape="http://www.inkscape.org/namespaces/inkscape"
   xmlns:sodipodi="http://sodipodi.sourceforge.net/DTD/sodipodi-0.dtd"
   xmlns="http://www.w3.org/2000/svg"
   xmlns:svg="http://www.w3.org/2000/svg">
  <defs
     id="defs7" />
  <sodipodi:namedview
     id="namedview7"
     pagecolor="#ffffff"
     bordercolor="#000000"
     borderopacity="0.25"
     inkscape:showpageshadow="2"
     inkscape:pageopacity="0.0"
     inkscape:pagecheckerboard="0"
     inkscape:deskcolor="#d1d1d1"
     inkscape:document-units="pt"
     inkscape:zoom="0.62225397"
     inkscape:cx="816.38692"
     inkscape:cy="380.06989"
     inkscape:window-width="1920"
     inkscape:window-height="986"
     inkscape:window-x="-11"
     inkscape:window-y="-11"
     inkscape:window-maximized="1"
     inkscape:current-layer="g7" />
  <g
     transform="matrix(0.02080533,0,0,-0.01442183,-141.82428,237.36302)"
     fill="#000000"
     stroke="none"
     id="g7">
    <path
       d="m 18005,16084 c -58,-10 -105,-25 -105,-34 0,-19 -82,-51 -188,-75 -59,-13 -141,-36 -182,-50 -91,-33 -276,-127 -385,-195 -100,-62 -200,-104 -292,-124 -87,-18 -138,-43 -202,-100 -64,-57 -165,-117 -264,-156 -100,-39 -157,-68 -157,-79 0,-18 -132,-92 -351,-196 -309,-147 -418,-206 -531,-286 -58,-42 -155,-98 -245,-140 -218,-103 -238,-115 -334,-190 -60,-47 -293,-176 -658,-363 -405,-208 -556,-295 -623,-359 -47,-44 -103,-67 -163,-67 -39,0 -83,-22 -160,-78 -163,-119 -571,-344 -786,-435 -37,-16 -91,-49 -120,-74 -63,-53 -121,-82 -166,-83 -44,0 -83,-16 -118,-50 -110,-104 -1099,-669 -1260,-720 -42,-13 -193,-94 -260,-140 -59,-41 -379,-225 -571,-330 -93,-51 -212,-118 -264,-150 -127,-76 -381,-210 -686,-363 -231,-116 -283,-149 -296,-188 -2,-6 -28,-15 -58,-21 -69,-12 -111,-34 -180,-94 -125,-107 -320,-215 -436,-239 -43,-9 -79,-24 -108,-47 -24,-18 -72,-53 -106,-78 -117,-84 -135,-107 -154,-187 -20,-91 -21,-294 -2,-396 16,-84 49,-168 75,-191 18,-16 300,-180 495,-289 60,-33 141,-71 180,-84 86,-29 129,-53 271,-153 150,-105 259,-167 326,-184 76,-19 122,-45 194,-105 98,-83 232,-169 355,-228 162,-78 241,-126 307,-187 67,-62 129,-95 233,-126 92,-27 261,-110 361,-177 119,-81 316,-196 429,-253 146,-73 237,-128 274,-166 21,-21 55,-40 101,-54 98,-32 124,-46 175,-100 34,-36 74,-62 165,-105 297,-140 467,-230 560,-295 144,-100 211,-139 256,-149 43,-10 79,-36 79,-57 0,-19 52,-52 116,-74 70,-24 124,-55 207,-119 78,-60 110,-77 165,-86 32,-5 49,-15 69,-42 22,-28 76,-59 278,-158 153,-75 278,-143 319,-174 127,-96 213,-146 385,-220 114,-49 216,-110 283,-167 80,-69 195,-135 498,-285 389,-193 525,-267 690,-378 174,-117 394,-249 670,-401 113,-62 232,-132 266,-155 33,-22 82,-49 110,-58 94,-34 159,-69 254,-137 53,-38 136,-87 185,-110 171,-78 250,-121 323,-175 40,-30 90,-60 110,-67 52,-18 433,-18 525,1 77,15 104,33 149,99 52,76 148,179 290,309 163,150 258,227 320,259 49,25 51,29 62,108 7,50 45,98 127,159 105,79 104,77 104,319 0,249 0,249 -116,288 -95,33 -114,46 -135,92 -36,80 -189,189 -443,315 -127,63 -165,87 -215,137 -61,60 -111,92 -417,266 -73,41 -151,92 -173,113 -22,20 -54,41 -71,46 -47,13 -97,48 -245,170 -87,72 -162,124 -210,148 -77,37 -166,94 -305,194 -119,85 -315,207 -497,310 -195,109 -287,169 -431,277 -194,146 -655,445 -867,562 -85,47 -170,103 -350,231 -31,22 -80,45 -114,54 -67,17 -90,34 -117,87 -28,54 -126,128 -263,199 -153,78 -260,149 -359,238 -95,85 -158,125 -217,141 -121,32 -506,270 -640,396 -66,61 -163,129 -365,255 -174,108 -273,177 -331,230 -54,48 -87,65 -156,78 -32,5 -72,18 -90,27 -126,65 -293,240 -275,287 3,9 26,25 51,36 25,11 46,26 46,34 0,21 53,55 204,130 107,53 152,81 188,118 36,38 54,49 78,49 38,0 119,40 168,84 77,68 167,120 297,171 112,44 349,167 490,255 121,75 207,120 347,184 69,31 210,120 298,189 53,42 85,57 181,88 127,40 176,65 259,134 60,49 184,117 295,160 124,49 277,132 385,210 71,51 175,110 317,181 184,91 217,111 249,150 44,53 83,77 226,138 59,25 131,61 160,80 29,18 139,76 244,129 225,113 401,213 574,326 151,100 251,149 324,161 61,10 104,29 159,72 45,36 62,32 77,-19 14,-50 27,-425 35,-985 l 6,-457 -43,-5 c -24,-3 -113,-13 -198,-21 -179,-17 -313,-48 -461,-103 -196,-74 -331,-152 -408,-238 -24,-27 -98,-105 -165,-174 -133,-137 -171,-199 -206,-334 -35,-138 -43,-251 -37,-563 7,-393 15,-430 135,-593 80,-109 330,-354 442,-433 115,-81 322,-186 447,-227 106,-34 202,-53 393,-78 128,-17 135,-19 141,-42 4,-14 8,-128 8,-255 2,-424 23,-502 147,-557 104,-45 172,-50 824,-55 622,-5 930,4 1006,29 29,10 39,20 45,43 5,17 27,46 49,66 28,24 44,48 51,75 32,137 35,901 9,2894 -6,415 -14,1095 -20,1510 -5,415 -13,996 -16,1290 l -7,535 -98,126 c -133,172 -254,305 -379,416 -219,197 -288,269 -300,315 -19,71 -74,114 -185,145 -50,14 -303,26 -360,17 z"
       id="path1"
       style="stroke:#1a1a1a;fill:#008AFF" />
  </g>
</svg>
