<?xml version="1.0" encoding="UTF-8" standalone="no"?>
<svg
   version="1.0"
   width="1067pt"
   height="280pt"
   viewBox="0 0 1067 280"
   preserveAspectRatio="xMidYMid"
   id="svg3"
   sodipodi:docname="emersalogowb.svg"
   inkscape:version="1.3 (0e150ed6c4, 2023-07-21)"
   xmlns:inkscape="http://www.inkscape.org/namespaces/inkscape"
   xmlns:sodipodi="http://sodipodi.sourceforge.net/DTD/sodipodi-0.dtd"
   xmlns="http://www.w3.org/2000/svg"
   xmlns:svg="http://www.w3.org/2000/svg">
  <defs
     id="defs3" />
  <sodipodi:namedview
     id="namedview3"
     pagecolor="#ffffff"
     bordercolor="#000000"
     borderopacity="0.25"
     inkscape:showpageshadow="2"
     inkscape:pageopacity="0.0"
     inkscape:pagecheckerboard="0"
     inkscape:deskcolor="#d1d1d1"
     inkscape:document-units="pt"
     inkscape:zoom="0.22"
     inkscape:cx="2127.2727"
     inkscape:cy="1402.2727"
     inkscape:window-width="1920"
     inkscape:window-height="986"
     inkscape:window-x="-11"
     inkscape:window-y="-11"
     inkscape:window-maximized="1"
     inkscape:current-layer="svg3" />
  <g
     transform="matrix(0.01778333,0,0,-0.014,0,280)"
     fill="#000000"
     stroke="none"
     id="g3">
    <path
       d="M 0,10000 V 0 H 30000 60000 V 10000 20000 H 30000 0 Z m 18365,6067 c 111,-31 166,-74 185,-145 12,-46 81,-118 300,-315 125,-111 246,-244 379,-416 l 98,-126 7,-535 c 3,-294 11,-875 16,-1290 6,-415 14,-1095 20,-1510 26,-1993 23,-2757 -9,-2894 -7,-27 -23,-51 -51,-75 -22,-20 -44,-49 -49,-66 -6,-23 -16,-33 -45,-43 -76,-25 -384,-34 -1006,-29 -652,5 -720,10 -824,55 -124,55 -145,133 -147,557 0,127 -4,241 -8,255 -6,23 -13,25 -141,42 -191,25 -287,44 -393,78 -125,41 -332,146 -447,227 -112,79 -362,324 -442,433 -120,163 -128,200 -135,593 -6,312 2,425 37,563 35,135 73,197 206,334 67,69 141,147 165,174 77,86 212,164 408,238 148,55 282,86 461,103 85,8 174,18 198,21 l 43,5 -6,457 c -8,560 -21,935 -35,985 -15,51 -32,55 -77,19 -55,-43 -98,-62 -159,-72 -73,-12 -173,-61 -324,-161 -173,-113 -349,-213 -574,-326 -105,-53 -215,-111 -244,-129 -29,-19 -101,-55 -160,-80 -143,-61 -182,-85 -226,-138 -32,-39 -65,-59 -249,-150 -142,-71 -246,-130 -317,-181 -108,-78 -261,-161 -385,-210 -111,-43 -235,-111 -295,-160 -83,-69 -132,-94 -259,-134 -96,-31 -128,-46 -181,-88 -88,-69 -229,-158 -298,-189 -140,-64 -226,-109 -347,-184 -141,-88 -378,-211 -490,-255 -130,-51 -220,-103 -297,-171 -49,-44 -130,-84 -168,-84 -24,0 -42,-11 -78,-49 -36,-37 -81,-65 -188,-118 -151,-75 -204,-109 -204,-130 0,-8 -21,-23 -46,-34 -25,-11 -48,-27 -51,-36 -18,-47 149,-222 275,-287 18,-9 58,-22 90,-27 69,-13 102,-30 156,-78 58,-53 157,-122 331,-230 202,-126 299,-194 365,-255 134,-126 519,-364 640,-396 59,-16 122,-56 217,-141 99,-89 206,-160 359,-238 137,-71 235,-145 263,-199 27,-53 50,-70 117,-87 34,-9 83,-32 114,-54 180,-128 265,-184 350,-231 212,-117 673,-416 867,-562 144,-108 236,-168 431,-277 182,-103 378,-225 497,-310 139,-100 228,-157 305,-194 48,-24 123,-76 210,-148 148,-122 198,-157 245,-170 17,-5 49,-26 71,-46 22,-21 100,-72 173,-113 306,-174 356,-206 417,-266 50,-50 88,-74 215,-137 254,-126 407,-235 443,-315 21,-46 40,-59 135,-92 116,-39 116,-39 116,-288 0,-242 1,-240 -104,-319 -82,-61 -120,-109 -127,-159 -11,-79 -13,-83 -62,-108 -129,-67 -510,-421 -610,-568 -45,-66 -72,-84 -149,-99 -92,-19 -473,-19 -525,-1 -20,7 -70,37 -110,67 -73,54 -152,97 -323,175 -49,23 -132,72 -185,110 -95,68 -160,103 -254,137 -28,9 -77,36 -110,58 -34,23 -153,93 -266,155 -276,152 -496,284 -670,401 -165,111 -301,185 -690,378 -303,150 -418,216 -498,285 -67,57 -169,118 -283,167 -172,74 -258,124 -385,220 -41,31 -166,99 -319,174 -202,99 -256,130 -278,158 -20,27 -37,37 -69,42 -55,9 -87,26 -165,86 -83,64 -137,95 -207,119 -64,22 -116,55 -116,74 0,21 -36,47 -79,57 -45,10 -112,49 -256,149 -93,65 -263,155 -560,295 -91,43 -131,69 -165,105 -51,54 -77,68 -175,100 -46,14 -80,33 -101,54 -37,38 -128,93 -274,166 -113,57 -310,172 -429,253 -100,67 -269,150 -361,177 -104,31 -166,64 -233,126 -66,61 -145,109 -307,187 -123,59 -257,145 -355,228 -72,60 -118,86 -194,105 -67,17 -176,79 -326,184 -142,100 -185,124 -271,153 -39,13 -120,51 -180,84 -195,109 -477,273 -495,289 -26,23 -59,107 -75,191 -19,102 -18,305 2,396 19,80 37,103 154,187 34,25 82,60 106,78 29,23 65,38 108,47 116,24 311,132 436,239 69,60 111,82 180,94 30,6 56,15 58,21 13,39 65,72 296,188 305,153 559,287 686,363 52,32 171,99 264,150 192,105 512,289 571,330 67,46 218,127 260,140 161,51 1150,616 1260,720 35,34 74,50 118,50 45,1 103,30 166,83 29,25 83,58 120,74 215,91 623,316 786,435 77,56 121,78 160,78 60,0 116,23 163,67 67,64 218,151 623,359 365,187 598,316 658,363 96,75 116,87 334,190 90,42 187,98 245,140 113,80 222,139 531,286 219,104 351,178 351,196 0,11 57,40 157,79 99,39 200,99 264,156 64,57 115,82 202,100 92,20 192,62 292,124 109,68 294,162 385,195 41,14 123,37 182,50 106,24 188,56 188,75 0,9 47,24 105,34 57,9 310,-3 360,-17 z m 29760,-2437 c 570,-38 1035,-138 1520,-326 264,-104 300,-146 237,-279 -36,-75 -265,-424 -389,-592 l -23,-32 -68,19 c -37,10 -152,52 -257,93 -509,198 -906,275 -1350,264 -362,-9 -608,-74 -817,-215 -145,-98 -218,-211 -218,-338 0,-62 5,-81 36,-143 42,-84 130,-177 233,-245 154,-103 288,-140 896,-246 769,-134 1098,-215 1332,-325 226,-107 515,-336 623,-495 97,-144 130,-286 130,-569 0,-298 -22,-424 -100,-586 -91,-187 -270,-391 -445,-507 -317,-210 -770,-362 -1262,-424 -175,-22 -685,-30 -895,-15 -747,55 -1339,210 -1950,509 l -116,57 156,216 c 388,536 375,519 402,513 14,-3 70,-26 125,-51 340,-154 488,-211 693,-263 435,-110 986,-147 1436,-94 456,52 706,190 778,427 17,58 20,86 16,175 -7,129 -26,179 -98,250 -141,139 -390,208 -1144,317 -456,66 -607,93 -829,146 -223,53 -404,116 -562,194 -328,163 -499,372 -577,705 -19,84 -22,123 -22,335 -1,230 0,245 27,350 106,422 362,715 806,923 307,143 631,218 1106,255 96,8 433,6 570,-3 z m 6300,-1322 c 335,-711 730,-1552 877,-1868 148,-316 391,-833 541,-1149 150,-316 274,-578 275,-582 2,-5 -279,-9 -630,-9 h -633 l -73,173 c -40,94 -114,267 -165,382 l -93,210 -535,-3 c -815,-5 -1830,-20 -1837,-27 -4,-3 -82,-165 -173,-358 l -166,-352 -269,-8 c -307,-8 -959,-5 -969,5 -4,4 27,76 68,160 102,206 919,1811 1122,2203 40,77 182,352 316,610 133,259 379,733 546,1055 167,322 334,645 371,718 l 67,132 h 376 376 z m -15665,850 v -428 h -367 c -496,0 -2697,-21 -2702,-27 -3,-2 -9,-101 -13,-221 -5,-119 -14,-372 -22,-562 -7,-190 -11,-348 -9,-352 2,-5 589,-8 1305,-8 h 1301 l -5,-440 c -2,-242 -6,-442 -9,-445 -3,-3 -585,-5 -1293,-5 h -1287 l -9,-26 c -6,-16 -9,-221 -8,-537 l 3,-512 265,-2 c 938,-7 2785,-24 2787,-26 1,-1 6,-142 12,-312 6,-171 13,-365 17,-432 l 6,-123 h -2128 -2127 l 6,598 c 4,328 8,1234 9,2012 2,778 4,1607 6,1842 l 2,428 2118,2 c 1164,2 2123,3 2130,4 9,0 12,-91 12,-428 z m 3930,412 c 381,-14 488,-24 595,-55 391,-114 765,-421 919,-756 198,-432 172,-994 -62,-1338 -152,-224 -416,-451 -663,-571 -78,-38 -124,-54 -316,-110 -40,-11 -73,-25 -73,-31 0,-6 147,-209 327,-452 331,-448 995,-1361 1071,-1474 36,-53 39,-62 24,-68 -9,-4 -321,-9 -692,-12 l -675,-5 -675,958 c -371,527 -686,970 -698,986 l -24,28 -386,-2 -387,-3 -6,-230 c -6,-220 -19,-1296 -19,-1592 v -143 h -581 -582 l 7,333 c 3,182 8,708 11,1167 3,459 7,948 10,1085 3,138 7,684 10,1215 3,531 8,994 11,1029 l 6,64 1281,-6 c 705,-3 1410,-11 1567,-17 z m -16197,-171 c 4,-100 7,-291 7,-425 v -242 l -57,-5 c -32,-2 -375,-5 -762,-6 -388,-1 -727,-3 -755,-6 -28,-2 -370,-7 -761,-10 -390,-3 -713,-9 -716,-13 -8,-8 -34,-1072 -28,-1111 l 4,-24 1292,2 1292,2 3,-443 c 2,-244 2,-446 0,-450 -2,-5 -583,-8 -1293,-8 h -1289 v -287 c 0,-159 3,-399 7,-534 l 6,-246 1016,-6 c 1154,-8 2014,-18 2020,-24 5,-4 40,-679 40,-790 l 1,-73 h -2109 -2109 l -6,103 c -3,56 -10,703 -16,1437 -5,734 -12,1432 -15,1550 -3,118 -8,567 -11,997 l -7,783 1634,2 c 899,2 1853,4 2120,6 l 486,3 z m 2778,-204 c 77,-209 266,-726 420,-1150 444,-1216 622,-1685 645,-1692 35,-12 292,650 791,2042 168,470 397,1108 415,1158 l 10,27 h 786 785 l -6,-792 c -4,-436 -7,-1534 -7,-2440 V 8700 h -514 -514 l -5,1393 c -6,1528 -18,1972 -53,1984 -25,8 -190,-382 -711,-1687 -201,-503 -386,-958 -411,-1010 -26,-53 -58,-103 -73,-113 -46,-33 -159,-39 -513,-28 -181,6 -364,11 -407,11 h -77 l -57,143 c -170,426 -904,2234 -1037,2555 -16,39 -33,70 -38,67 -4,-2 -10,-449 -14,-992 -3,-544 -9,-1288 -12,-1656 l -7,-667 -541,2 -541,3 -6,1240 c -4,682 -9,1779 -13,2438 l -6,1197 786,-2 786,-3 z"
       id="path1" />
    <path
       d="m 53403,11958 c -89,-97 -655,-1219 -749,-1485 -23,-65 -18,-71 67,-84 179,-26 1396,-39 1405,-15 10,25 -601,1454 -674,1579 -20,33 -23,33 -49,5 z"
       id="path2" />
    <path
       d="m 41008,12732 c -13,-2 -16,-56 -21,-394 -4,-215 -7,-478 -7,-585 v -193 h 658 c 688,0 1021,11 1110,34 161,43 326,229 377,423 17,66 19,207 4,273 -20,87 -70,172 -145,247 -138,137 -256,172 -634,189 -144,6 -1313,12 -1342,6 z"
       id="path3" />
  </g>
</svg>
