<?xml version="1.0" encoding="UTF-8" standalone="no"?>
<svg
   version="1.0"
   width="1067pt"
   height="180pt"
   viewBox="0 0 1067 180"
   preserveAspectRatio="xMidYMid"
   id="svg7"
   sodipodi:docname="emersalogosvgpurple.svg"
   inkscape:version="1.3 (0e150ed6c4, 2023-07-21)"
   xmlns:inkscape="http://www.inkscape.org/namespaces/inkscape"
   xmlns:sodipodi="http://sodipodi.sourceforge.net/DTD/sodipodi-0.dtd"
   xmlns="http://www.w3.org/2000/svg"
   xmlns:svg="http://www.w3.org/2000/svg">
  <defs
     id="defs7" />
  <sodipodi:namedview
     id="namedview7"
     pagecolor="#ffffff"
     bordercolor="#000000"
     borderopacity="0.25"
     inkscape:showpageshadow="2"
     inkscape:pageopacity="0.0"
     inkscape:pagecheckerboard="0"
     inkscape:deskcolor="#d1d1d1"
     inkscape:document-units="pt"
     inkscape:zoom="0.62225397"
     inkscape:cx="816.38692"
     inkscape:cy="380.0699"
     inkscape:window-width="1920"
     inkscape:window-height="986"
     inkscape:window-x="-11"
     inkscape:window-y="-11"
     inkscape:window-maximized="1"
     inkscape:current-layer="g7" />
  <g
     transform="matrix(0.02080533,0,0,-0.01442183,-141.82428,237.36302)"
     fill="#000000"
     stroke="none"
     id="g7">
    <path
       d="m 18005,16084 c -58,-10 -105,-25 -105,-34 0,-19 -82,-51 -188,-75 -59,-13 -141,-36 -182,-50 -91,-33 -276,-127 -385,-195 -100,-62 -200,-104 -292,-124 -87,-18 -138,-43 -202,-100 -64,-57 -165,-117 -264,-156 -100,-39 -157,-68 -157,-79 0,-18 -132,-92 -351,-196 -309,-147 -418,-206 -531,-286 -58,-42 -155,-98 -245,-140 -218,-103 -238,-115 -334,-190 -60,-47 -293,-176 -658,-363 -405,-208 -556,-295 -623,-359 -47,-44 -103,-67 -163,-67 -39,0 -83,-22 -160,-78 -163,-119 -571,-344 -786,-435 -37,-16 -91,-49 -120,-74 -63,-53 -121,-82 -166,-83 -44,0 -83,-16 -118,-50 -110,-104 -1099,-669 -1260,-720 -42,-13 -193,-94 -260,-140 -59,-41 -379,-225 -571,-330 -93,-51 -212,-118 -264,-150 -127,-76 -381,-210 -686,-363 -231,-116 -283,-149 -296,-188 -2,-6 -28,-15 -58,-21 -69,-12 -111,-34 -180,-94 -125,-107 -320,-215 -436,-239 -43,-9 -79,-24 -108,-47 -24,-18 -72,-53 -106,-78 -117,-84 -135,-107 -154,-187 -20,-91 -21,-294 -2,-396 16,-84 49,-168 75,-191 18,-16 300,-180 495,-289 60,-33 141,-71 180,-84 86,-29 129,-53 271,-153 150,-105 259,-167 326,-184 76,-19 122,-45 194,-105 98,-83 232,-169 355,-228 162,-78 241,-126 307,-187 67,-62 129,-95 233,-126 92,-27 261,-110 361,-177 119,-81 316,-196 429,-253 146,-73 237,-128 274,-166 21,-21 55,-40 101,-54 98,-32 124,-46 175,-100 34,-36 74,-62 165,-105 297,-140 467,-230 560,-295 144,-100 211,-139 256,-149 43,-10 79,-36 79,-57 0,-19 52,-52 116,-74 70,-24 124,-55 207,-119 78,-60 110,-77 165,-86 32,-5 49,-15 69,-42 22,-28 76,-59 278,-158 153,-75 278,-143 319,-174 127,-96 213,-146 385,-220 114,-49 216,-110 283,-167 80,-69 195,-135 498,-285 389,-193 525,-267 690,-378 174,-117 394,-249 670,-401 113,-62 232,-132 266,-155 33,-22 82,-49 110,-58 94,-34 159,-69 254,-137 53,-38 136,-87 185,-110 171,-78 250,-121 323,-175 40,-30 90,-60 110,-67 52,-18 433,-18 525,1 77,15 104,33 149,99 52,76 148,179 290,309 163,150 258,227 320,259 49,25 51,29 62,108 7,50 45,98 127,159 105,79 104,77 104,319 0,249 0,249 -116,288 -95,33 -114,46 -135,92 -36,80 -189,189 -443,315 -127,63 -165,87 -215,137 -61,60 -111,92 -417,266 -73,41 -151,92 -173,113 -22,20 -54,41 -71,46 -47,13 -97,48 -245,170 -87,72 -162,124 -210,148 -77,37 -166,94 -305,194 -119,85 -315,207 -497,310 -195,109 -287,169 -431,277 -194,146 -655,445 -867,562 -85,47 -170,103 -350,231 -31,22 -80,45 -114,54 -67,17 -90,34 -117,87 -28,54 -126,128 -263,199 -153,78 -260,149 -359,238 -95,85 -158,125 -217,141 -121,32 -506,270 -640,396 -66,61 -163,129 -365,255 -174,108 -273,177 -331,230 -54,48 -87,65 -156,78 -32,5 -72,18 -90,27 -126,65 -293,240 -275,287 3,9 26,25 51,36 25,11 46,26 46,34 0,21 53,55 204,130 107,53 152,81 188,118 36,38 54,49 78,49 38,0 119,40 168,84 77,68 167,120 297,171 112,44 349,167 490,255 121,75 207,120 347,184 69,31 210,120 298,189 53,42 85,57 181,88 127,40 176,65 259,134 60,49 184,117 295,160 124,49 277,132 385,210 71,51 175,110 317,181 184,91 217,111 249,150 44,53 83,77 226,138 59,25 131,61 160,80 29,18 139,76 244,129 225,113 401,213 574,326 151,100 251,149 324,161 61,10 104,29 159,72 45,36 62,32 77,-19 14,-50 27,-425 35,-985 l 6,-457 -43,-5 c -24,-3 -113,-13 -198,-21 -179,-17 -313,-48 -461,-103 -196,-74 -331,-152 -408,-238 -24,-27 -98,-105 -165,-174 -133,-137 -171,-199 -206,-334 -35,-138 -43,-251 -37,-563 7,-393 15,-430 135,-593 80,-109 330,-354 442,-433 115,-81 322,-186 447,-227 106,-34 202,-53 393,-78 128,-17 135,-19 141,-42 4,-14 8,-128 8,-255 2,-424 23,-502 147,-557 104,-45 172,-50 824,-55 622,-5 930,4 1006,29 29,10 39,20 45,43 5,17 27,46 49,66 28,24 44,48 51,75 32,137 35,901 9,2894 -6,415 -14,1095 -20,1510 -5,415 -13,996 -16,1290 l -7,535 -98,126 c -133,172 -254,305 -379,416 -219,197 -288,269 -300,315 -19,71 -74,114 -185,145 -50,14 -303,26 -360,17 z"
       id="path1"
       style="stroke:#1a1a1a" />
    <path
       d="m 47555,13633 c -298,-23 -443,-45 -656,-98 -294,-74 -576,-199 -754,-334 -273,-206 -423,-428 -502,-746 -27,-105 -28,-120 -27,-350 0,-212 3,-251 22,-335 60,-256 178,-439 377,-588 94,-70 301,-171 462,-226 264,-90 527,-143 1129,-231 754,-109 1003,-178 1144,-317 72,-71 91,-121 98,-250 4,-89 1,-117 -16,-175 -72,-237 -322,-375 -778,-427 -450,-53 -1001,-16 -1436,94 -205,52 -353,109 -693,263 -55,25 -111,48 -125,51 -27,6 -14,23 -402,-513 l -156,-216 116,-57 c 611,-299 1203,-454 1950,-509 210,-15 720,-7 895,15 492,62 945,214 1262,424 175,116 354,320 445,507 78,162 100,288 100,586 0,283 -33,425 -130,569 -108,159 -397,388 -623,495 -234,110 -563,191 -1332,325 -608,106 -742,143 -896,246 -103,68 -191,161 -233,245 -31,62 -36,81 -36,143 0,127 73,240 218,338 209,141 455,206 817,215 444,11 841,-66 1350,-264 105,-41 220,-83 257,-93 l 68,-19 23,32 c 124,168 353,517 389,592 63,133 27,175 -237,279 -485,188 -950,288 -1520,326 -137,9 -474,11 -570,3 z"
       id="path2"
       style="stroke:#1a1a1a" />
    <path
       d="m 52998,13468 c -37,-73 -204,-396 -371,-718 -167,-322 -413,-796 -546,-1055 -134,-258 -276,-533 -316,-610 -203,-392 -1020,-1997 -1122,-2203 -41,-84 -72,-156 -68,-160 10,-10 662,-13 969,-5 l 269,8 166,352 c 91,193 169,355 173,358 7,7 1022,22 1837,27 l 535,3 93,-210 c 51,-115 125,-288 165,-382 l 73,-173 h 633 c 351,0 632,4 630,9 -1,4 -125,266 -275,582 -150,316 -393,833 -541,1149 -147,316 -542,1157 -877,1868 l -608,1292 h -376 -376 z m 454,-1515 c 73,-125 684,-1554 674,-1579 -9,-24 -1226,-11 -1405,15 -85,13 -90,19 -67,84 94,266 660,1388 749,1485 26,28 29,28 49,-5 z"
       id="path3"
       style="stroke:#1a1a1a" />
    <path
       d="m 36618,13582 -2118,-2 -2,-428 c -2,-235 -4,-1064 -6,-1842 -1,-778 -5,-1684 -9,-2012 l -6,-598 h 2127 2128 l -6,123 c -4,67 -11,261 -17,432 -6,170 -11,311 -12,312 -2,2 -1849,19 -2787,26 l -265,2 -3,512 c -1,316 2,521 8,537 l 9,26 h 1287 c 708,0 1290,2 1293,5 3,3 7,203 9,445 l 5,440 h -1301 c -716,0 -1303,3 -1305,8 -2,4 2,162 9,352 8,190 17,443 22,562 4,120 10,219 13,221 5,6 2206,27 2702,27 h 367 v 428 c 0,337 -3,428 -12,428 -7,-1 -966,-2 -2130,-4 z"
       id="path4"
       style="stroke:#1a1a1a" />
    <path
       d="m 39836,13529 c -3,-35 -8,-498 -11,-1029 -3,-531 -7,-1077 -10,-1215 -3,-137 -7,-626 -10,-1085 -3,-459 -8,-985 -11,-1167 l -7,-333 h 582 581 v 143 c 0,296 13,1372 19,1592 l 6,230 387,3 386,2 24,-28 c 12,-16 327,-459 698,-986 l 675,-958 675,5 c 371,3 683,8 692,12 15,6 12,15 -24,68 -76,113 -740,1026 -1071,1474 -180,243 -327,446 -327,452 0,6 33,20 73,31 192,56 238,72 316,110 247,120 511,347 663,571 234,344 260,906 62,1338 -186,405 -680,754 -1119,791 -259,22 -757,32 -1962,37 l -1281,6 z m 2514,-803 c 378,-17 496,-52 634,-189 75,-75 125,-160 145,-247 15,-66 13,-207 -4,-273 -51,-194 -216,-380 -377,-423 -89,-23 -422,-34 -1110,-34 h -658 v 193 c 0,107 3,370 7,585 5,338 8,392 21,394 29,6 1198,0 1342,-6 z"
       id="path5"
       style="stroke:#1a1a1a" />
    <path
       d="m 23881,13572 -1634,-2 7,-783 c 3,-430 8,-879 11,-997 3,-118 10,-816 15,-1550 6,-734 13,-1381 16,-1437 l 6,-103 h 2109 2109 l -1,73 c 0,111 -35,786 -40,790 -6,6 -866,16 -2020,24 l -1016,6 -6,246 c -4,135 -7,375 -7,534 v 287 h 1289 c 710,0 1291,3 1293,8 2,4 2,206 0,450 l -3,443 -1292,-2 -1292,-2 -4,24 c -6,39 20,1103 28,1111 3,4 326,10 716,13 391,3 733,8 761,10 28,3 367,5 755,6 387,1 730,4 762,6 l 57,5 v 242 c 0,134 -3,325 -7,425 l -6,182 -486,-3 c -267,-2 -1221,-4 -2120,-6 z"
       id="path6"
       style="stroke:#1a1a1a" />
    <path
       d="m 27566,12383 c 4,-659 9,-1756 13,-2438 l 6,-1240 541,-3 541,-2 7,667 c 3,368 9,1112 12,1656 4,543 10,990 14,992 5,3 22,-28 38,-67 133,-321 867,-2129 1037,-2555 l 57,-143 h 77 c 43,0 226,-5 407,-11 354,-11 467,-5 513,28 15,10 47,60 73,113 25,52 210,507 411,1010 521,1305 686,1695 711,1687 35,-12 47,-456 53,-1984 l 5,-1393 h 514 514 v 1648 c 0,906 3,2004 7,2440 l 6,792 h -785 -786 l -10,-27 c -18,-50 -247,-688 -415,-1158 -499,-1392 -756,-2054 -791,-2042 -23,7 -201,476 -645,1692 -154,424 -343,941 -420,1150 l -139,380 -786,3 -786,2 z"
       id="path7"
       style="stroke:#1a1a1a" />
  </g>
</svg>
