<?xml version="1.0" encoding="UTF-8" standalone="no"?>
<svg
   version="1.0"
   width="800.000000pt"
   height="210.000000pt"
   viewBox="0 0 800.000000 210.000000"
   preserveAspectRatio="xMidYMid meet"
   id="svg1100"
   sodipodi:docname="emersalogosvg1.svg"
   inkscape:version="1.2.1 (9c6d41e410, 2022-07-14)"
   xmlns:inkscape="http://www.inkscape.org/namespaces/inkscape"
   xmlns:sodipodi="http://sodipodi.sourceforge.net/DTD/sodipodi-0.dtd"
   xmlns="http://www.w3.org/2000/svg"
   xmlns:svg="http://www.w3.org/2000/svg">
  <defs
     id="defs1104" />
  <sodipodi:namedview
     id="namedview1102"
     pagecolor="#ffffff"
     bordercolor="#000000"
     borderopacity="0.25"
     inkscape:showpageshadow="2"
     inkscape:pageopacity="0.0"
     inkscape:pagecheckerboard="0"
     inkscape:deskcolor="#d1d1d1"
     inkscape:document-units="pt"
     showgrid="false"
     inkscape:zoom="1.134375"
     inkscape:cx="532.01102"
     inkscape:cy="141.4876"
     inkscape:window-width="1920"
     inkscape:window-height="992"
     inkscape:window-x="1592"
     inkscape:window-y="120"
     inkscape:window-maximized="1"
     inkscape:current-layer="g1098" />
  <g
     transform="translate(0.000000,210.000000) scale(0.100000,-0.100000)"
     fill="#000000"
     stroke="none"
     id="g1098">
    <path
       d="M1399 1556 c-2 -2 -2 -27 -1 -55 l4 -51 344 0 344 0 0 55 0 55 -343 0 c-189 0 -346 -2 -348 -4z"
       id="path1054"
       style="fill:#ffffff" />
    <path
       d="M2450 1050 l0 -511 53 3 52 3 0 505 0 505 -52 3 -53 3 0 -511z"
       id="path1056"
       style="fill:#ffffff" />
    <path
       d="M3240 1050 l0 -510 50 0 50 0 0 510 0 510 -50 0 -50 0 0 -510z"
       id="path1058"
       style="fill:#ffffff" />
    <path
       d="M3638 1553 c-2 -5 -3 -26 -2 -48 l1 -40 342 -3 341 -2 0 50 0 50 -339 0 c-187 0 -341 -3 -343 -7z"
       id="path1060"
       style="fill:#ffffff" />
    <path
       d="M4710 1510 l0 -50 326 0 325 0 -3 48 -3 47 -322 3 -323 2 0 -50z"
       id="path1062"
       style="fill:#ffffff" />
    <path
       d="M5748 1553 c-2 -5 -4 -26 -3 -48 l0 -40 310 0 310 0 0 45 0 45 -307 3 c-169 1 -308 -1 -310 -5z"
       id="path1064"
       style="fill:#ffffff" />
    <path
       d="M6942 1548 c-11 -14 -99 -288 -208 -643 -92 -301 -104 -346 -98 -356 3 -5 27 -9 54 -9 l49 0 45 143 c25 78 74 241 111 362 101 337 126 406 144 403 22 -4 52 -70 217 -468 78 -190 149 -362 158 -382 19 -45 45 -60 94 -56 37 3 37 3 34 43 -4 46 -386 943 -410 963 -10 7 -47 12 -98 12 -53 0 -85 -4 -92 -12z"
       id="path1066"
       style="fill:#ffffff" />
    <path
       d="M965 1449 c-22 -17 -45 -40 -52 -52 -9 -16 -12 -121 -13 -393 0 -344 1 -372 18 -387 23 -21 88 -48 96 -40 9 9 8 903 -1 902 -5 0 -26 -14 -48 -30z"
       id="path1068"
       style="fill:#ffffff" />
    <path
       d="M5184 1361 c-2 -2 -4 -24 -4 -48 l0 -43 91 0 90 0 -3 46 -3 47 -83 1 c-46 0 -86 -1 -88 -3z"
       id="path1070"
       style="fill:#ffffff" />
    <path
       d="M5746 1360 c-1 -3 -1 -23 0 -45 l1 -40 82 -3 82 -3 -3 47 -3 48 -78 0 c-44 1 -80 -1 -81 -4z"
       id="path1072"
       style="fill:#ffffff" />
    <path
       d="M628 1259 c-16 -9 -18 -31 -18 -232 0 -221 4 -247 35 -247 7 0 10 81 10 245 0 135 -2 245 -5 245 -3 0 -13 -5 -22 -11z"
       id="path1074"
       style="fill:#ffffff" />
    <path
       d="M2959 1243 c-11 -12 -14 -56 -14 -182 1 -168 9 -211 39 -211 11 0 14 41 15 205 1 171 -1 205 -12 205 -8 0 -21 -7 -28 -17z"
       id="path1076"
       style="fill:#ffffff" />
    <path
       d="M2800 1054 c0 -67 4 -103 10 -99 6 3 10 50 10 106 0 59 -4 99 -10 99 -6 0 -10 -42 -10 -106z"
       id="path1078"
       style="fill:#ffffff" />
    <path
       d="M4710 830 l0 -291 51 3 51 3 -1 221 c-2 177 1 223 12 232 9 8 96 13 273 14 l259 3 0 50 0 50 -322 3 -323 2 0 -290z"
       id="path1080"
       style="fill:#ffffff" />
    <path
       d="M5740 1060 l0 -60 308 2 307 3 0 55 0 55 -307 3 -308 2 0 -60z"
       id="path1082"
       style="fill:#ffffff" />
    <path
       d="M3648 1103 c-2 -5 -4 -26 -4 -48 l1 -40 338 -3 337 -2 0 50 0 50 -334 0 c-184 0 -336 -3 -338 -7z"
       id="path1084"
       style="fill:#ffffff" />
    <path
       d="M1400 1050 l0 -50 345 0 345 0 0 50 0 50 -345 0 -345 0 0 -50z"
       id="path1086"
       style="fill:#ffffff" />
    <path
       d="M5112 847 c-18 -18 -32 -37 -32 -43 0 -15 262 -274 271 -268 5 3 9 35 9 71 l0 66 -102 103 c-56 57 -105 104 -108 104 -3 0 -20 -15 -38 -33z"
       id="path1088"
       style="fill:#ffffff" />
    <path
       d="M6202 803 l3 -47 80 0 80 1 0 44 0 44 -83 3 -83 3 3 -48z"
       id="path1090"
       style="fill:#ffffff" />
    <path
       d="M3639 665 c0 -3 -1 -31 -2 -62 l-1 -58 342 -3 342 -2 0 65 0 65 -340 0 c-187 0 -340 -2 -341 -5z"
       id="path1092"
       style="fill:#ffffff" />
    <path
       d="M1399 656 c-2 -2 -2 -29 -1 -60 l4 -56 344 0 344 0 0 60 0 60 -343 0 c-189 0 -346 -2 -348 -4z"
       id="path1094"
       style="fill:#ffffff" />
    <path
       d="M5754 646 c-3 -7 -4 -33 -2 -57 l3 -44 305 0 304 0 0 55 0 55 -302 3 c-252 2 -303 0 -308 -12z"
       id="path1096"
       style="fill:#ffffff" />
  </g>
</svg>
