
<svg width="31px" height="38px" viewBox="0 0 31 38" version="1.1" xmlns="http://www.w3.org/2000/svg" xmlns:xlink="http://www.w3.org/1999/xlink">
    <g id="Page-1" stroke="none" stroke-width="1" fill="none" fill-rule="evenodd" opacity="0.4">
        <g id="S1_Web_Refresh_Homepage" transform="translate(-705.000000, -9930.000000)" fill="#9193A8" fill-rule="nonzero">
            <g id="Footer" transform="translate(0.000000, 9554.000000)">
                <g id="Group-19" transform="translate(164.000000, 51.000000)">
                    <g id="logo/white" transform="translate(541.000000, 325.448276)">
                        <g id="sentinelone_newlogo_onwhite_narrow">
                            <path d="M12.8927952,30.2631782 L12.8927952,0 L18.1151899,0 L18.1151899,30.2631782 L12.8927952,30.2631782 Z M19.3541351,37.5516366 L19.3541351,6.04423606 C21.2670567,6.41066503 23.0317293,7.18832197 24.5485835,8.28108398 L24.5485835,34.4378259 L19.3541351,37.5516366 Z M6.45137565,34.4379134 L6.45137565,8.2811715 C7.96822982,7.18840949 9.73298413,6.41035467 11.645824,6.04432358 L11.645824,37.5517241 L6.45137565,34.4379134 Z M25.8055516,1.48796837 C25.8055516,1.48796837 31,7.62774231 31,12.0412817 L31,27.3254676 C31,29.4714443 29.8894402,31.4418852 28.229573,32.419984 L25.8055516,33.8757533 L25.8055516,1.48796837 Z M0,27.3254277 L0,12.0412419 C0,7.62778209 5.19453021,1.48792859 5.19453021,1.48792859 L5.19453021,33.8757931 L2.77042702,32.4200237 C1.11015073,31.441925 0,29.4714045 0,27.3254277 Z" id="icon"></path>
                        </g>
                    </g>
                </g>
            </g>
        </g>
    </g>
</svg>