<?xml version="1.0" encoding="UTF-8" standalone="no"?>
<svg
   width="31px"
   height="38px"
   viewBox="0 0 31 38"
   version="1.1"
   id="svg199"
   sodipodi:docname="footer-logo1.svg"
   xml:space="preserve"
   inkscape:version="1.3 (0e150ed6c4, 2023-07-21)"
   xmlns:inkscape="http://www.inkscape.org/namespaces/inkscape"
   xmlns:sodipodi="http://sodipodi.sourceforge.net/DTD/sodipodi-0.dtd"
   xmlns="http://www.w3.org/2000/svg"
   xmlns:svg="http://www.w3.org/2000/svg"><defs
     id="defs203" /><sodipodi:namedview
     id="namedview201"
     pagecolor="#ffffff"
     bordercolor="#000000"
     borderopacity="0.25"
     inkscape:showpageshadow="2"
     inkscape:pageopacity="0.0"
     inkscape:pagecheckerboard="0"
     inkscape:deskcolor="#d1d1d1"
     showgrid="false"
     inkscape:zoom="4.09"
     inkscape:cx="23.105134"
     inkscape:cy="37.530562"
     inkscape:window-width="1649"
     inkscape:window-height="1020"
     inkscape:window-x="256"
     inkscape:window-y="33"
     inkscape:window-maximized="0"
     inkscape:current-layer="svg199" /><path
     d="m 27.451015,4.4232698 c -0.150117,0.027224 -0.271763,0.068058 -0.271763,0.092566 0,0.051733 -0.212234,0.1388563 -0.486582,0.2042 -0.152705,0.03538 -0.364937,0.098008 -0.471054,0.1361156 -0.235527,0.089851 -0.714346,0.3457705 -0.996462,0.5309039 -0.258821,0.1688069 -0.517641,0.2831547 -0.755758,0.3376008 -0.225175,0.049005 -0.357173,0.117075 -0.522818,0.2722579 -0.165646,0.1551822 -0.427055,0.3185471 -0.683286,0.4247252 -0.258823,0.1061781 -0.406351,0.1851334 -0.406351,0.2150839 0,0.049005 -0.341644,0.2504764 -0.908461,0.5336181 -0.799757,0.4002167 -1.081871,0.5608545 -1.374338,0.7786526 -0.150117,0.1143478 -0.401175,0.2668159 -0.634113,0.381163 -0.56423,0.2804275 -0.615993,0.3130922 -0.864463,0.5172922 -0.155293,0.1279595 -0.758345,0.4791721 -1.70304,0.9882945 -1.048226,0.5662955 -1.439048,0.8031485 -1.612458,0.9773975 -0.121646,0.119789 -0.266584,0.182419 -0.421876,0.182419 -0.100943,0 -0.214823,0.05988 -0.414114,0.212356 -0.421881,0.323989 -1.47787,0.936563 -2.034335,1.184311 -0.09576,0.04356 -0.235527,0.133415 -0.310586,0.201473 -0.163056,0.144298 -0.313172,0.223253 -0.429642,0.225981 -0.113881,0 -0.214823,0.04356 -0.305409,0.136129 -0.284703,0.283141 -2.8444432,1.821391 -3.2611462,1.960249 -0.108703,0.0354 -0.499523,0.255919 -0.672933,0.381164 -0.152704,0.111619 -0.980933,0.612572 -1.477869,0.898442 -0.240703,0.138856 -0.5487,0.321261 -0.683286,0.408386 -0.328703,0.206914 -0.986109,0.571738 -1.775513,0.988294 -0.597877,0.31582 -0.732464,0.405659 -0.76611,0.511836 -0.0052,0.01634 -0.07247,0.04084 -0.150117,0.05717 -0.178585,0.03268 -0.287289,0.09258 -0.465878,0.255932 -0.323526,0.291311 -0.828227,0.58535 -1.128459,0.650694 -0.111294,0.02449 -0.204469,0.06534 -0.279528,0.127959 -0.06212,0.049 -0.18634996,0.144297 -0.27434896,0.212356 -0.30282,0.228695 -0.349408,0.291311 -0.398583,0.509123 -0.05177,0.247749 -0.05435,0.800433 -0.0052,1.078134 0.04141,0.228694 0.126825,0.45739 0.194118,0.520019 0.04659,0.04356 0.77646296,0.490056 1.28116196,0.786821 0.155292,0.08984 0.364938,0.193303 0.46588,0.228696 0.222584,0.07895 0.333879,0.144298 0.701403,0.416556 0.388232,0.28587 0.670348,0.454664 0.843758,0.500954 0.196703,0.05172 0.315762,0.122503 0.502112,0.285868 0.253644,0.225968 0.600467,0.460105 0.918813,0.620743 0.419292,0.212356 0.623761,0.343044 0.794582,0.509122 0.173409,0.168794 0.33388,0.258646 0.603053,0.343043 0.238117,0.07351 0.675524,0.299482 0.934344,0.481887 0.307998,0.220539 0.817874,0.533631 1.110343,0.688814 0.37788,0.198745 0.613405,0.348498 0.709169,0.451948 0.05435,0.05717 0.142349,0.108906 0.26141,0.147025 0.2536452,0.08711 0.3209382,0.125233 0.4529362,0.272259 0.088,0.09801 0.191528,0.168793 0.427054,0.285869 0.768699,0.38115 1.208696,0.626185 1.4494,0.803148 0.3727,0.272258 0.546112,0.378449 0.662581,0.405672 0.111291,0.02722 0.204468,0.09801 0.204468,0.155183 0,0.05173 0.134587,0.141571 0.300231,0.201472 0.181176,0.06534 0.320939,0.149741 0.53576,0.323989 0.201881,0.163352 0.284703,0.209629 0.427056,0.234138 0.08282,0.01361 0.126822,0.04084 0.178588,0.114347 0.05694,0.07622 0.196701,0.160624 0.719519,0.430168 0.395998,0.204186 0.719524,0.38932 0.825641,0.47373 0.328702,0.26136 0.55129,0.397489 0.996461,0.598961 0.295056,0.133402 0.559054,0.299481 0.732462,0.454663 0.207059,0.187861 0.504704,0.367552 1.28893,0.775939 1.006815,0.525462 1.358811,0.72692 1.785865,1.029129 0.450351,0.318547 1.019756,0.677917 1.734103,1.091759 0.292466,0.168793 0.600463,0.359368 0.688463,0.421997 0.0854,0.05988 0.212235,0.133401 0.284703,0.15791 0.243291,0.09257 0.411524,0.187848 0.657406,0.37298 0.137174,0.103464 0.351997,0.236865 0.478818,0.299495 0.442584,0.212356 0.647053,0.329431 0.835993,0.476443 0.103528,0.08168 0.23294,0.163353 0.284703,0.182419 0.134586,0.049 1.120694,0.049 1.358808,-0.0027 0.199292,-0.04083 0.269175,-0.08985 0.385644,-0.269529 0.134589,-0.206914 0.383055,-0.487342 0.750581,-0.841282 0.421881,-0.408387 0.667761,-0.618015 0.828227,-0.70514 0.126824,-0.06807 0.132001,-0.07895 0.160469,-0.294038 0.01812,-0.136129 0.116473,-0.266816 0.328703,-0.432896 0.271761,-0.215084 0.269173,-0.209628 0.269173,-0.868491 0,-0.67793 0,-0.67793 -0.300229,-0.784108 -0.245882,-0.08984 -0.295057,-0.125231 -0.34941,-0.250476 -0.09318,-0.217798 -0.489172,-0.514565 -1.146576,-0.857608 -0.328704,-0.171521 -0.427056,-0.236865 -0.556467,-0.372993 -0.157881,-0.163352 -0.287289,-0.250478 -1.079284,-0.724207 -0.188938,-0.11162 -0.390819,-0.250476 -0.447759,-0.30765 -0.05694,-0.05445 -0.139763,-0.111621 -0.183763,-0.125232 -0.121646,-0.03539 -0.251057,-0.130687 -0.634112,-0.462846 -0.225175,-0.196016 -0.419291,-0.337588 -0.543523,-0.402931 -0.199294,-0.100736 -0.429643,-0.255919 -0.789406,-0.528177 -0.307996,-0.231422 -0.815287,-0.563581 -1.286339,-0.844009 -0.504702,-0.296753 -0.742818,-0.460105 -1.115519,-0.754143 -0.502113,-0.397503 -1.695278,-1.211548 -2.243979,-1.530083 -0.219998,-0.127959 -0.439995,-0.280426 -0.905874,-0.628912 -0.08023,-0.0599 -0.207057,-0.122517 -0.295056,-0.147026 -0.17341,-0.04628 -0.232939,-0.09257 -0.30282,-0.236864 -0.07247,-0.147013 -0.326116,-0.348486 -0.6807,-0.541788 -0.395996,-0.212356 -0.672933,-0.405659 -0.929167,-0.647979 -0.245881,-0.23141 -0.408938,-0.340315 -0.561644,-0.383878 -0.313173,-0.08713 -1.309634,-0.73509 -1.656452,-1.078133 -0.17082,-0.16608 -0.421881,-0.351213 -0.944699,-0.694256 -0.450347,-0.294038 -0.706582,-0.481899 -0.856696,-0.626198 -0.139764,-0.130686 -0.225175,-0.176964 -0.403763,-0.212356 -0.08282,-0.01361 -0.186349,-0.049 -0.232938,-0.07351 -0.326115,-0.176963 -0.758344,-0.65342 -0.711756,-0.78138 0.0078,-0.02449 0.06729,-0.06806 0.131999,-0.09801 0.06471,-0.02995 0.119056,-0.07079 0.119056,-0.09257 0,-0.05717 0.137175,-0.14974 0.527995,-0.35394 0.27694,-0.144286 0.393407,-0.220526 0.486584,-0.321263 0.09318,-0.10345 0.139764,-0.1334 0.20188,-0.1334 0.09835,0 0.307996,-0.108907 0.434821,-0.228696 0.199291,-0.185132 0.43223,-0.326703 0.768698,-0.46556 0.28988,-0.11979 0.903283,-0.454676 1.268222,-0.694255 0.313173,-0.204187 0.535759,-0.326705 0.89811,-0.500954 0.178585,-0.0844 0.543523,-0.326703 0.771286,-0.514564 0.137177,-0.114348 0.219997,-0.155196 0.468467,-0.239593 0.328701,-0.108906 0.455525,-0.176963 0.670346,-0.364823 0.155294,-0.133403 0.476233,-0.318535 0.763522,-0.43561 0.320938,-0.133402 0.716935,-0.359383 0.996461,-0.571739 0.183763,-0.138843 0.452937,-0.29948 0.820462,-0.492783 0.476232,-0.247749 0.561644,-0.302208 0.644464,-0.408386 0.113883,-0.144299 0.214822,-0.209642 0.584936,-0.375721 0.152705,-0.06806 0.339055,-0.166067 0.414114,-0.217798 0.07506,-0.049 0.359763,-0.206916 0.631524,-0.351214 0.582347,-0.30765 1.037873,-0.579908 1.485633,-0.887558 0.39082,-0.272257 0.649641,-0.40566 0.838579,-0.438337 0.157882,-0.02722 0.269176,-0.07895 0.411525,-0.196017 0.116472,-0.09802 0.16047,-0.08713 0.199292,0.05173 0.03624,0.136115 0.06988,1.157088 0.09059,2.681729 l 0.01553,1.244212 -0.111291,0.01361 c -0.06211,0.0082 -0.292467,0.03539 -0.512467,0.05717 -0.463289,0.04629 -0.81011,0.130686 -1.193165,0.280427 -0.507289,0.201472 -0.856699,0.413828 -1.05599,0.647966 -0.06211,0.07351 -0.253644,0.285869 -0.427055,0.47373 -0.344231,0.372993 -0.442582,0.541788 -0.53317,0.90934 -0.09059,0.375707 -0.111292,0.683358 -0.09576,1.532808 0.01812,1.069965 0.03882,1.170701 0.349407,1.61448 0.207058,0.296766 0.85411,0.963799 1.14399,1.178869 0.297645,0.22054 0.833405,0.506409 1.156931,0.618028 0.27435,0.09257 0.522818,0.144299 1.017166,0.212356 0.33129,0.04629 0.349408,0.05173 0.364937,0.114349 0.01036,0.03811 0.0207,0.348497 0.0207,0.694255 0.0051,1.154375 0.05953,1.366731 0.380466,1.516484 0.269175,0.122504 0.445174,0.136128 2.132684,0.14974 1.609869,0.01361 2.407037,-0.01089 2.603742,-0.07895 0.07506,-0.02723 0.100941,-0.05445 0.116469,-0.117076 0.01294,-0.04629 0.06988,-0.125231 0.12682,-0.179691 0.07247,-0.06534 0.113882,-0.130686 0.132001,-0.204187 0.08282,-0.372993 0.09059,-2.453045 0.02329,-7.879118 -0.01553,-1.129865 -0.03623,-2.981222 -0.05177,-4.111088 -0.01294,-1.129866 -0.03365,-2.7116785 -0.04141,-3.5121126 L 30.872618,7.1975816 30.618973,6.8545381 C 30.274742,6.3862637 29.961569,6.0241536 29.638043,5.7219589 29.071223,5.1856001 28.892639,4.9895828 28.861581,4.8643381 28.812401,4.6710356 28.670052,4.553973 28.382759,4.4695763 28.25335,4.4314553 27.598531,4.3987783 27.451005,4.4232853 Z"
     id="path1"
     style="fill:#ffffff;stroke:#1a1a1a;stroke-width:0.00265455" /></svg>
