<svg width="278" height="54" viewBox="0 0 278 54" fill="none" xmlns="http://www.w3.org/2000/svg">
<path d="M163.155 20.0209L162.682 25.6444H160.368C156.672 25.6444 154.751 28.5837 154.751 31.4006V44.1017H148.2V20.0209H154.405L154.546 23.0265C155.847 20.9654 158.125 20.0209 160.935 20.0209H163.155ZM117.74 44.1015H111.183V31.3712C111.183 28.7052 110.951 25.3498 107.172 25.3498C103.532 25.3498 102.081 27.956 102.081 30.9908V44.1015H95.5271V20.0206H101.604L101.743 23.0992C103.045 21.0381 105.471 19.4332 109.049 19.4332C115.655 19.4332 117.74 24.1122 117.74 28.9814V44.1015ZM92.6682 38.4763L92.2098 43.9555C90.6377 44.3738 89.242 44.524 87.5531 44.524C81.3756 44.524 79.5838 41.7137 79.5838 36.0653V13.23H86.1396V20.0211H92.6631L92.2098 25.644H86.1396V35.5763C86.1396 37.8429 86.7662 39.0673 89.1097 39.0673C90.1286 39.0673 91.2621 38.9456 92.6682 38.4763V38.4763ZM77.4312 20.0209L76.9236 25.6444H75.1421C71.4536 25.6444 69.6192 28.5801 69.6192 31.4006V44.1017H63.0627V20.0209H69.2703L69.3996 23.0265C70.7087 20.9654 72.9867 20.0209 75.7996 20.0209H77.4312ZM33.4776 41.4336C29.0309 43.7936 24.5894 45.155 18.7226 44.9859C7.84652 44.6565 0 37.9565 0 26.6394C0 15.3719 7.9222 8.17261 18.7278 8.00353C24.2052 7.92044 29.1066 9.29937 32.9376 12.6534L28.3227 17.285C25.9521 15.28 22.4641 14.1081 18.2958 14.2954C11.4954 14.6095 7.39767 19.5123 7.30731 26.2531C7.21842 33.5566 11.7327 38.5898 18.7895 38.7735C22.11 38.8558 24.4887 38.4134 26.5471 37.4966V30.0313H19.2127L19.7078 23.9085H33.4776V41.4336ZM145.272 34.3497H127.298C127.81 37.4268 130.248 39.2779 133.285 39.3618C136.236 39.4412 137.888 38.5564 140.047 36.3875L144.325 39.6234C141.285 43.3382 137.637 44.6902 133.481 44.6902C126.171 44.6902 120.695 39.6198 120.695 32.0605C120.695 24.5092 126.144 19.433 133.207 19.433C140.992 19.433 145.272 24.112 145.272 32.4176V34.3497ZM138.705 29.315C138.503 26.2729 136.206 24.3496 133.042 24.472C129.858 24.5916 127.737 26.649 127.298 29.315H138.705ZM58.9354 28.3327V44.1014H53.1554L53.0121 41.7269C51.2388 43.9061 48.3598 44.6903 45.3955 44.6903C40.932 44.6903 36.7145 42.5068 36.6263 37.4211C36.4934 29.4274 45.6945 28.8597 51.4731 28.8597H52.6279V28.5434C52.6279 25.8999 50.8648 24.4722 47.5451 24.4722C45.162 24.4722 42.8097 25.4204 41.0701 27.0383L37.2875 23.2259C40.7219 20.4637 44.2951 19.4331 48.1019 19.4331C55.6208 19.4331 58.9354 22.8804 58.9354 28.3327ZM52.6279 33.5999H51.7163C48.6125 33.6064 43.1608 33.758 43.1814 36.978C43.2108 41.5141 52.6279 40.0725 52.6279 34.602V33.5999ZM158.041 41.3003C158.041 39.7676 159.207 38.6124 160.702 38.6124C162.178 38.6124 163.346 39.7676 163.346 41.3003C163.346 42.86 162.178 44.0115 160.702 44.0115C159.207 44.0115 158.041 42.86 158.041 41.3003ZM160.702 44.5501C162.482 44.5501 164 43.1784 164 41.3003C164 39.4411 162.482 38.0723 160.702 38.0723C158.905 38.0723 157.385 39.4411 157.385 41.3003C157.385 43.1784 158.905 44.5501 160.702 44.5501ZM160.01 41.5597H160.668L161.659 43.1784H162.299L161.229 41.5335C161.782 41.4664 162.205 41.172 162.205 40.5037C162.205 39.7676 161.765 39.4411 160.874 39.4411H159.442V43.1784H160.01V41.5597ZM160.01 41.078V39.9228H160.787C161.185 39.9228 161.608 40.0081 161.608 40.4709C161.608 41.0445 161.176 41.078 160.694 41.078H160.01Z" fill="white"/>
</svg>