<?xml version="1.0" encoding="UTF-8"?>
<svg xmlns="http://www.w3.org/2000/svg" width="155" height="54" viewBox="0 0 155 54" fill="none">
  <g clip-path="url(#clip0_4_1158)">
    <path d="M72.5652 5.4137L72.3608 7.94923H71.3388C69.7035 7.94923 68.8518 9.28552 68.8518 10.5533V16.2754H65.956V5.4137H68.7155L68.7836 6.78425C69.3628 5.85913 70.3849 5.4137 71.6113 5.4137H72.5652Z" fill="white"></path>
    <path d="M52.3628 16.2411H49.4329V10.519C49.4329 9.31979 49.3307 7.81218 47.6614 7.81218C46.0602 7.81218 45.4129 8.97715 45.4129 10.3477V16.2411H42.483V5.4137H45.1744L45.2425 6.78426C45.8217 5.85913 46.9119 5.13959 48.479 5.13959C51.4089 5.13959 52.3287 7.26395 52.3287 9.45685V16.2411H52.3628Z" fill="white"></path>
    <path d="M41.2225 13.7056L41.0181 16.1726C40.3026 16.3782 39.6894 16.4124 38.9399 16.4124C36.1804 16.4124 35.3968 15.1447 35.3968 12.6091V2.32996H38.3267V5.37945H41.2225L41.0181 7.91498H38.3267V12.4036C38.3267 13.4315 38.5992 13.9797 39.6553 13.9797C40.0982 13.9797 40.6093 13.9454 41.2225 13.7056Z" fill="white"></path>
    <path d="M34.4429 5.4137L34.2045 7.94923H33.4209C31.7856 7.94923 30.968 9.28552 30.968 10.5533V16.2754H28.0381V5.4137H30.7976L30.8658 6.78425C31.4449 5.85913 32.467 5.4137 33.7275 5.4137H34.4429Z" fill="white"></path>
    <path d="M14.8878 15.0419C12.9118 16.1041 10.9359 16.7208 8.31262 16.6523C3.50901 16.5152 0.0340576 13.5 0.0340576 8.39467C0.0340576 3.28934 3.54308 0.0685253 8.34669 -2.66061e-06C10.7655 -0.0685306 12.9459 0.582484 14.6493 2.0901L12.6052 4.1802C11.5491 3.25507 10.016 2.74111 8.14228 2.80964C5.14428 2.9467 3.3046 5.17385 3.27053 8.22335C3.23647 11.5127 5.24649 13.7741 8.38076 13.8769C9.84569 13.9112 10.9018 13.7056 11.8216 13.2944V9.93654H8.5511L8.75551 7.16116H14.8878V15.0419Z" fill="white"></path>
    <path d="M61.6975 9.59391C61.5952 8.22335 60.5732 7.36675 59.1764 7.40102C57.7455 7.46954 56.8257 8.39467 56.6213 9.59391H61.6975ZM64.5932 11.8553H56.5872C56.8257 13.2259 57.9159 14.0825 59.2445 14.1168C60.5732 14.151 61.2886 13.7398 62.2425 12.7805L64.1504 14.2538C62.7876 15.9327 61.1864 16.5495 59.3127 16.5495C56.0762 16.5495 53.6233 14.2538 53.6233 10.8617C53.6233 7.46954 56.0421 5.17386 59.1764 5.17386C62.6514 5.17386 64.5251 7.29822 64.5251 11.033V11.8553H64.5932Z" fill="white"></path>
    <path d="M23.4048 11.5127H22.996C21.6333 11.5127 19.1804 11.5812 19.2144 13.0203C19.2144 15.0761 23.4048 14.4251 23.4048 11.9581V11.5127ZM26.2325 9.14847V16.2411H23.6774L23.6092 15.1789C22.8257 16.1726 21.5311 16.5152 20.2365 16.5152C18.2605 16.5152 16.3868 15.5216 16.3527 13.2259C16.2846 9.62817 20.3728 9.35405 22.9619 9.35405H23.473V9.25126C23.473 8.05202 22.6894 7.40101 21.2245 7.40101C20.1683 7.40101 19.1122 7.81218 18.3627 8.56598L16.6934 6.85279C18.2265 5.61928 19.7936 5.13959 21.497 5.13959C24.7335 5.13959 26.2325 6.68147 26.2325 9.14847Z" fill="white"></path>
    <path d="M71.1684 14.9048V14.3909H71.5091C71.6794 14.3909 71.8838 14.4251 71.8838 14.6307C71.8838 14.9048 71.6794 14.9048 71.475 14.9048H71.1684ZM71.1684 15.1104H71.475L71.9179 15.83H72.1904L71.7135 15.0761C71.952 15.0419 72.1564 14.9048 72.1564 14.5965C72.1564 14.2538 71.952 14.1168 71.5772 14.1168H70.9299V15.7957H71.1684V15.1104ZM71.475 16.4467C72.2586 16.4467 72.9399 15.83 72.9399 14.9734C72.9399 14.151 72.2586 13.5343 71.475 13.5343C70.6914 13.5343 70.0101 14.151 70.0101 14.9734C69.976 15.83 70.6574 16.4467 71.475 16.4467ZM70.2826 15.0076C70.2826 14.3223 70.7936 13.8084 71.475 13.8084C72.1223 13.8084 72.6674 14.3223 72.6674 15.0076C72.6674 15.7272 72.1564 16.2411 71.475 16.2411C70.7936 16.2069 70.2826 15.6929 70.2826 15.0076Z" fill="white"></path>
    <path d="M13.3888 35.052V35.1548C13.3888 39.2665 10.3227 40.8769 6.64329 40.8769H3.50902V48.7576H1.19238V29.3985H6.67736C10.3567 29.3985 13.3888 31.0431 13.3888 35.052ZM11.0722 35.1891V35.0863C11.0722 32.3452 9.43688 31.3172 6.8477 31.3172H3.54309V39.0609H6.81363C9.57315 39.0266 11.0722 37.6903 11.0722 35.1891Z" fill="white"></path>
    <path d="M14.0361 41.8705V41.665C14.0361 37.382 16.7615 34.401 20.6453 34.401C23.9158 34.401 26.982 36.3883 26.982 41.4594V42.1789H16.3868C16.489 45.3997 18.022 47.1815 20.9178 47.1815C23.0982 47.1815 24.3587 46.3591 24.6653 44.7145H26.9138C26.4369 47.5584 24.0862 49.066 20.8838 49.066C16.8978 49.0317 14.0361 46.2221 14.0361 41.8705ZM20.6794 36.2513C18.3968 36.2513 16.8637 37.8274 16.489 40.3629H24.7335C24.495 37.4162 22.996 36.2513 20.6794 36.2513Z" fill="white"></path>
    <path d="M28.9579 41.8705V41.665C28.9579 37.382 31.6834 34.401 35.5672 34.401C38.8377 34.401 41.9039 36.3883 41.9039 41.4594V42.1789H31.2746C31.3768 45.3997 32.9099 47.1815 35.8057 47.1815C37.986 47.1815 39.2465 46.3591 39.5531 44.7145H41.8016C41.3247 47.5584 38.974 49.066 35.7716 49.066C31.7856 49.0317 28.9579 46.2221 28.9579 41.8705ZM35.5672 36.2513C33.2846 36.2513 31.7515 37.8274 31.3427 40.3629H39.5872C39.4169 37.4162 37.8838 36.2513 35.5672 36.2513Z" fill="white"></path>
    <path d="M46.98 37.1421C47.8658 35.5317 49.0922 34.4353 51.6133 34.3325V36.4569C48.7856 36.5939 46.98 37.4848 46.98 40.9797V48.7576H44.7315V34.6066H46.98V37.1421Z" fill="white"></path>
    <path d="M61.4249 48.7919H59.0742V29.3985H61.4249V48.7919Z" fill="white"></path>
    <path d="M66.944 36.868C67.5913 35.5317 69.1584 34.3667 71.475 34.3667C74.4049 34.3667 76.449 35.9771 76.449 40.0888V48.7919H74.2005V39.9175C74.2005 37.4162 73.1444 36.3198 70.8959 36.3198C68.8177 36.3198 66.944 37.6561 66.944 40.1916V48.7919H64.6955V34.6066H66.944V36.868Z" fill="white"></path>
    <path d="M78.2546 44.4403H80.435C80.6053 46.1193 81.4911 47.1814 83.7737 47.1814C85.8859 47.1814 86.8398 46.4619 86.8398 44.92C86.8398 43.3782 85.7496 42.9327 83.5352 42.5216C79.8558 41.8363 78.6294 40.8084 78.6294 38.3413C78.6294 35.703 81.1845 34.3667 83.3989 34.3667C85.92 34.3667 88.1344 35.3946 88.5091 38.4784H86.3628C86.0562 36.9365 85.1705 36.2512 83.3989 36.2512C81.7636 36.2512 80.7416 37.0736 80.7416 38.2728C80.7416 39.5406 81.457 40.0545 84.0462 40.5342C86.9761 41.0825 89.0201 41.7335 89.0201 44.7487C89.0201 47.3185 87.2827 49.066 83.8418 49.066C80.435 49.0317 78.3909 47.3185 78.2546 44.4403Z" fill="white"></path>
    <path d="M91.0983 30.1523C91.0983 29.3299 91.7456 28.6447 92.5973 28.6447C93.449 28.6447 94.0963 29.2957 94.0963 30.118C94.0963 30.9403 93.449 31.6256 92.5973 31.6256C91.7797 31.6256 91.0983 30.9746 91.0983 30.1523ZM93.7556 48.7919H91.5071V34.6066H93.7556V48.7919Z" fill="white"></path>
    <path d="M96.5492 49.6142H98.8318C99.1725 51.2589 100.501 52.0812 102.92 52.0812C105.68 52.0812 107.451 50.7449 107.451 47.6954V45.6396C106.395 47.2843 104.623 48.2779 102.681 48.3122C98.9681 48.3122 96.2426 45.5025 96.2426 41.5965V41.3909C96.2426 37.5533 98.934 34.3325 102.818 34.3325C105.168 34.3325 106.633 35.4632 107.417 36.868V34.6066H109.631V47.8325C109.597 51.9442 106.838 53.9657 102.886 53.9657C98.7637 54 96.924 52.0127 96.5492 49.6142ZM107.519 41.4594V41.2538C107.519 38.0673 105.782 36.217 103.056 36.217C100.263 36.217 98.5933 38.3071 98.5933 41.2881V41.4937C98.5933 44.5774 100.569 46.4277 102.954 46.4277C105.543 46.4619 107.519 44.6117 107.519 41.4594Z" fill="white"></path>
    <path d="M115.457 36.868C116.104 35.5317 117.671 34.3667 119.988 34.3667C122.884 34.3667 124.962 35.9772 124.962 40.0888V48.7919H122.714V39.9175C122.714 37.4162 121.657 36.3198 119.409 36.3198C117.331 36.3198 115.457 37.6561 115.457 40.1916V48.7919H113.209V27.8223H115.457V36.868Z" fill="white"></path>
    <path d="M128.573 45.2627V36.5254H126.563V34.6066H128.573V31.3858H130.822V34.6066H134.126V36.5254H130.822V45.0571C130.822 46.4277 131.435 47.1129 132.559 47.1129C133.138 47.1129 133.752 47.0101 134.297 46.8046V48.6891C133.684 48.8947 133.036 48.9974 132.389 48.9974C129.8 48.9974 128.573 47.4556 128.573 45.2627Z" fill="white"></path>
    <path d="M135.387 44.4403H137.567C137.738 46.1193 138.623 47.1814 140.872 47.1814C143.018 47.1814 143.938 46.4619 143.938 44.92C143.938 43.3782 142.848 42.9327 140.633 42.5216C136.954 41.8363 135.728 40.8084 135.728 38.3413C135.728 35.703 138.283 34.3667 140.497 34.3667C143.018 34.3667 145.233 35.3946 145.607 38.4784H143.461C143.12 36.9365 142.269 36.2512 140.497 36.2512C138.862 36.2512 137.84 37.0736 137.84 38.2728C137.84 39.5406 138.555 40.0545 141.144 40.5342C144.074 41.0825 146.118 41.7335 146.118 44.7487C146.118 47.3185 144.381 49.066 140.94 49.066C137.533 49.0317 135.523 47.3185 135.387 44.4403Z" fill="white"></path>
    <path d="M147.992 45.7424H150.547V46.2563H149.593V49.1688H148.946V46.2563H147.992V45.7424Z" fill="white"></path>
    <path d="M152.728 48.1066L153.613 45.7766H154.465V49.203H153.818V46.599L152.796 49.203H152.591L151.569 46.599V49.203H150.99V45.7766H151.842L152.728 48.1066Z" fill="white"></path>
  </g>
  <defs>
    <clipPath id="clip0_4_1158">
      <rect width="154.465" height="54" fill="white"></rect>
    </clipPath>
  </defs>
</svg>
