<svg width="17" height="17" viewBox="0 0 17 17" fill="none" xmlns="http://www.w3.org/2000/svg">
<path d="M8.6 16.2C12.7974 16.2 16.2 12.7974 16.2 8.6C16.2 4.40264 12.7974 1 8.6 1C4.40264 1 1 4.40264 1 8.6C1 12.7974 4.40264 16.2 8.6 16.2Z" stroke="white" stroke-width="0.75" stroke-miterlimit="10"/>
<path d="M8.59961 16.2C10.8087 16.2 12.5996 12.7974 12.5996 8.6C12.5996 4.40264 10.8087 1 8.59961 1C6.39047 1 4.59961 4.40264 4.59961 8.6C4.59961 12.7974 6.39047 16.2 8.59961 16.2Z" stroke="white" stroke-width="0.75" stroke-miterlimit="10"/>
<path d="M8.59961 15.9V1" stroke="white" stroke-width="0.75" stroke-miterlimit="10"/>
<path d="M1.09961 8.59998H16.0996" stroke="white" stroke-width="0.75" stroke-miterlimit="10"/>
</svg>
