<svg width="158" height="85" viewBox="0 0 158 85" fill="none" xmlns="http://www.w3.org/2000/svg">
<path fill-rule="evenodd" clip-rule="evenodd" d="M35.6016 16.981V36.6246H35.6026V39.2847V46.446V66.0913H45.6011V46.446H55.5994V66.0913H65.5976V46.446V36.6246H45.5996V16.981H35.6016Z" fill="white"/>
<path fill-rule="evenodd" clip-rule="evenodd" d="M75.9767 36.8118H77.5946V42.0121H77.6334C78.166 40.8301 79.5544 40.3351 80.7349 40.3351C83.3232 40.3351 84.1235 41.8206 84.1235 43.9351V50.4118H82.5048V43.745C82.5048 42.5445 81.7438 41.7638 80.5065 41.7638C78.5464 41.7638 77.5946 43.0783 77.5946 44.8496V50.4118H75.9767V36.8118Z" fill="white"/>
<path fill-rule="evenodd" clip-rule="evenodd" d="M92.4395 45.3259C91.8116 45.7828 90.5932 45.8015 89.5094 45.9926C88.4433 46.1827 87.5299 46.5634 87.5299 47.7646C87.5299 48.8295 88.4433 49.2106 89.4323 49.2106C91.5651 49.2106 92.4395 47.8778 92.4395 46.9829V45.3259ZM95.0678 50.3739C94.7813 50.5434 94.4191 50.6396 93.9057 50.6396C93.0676 50.6396 92.5352 50.1817 92.5352 49.1157C91.6404 50.1647 90.4424 50.6396 89.0706 50.6396C87.282 50.6396 85.8174 49.8394 85.8174 47.8778C85.8174 45.649 87.4711 45.173 89.1481 44.8495C90.937 44.5067 92.459 44.6217 92.459 43.4021C92.459 41.9921 91.2984 41.7637 90.2708 41.7637C88.8992 41.7637 87.8914 42.183 87.8146 43.631H86.1967C86.2939 41.1919 88.1777 40.3351 90.3653 40.3351C92.136 40.3351 94.0577 40.7357 94.0577 43.0397V48.1069C94.0577 48.8683 94.0577 49.2106 94.5721 49.2106C94.7038 49.2106 94.8564 49.1917 95.0678 49.1157V50.3739Z" fill="white"/>
<path fill-rule="evenodd" clip-rule="evenodd" d="M100.508 50.4117H98.7763L95.1221 40.564H96.93L99.6904 48.7728H99.7279L102.412 40.564H104.105L100.508 50.4117Z" fill="white"/>
<path fill-rule="evenodd" clip-rule="evenodd" d="M111.186 45.3259C110.558 45.7828 109.34 45.8015 108.255 45.9926C107.19 46.1827 106.277 46.5634 106.277 47.7646C106.277 48.8295 107.19 49.2106 108.178 49.2106C110.31 49.2106 111.186 47.8778 111.186 46.9829V45.3259ZM113.814 50.3739C113.527 50.5434 113.165 50.6396 112.652 50.6396C111.814 50.6396 111.281 50.1817 111.281 49.1157C110.386 50.1647 109.187 50.6396 107.816 50.6396C106.028 50.6396 104.563 49.8394 104.563 47.8778C104.563 45.649 106.218 45.173 107.893 44.8495C109.684 44.5067 111.205 44.6217 111.205 43.4021C111.205 41.9921 110.045 41.7637 109.016 41.7637C107.646 41.7637 106.639 42.183 106.561 43.631H104.943C105.039 41.1919 106.924 40.3351 109.112 40.3351C110.881 40.3351 112.803 40.7357 112.803 43.0397V48.1069C112.803 48.8683 112.803 49.2106 113.317 49.2106C113.451 49.2106 113.604 49.1917 113.814 49.1157V50.3739Z" fill="white"/>
<path fill-rule="evenodd" clip-rule="evenodd" d="M116.19 47.3062C116.248 48.7544 117.504 49.2105 118.837 49.2105C119.845 49.2105 121.215 48.9823 121.215 47.7447C121.215 46.4883 119.617 46.2771 117.999 45.9169C116.401 45.5549 114.783 45.02 114.783 43.1359C114.783 41.154 116.743 40.3355 118.456 40.3355C120.626 40.3355 122.357 41.0211 122.49 43.4204H120.873C120.759 42.1637 119.654 41.7632 118.589 41.7632C117.618 41.7632 116.495 42.03 116.495 43.0209C116.495 44.1824 118.208 44.3724 119.712 44.7344C121.329 45.0965 122.928 45.6302 122.928 47.5341C122.928 49.8781 120.738 50.6396 118.741 50.6396C116.534 50.6396 114.668 49.7442 114.572 47.3062H116.19Z" fill="white"/>
</svg>
