<svg width="157" height="86" viewBox="0 0 157 86" fill="none" xmlns="http://www.w3.org/2000/svg">
<g clip-path="url(#clip0)">
<path d="M95.699 49.4834V35.0909C98.9909 35.2865 102.333 34.4587 105.384 36.3661C107.9 37.9394 109.098 40.8119 108.499 43.9786C107.999 46.6251 105.457 49.2019 102.733 49.4416C100.418 49.6447 98.0721 49.4834 95.699 49.4834ZM98.3124 37.3919V47.263C99.6059 47.263 100.853 47.4158 102.047 47.231C104.495 46.8551 106.145 44.7549 106.1 42.3286C106.053 39.7999 104.481 37.9623 101.918 37.5881C100.783 37.4228 99.6191 37.4571 98.3124 37.3919ZM77.6393 42.2582C77.7967 38.091 81.2854 34.7179 85.2844 34.8666C89.4356 35.0205 92.8768 38.539 92.6577 42.5191C92.406 47.1137 89.0231 49.9382 85.0178 49.8833C80.8168 49.8243 77.4895 46.247 77.6393 42.2582ZM80.1886 42.2262C80.1005 45.0976 82.2202 47.465 84.9789 47.5748C87.7038 47.6852 89.9877 45.4409 90.0975 42.5483C90.2051 39.7101 88.0339 37.2912 85.3033 37.2065C82.5514 37.1201 80.2762 39.3536 80.1886 42.2262ZM121.658 47.2504V49.5526H111.358V35.0955H121.657V37.3169H113.978V41.086H118.848V43.3687H113.948V47.251L121.658 47.2504ZM142.829 41.8801C144.813 39.7227 147.142 37.1905 149.284 34.862H145.957L139.655 41.4092V34.8712H137.184V49.3449H139.704V42.0866C139.704 42.0866 144.235 46.7098 146.59 49.3535H149.999C147.683 46.9369 144.81 43.9511 142.829 41.8801ZM42.4868 34.862L40.0428 34.8872L33.6478 49.4462H36.4368L37.8699 45.9621H44.6288L46.1163 49.4462H48.8824L42.4868 34.862ZM38.8122 43.6748L41.1876 37.9034L43.6522 43.6748H38.8122ZM65.3682 37.0978H69.9954V49.3941H72.3874V37.1236H76.2085L77.1891 34.862H65.3677V37.0978H65.3682ZM129.568 41.0276C126.183 40.0705 126.574 38.6236 126.751 38.2163C126.929 37.8095 127.5 37.0921 129.668 37.0921C131.835 37.0921 133.352 37.9846 133.352 37.9846L134.298 36.0658C134.238 35.9679 132.505 34.9221 129.628 34.8638C126.751 34.806 124.209 36.4536 124.209 38.7403C124.209 41.0282 125.597 42.1135 128.327 42.9076C131.42 43.8069 132.366 44.5936 132.366 45.7372C132.366 46.8809 131.733 47.7144 129.486 47.7144C127.567 47.7144 125.247 46.2023 124.673 45.7664L123.765 47.7013C124.509 48.1921 127.242 49.7494 129.648 49.7494C132.366 49.7494 134.651 48.4118 134.731 45.64C134.81 42.8687 132.647 41.8978 129.568 41.0276ZM59.8606 43.5071C59.8606 45.5101 58.2369 47.1332 56.2346 47.1332C54.2316 47.1332 52.6085 45.5084 52.6085 43.5071V34.862H49.9185V43.2932C49.9185 46.7807 52.7459 49.6087 56.2346 49.6087C59.7227 49.6087 62.55 46.7813 62.55 43.2932V34.862H59.8606V43.5071Z" fill="white"/>
<path d="M14.9468 32.2372C14.9256 32.2372 14.9056 32.2378 14.8856 32.2389C14.3427 32.2715 14.1195 32.581 14.0904 32.6234L14.0875 32.6285L8.25029 46.505C8.24571 46.5227 8.23999 46.5404 8.23255 46.5576C8.10269 46.9066 8.12729 47.2007 8.23599 47.4375L8.30121 47.5582C8.55351 47.9593 9.05009 48.1658 9.34645 48.1664H13.5715L18.003 37.7369C16.8811 35.0806 16.0372 33.0931 15.9154 32.8368C15.6917 32.3665 15.2529 32.2372 14.9468 32.2372Z" fill="white"/>
<path d="M9.47061 52.2032L11.0101 55.0528C11.35 55.6615 12.2047 55.7302 12.2047 55.7302C13.0898 55.7902 14.7265 54.9687 15.0486 54.7822C15.3604 54.6026 22.8156 50.0023 23.8133 49.3873H8.7755C8.43395 49.3873 7.86127 49.1493 7.57007 48.6859L9.47061 52.2032Z" fill="white"/>
<path d="M23.2819 31.5604C23.2819 31.5604 23.0942 30.9397 22.2458 30.9437C22.2458 30.9437 21.069 30.9397 19.673 30.9368C18.8452 30.9345 17.9407 30.9334 17.1575 30.9334C16.0779 30.9334 15.23 30.9362 15.1362 30.9437C14.714 30.9809 14.3696 31.2635 14.2466 31.4609C14.2798 31.4111 14.5372 31.0541 15.1637 31.0169C15.5161 30.9969 16.0751 31.1279 16.3514 31.7069C16.4921 32.0026 17.4653 34.2945 18.7594 37.3581C21.5839 44.0443 25.9353 54.4098 26.5005 55.7554H33.4911L33.4923 55.7548L23.2819 31.5604Z" fill="white"/>
</g>
<defs>
<clipPath id="clip0">
<rect width="142.43" height="24.8231" fill="white" transform="translate(7.57007 30.9334)"/>
</clipPath>
</defs>
</svg>
