<?xml version="1.0" encoding="utf-8"?>
<!-- Generator: Adobe Illustrator 25.3.1, SVG Export Plug-In . SVG Version: 6.00 Build 0)  -->
<svg version="1.1" id="Layer_1" xmlns="http://www.w3.org/2000/svg" xmlns:xlink="http://www.w3.org/1999/xlink" x="0px" y="0px"
	 viewBox="0 0 157 86" style="enable-background:new 0 0 157 86;" xml:space="preserve">
<style type="text/css">
	.st0{fill:#FFFFFF;}
</style>
<path class="st0" d="M12.553,37.601l-7.52-2.575l1.852-3.229c0.273-0.477,0.635-0.607,1.11-0.442l5.425,1.856L12.553,37.601z
	 M5.063,41.03l-4.736,4.195c-0.415,0.365-0.493,0.789-0.19,1.314l2.03,3.553l6.564-5.815L5.063,41.03z M7.473,52.696l1.353,6.858
	c0.113,0.601,0.469,0.913,1.134,0.913h4.469l-1.876-9.51L7.473,52.696z M19.04,56.802l7.217,2.469
	c0.635,0.218,1.116,0.047,1.478-0.595l2.463-4.295l-10.007-3.423L19.04,56.802z M32.751,36.539l-8.737,7.742l4.885,4.319l6.303-5.58
	c0.546-0.489,0.659-1.049,0.249-1.75L32.751,36.539z M26.964,35.284l-1.804-9.127c-0.16-0.801-0.629-1.214-1.514-1.214h-5.953
	L20.198,37.6L26.964,35.284z M88.044,45.012c0,1.284,0,2.162,0.053,3.146h-0.053c-0.76-1.155-1.567-2.28-2.416-3.37l-8.084-10.623
	h-2.333v18.041h2.416V40.929c0-1.285-0.03-2.162-0.083-3.011h0.053c0.76,1.108,1.549,2.192,2.362,3.258l8.381,11.036h2.119V34.171
	h-2.416V45.012z M136.79,44.871l4.333,0.006v4.873c-0.789,0.389-2.036,0.66-3.419,0.66c-4.125,0-6.701-2.763-6.701-7.147
	c0-4.219,2.523-7.176,7.028-7.176c1.679-0.006,3.335,0.389,4.831,1.149V34.96C141.728,34.489,139.96,34,137.9,34
	c-5.674,0-9.443,3.942-9.443,9.474c0,5.256,3.502,9.009,9.01,9.009c2.469,0,4.718-0.713,6.048-1.396v-8.213h-7.431L136.79,44.871z
	 M150.269,50.209v-6.216h5.835v-2.027h-5.835v-5.804h5.918l0.706-1.997h-9.033v18.041H157v-1.997H150.269z M120.302,34.112
	l6.944,18.1h-2.576l-1.762-4.737h-6.921l-1.709,4.737h-2.523l6.838-18.1H120.302z M120.492,40.764
	c-0.516-1.532-0.783-2.357-1.003-3.011h-0.053c-0.19,0.654-0.487,1.508-1.033,3.04l-1.686,4.684h5.455v-0.006L120.492,40.764z
	 M64.499,43.993h5.834v-2.027h-5.834v-5.804h5.911l0.706-1.997h-9.033v18.041h9.146v-1.997h-6.731V43.993z M102.318,44.871
	l4.345,0.006v4.873c-0.79,0.389-2.036,0.66-3.419,0.66c-4.125,0-6.701-2.763-6.701-7.147c0-4.219,2.522-7.176,7.028-7.176
	c1.679-0.006,3.335,0.389,4.831,1.149V34.96c-1.146-0.471-2.908-0.96-4.968-0.96c-5.674,0-9.443,3.942-9.443,9.474
	c0,5.256,3.502,9.009,9.01,9.009c2.469,0,4.718-0.713,6.048-1.396v-8.213h-7.437L102.318,44.871z M53.032,50.403
	c-3.935,0-6.404-2.928-6.404-7.117c0-4.024,2.439-7.2,6.564-7.2c1.792,0,3.175,0.465,4.451,1.149V34.96
	c-0.95-0.524-2.576-0.96-4.505-0.96c-5.425,0-9.063,4.16-9.063,9.392c0,5.285,3.199,9.091,8.707,9.091
	c1.656,0,3.419-0.354,5.211-1.314l-0.677-1.944C56.07,49.908,54.711,50.403,53.032,50.403z"/>
</svg>
