<svg width="157" height="85" viewBox="0 0 157 85" fill="none" xmlns="http://www.w3.org/2000/svg">
<path d="M89.5308 35.9314C88.4382 37.0098 88.4382 38.7575 89.5308 39.836L93.3656 43.6171C93.6133 43.8894 94.6533 45.1567 94.2714 46.8704C94.252 46.9586 94.2692 47.0547 94.3385 47.1234C94.4416 47.2247 94.6091 47.2247 94.7115 47.1234L95.8165 46.0336L97.2295 44.6395C98.6362 43.2534 98.6362 41.0058 97.2295 39.6191L93.4902 35.9314C92.3969 34.8543 90.6241 34.8543 89.5308 35.9314" fill="white"/>
<path d="M112.144 58.4664C113.237 57.3893 113.237 55.6409 112.144 54.5631L108.308 50.7819C108.061 50.509 107.021 49.2424 107.403 47.5279C107.423 47.4398 107.405 47.3437 107.335 47.275C107.232 47.1742 107.065 47.1742 106.963 47.275L105.858 48.3648L104.445 49.7596C103.039 51.145 103.039 53.3926 104.445 54.7793L108.184 58.4664C109.277 59.5449 111.05 59.5449 112.144 58.4664Z" fill="white"/>
<path d="M90.1324 54.5969L108.393 35.9227C108.922 35.3821 109.622 35.1151 110.319 35.1238C110.997 35.1332 111.669 35.3987 112.182 35.9247C112.703 36.4561 112.963 37.1581 112.963 37.8594C112.965 38.5641 112.704 39.2681 112.182 39.8021L93.9215 58.4762C93.3999 59.0096 92.7131 59.2766 92.0263 59.2752C91.3395 59.2752 90.652 59.0082 90.1311 58.4756C89.6241 57.9542 89.3626 57.2721 89.35 56.5867C89.338 55.8668 89.5989 55.1435 90.1324 54.5969Z" fill="white"/>
<path d="M41.6644 40.2356H39.8513C38.6381 40.2356 37.6545 39.22 37.6545 37.9678C37.6545 36.7157 38.6381 35.7008 39.8513 35.7008H41.6644V33.9934C41.6644 31.3443 42.3162 29.3694 43.5347 28.1119C44.7519 26.8543 46.4482 26.2256 48.7094 26.2256C49.6565 26.2256 50.4529 26.2972 51.163 26.4179C52.2103 26.5949 52.9716 27.5428 52.9716 28.6401C52.9702 29.9593 51.8791 30.997 50.6055 30.8824C50.3732 30.8622 50.1343 30.8503 49.8841 30.8503C47.8831 30.8503 46.8391 31.9731 46.8391 34.4433V35.7451H50.7529C51.9535 35.7451 52.9271 36.7506 52.9271 37.9907C52.9271 39.2308 51.9535 40.2357 50.7529 40.2357H46.9261V56.559C46.9261 58.0586 45.7481 59.2752 44.2959 59.2752C42.8425 59.2752 41.6644 58.0586 41.6644 56.559V40.2356Z" fill="white"/>
<path d="M58.7154 26.8611C60.1252 26.8611 61.2683 28.0642 61.2683 29.547V56.5888C61.2683 58.0722 60.1252 59.2753 58.7154 59.2753C57.3057 59.2753 56.1626 58.0722 56.1626 56.5888V29.547C56.1626 28.0642 57.3057 26.8611 58.7154 26.8611Z" fill="white"/>
<path fill-rule="evenodd" clip-rule="evenodd" d="M65.7358 46.6162V46.9414L65.7358 46.9415C65.7358 54.2782 70.8942 59.2752 77.5823 59.2752C80.7966 59.2752 83.3071 58.2667 85.2865 56.6017C86.2972 55.751 86.2966 54.1539 85.3192 53.2609C84.548 52.5567 83.4138 52.5359 82.5832 53.1668C81.1569 54.2472 79.6271 54.819 77.669 54.819C74.3426 54.819 71.7228 52.7616 71.0703 49.0661C71.0449 48.923 71.155 48.7872 71.2965 48.7872L86.5854 48.7865C87.4067 48.7865 88.0725 48.1025 88.0732 47.2566C88.0732 41.1696 85.1317 35.7949 79.3109 34.6836C72.2164 33.3296 65.7358 39.1875 65.7358 46.6162ZM82.7979 44.9216C82.8153 45.062 82.7065 45.1864 82.5697 45.1864H71.2469C71.1082 45.1864 70.9987 45.0547 71.0201 44.9136C71.5758 41.3692 73.8154 38.9294 76.9697 38.9294C80.3788 38.9294 82.3756 41.5385 82.7979 44.9216Z" fill="white"/>
<path fill-rule="evenodd" clip-rule="evenodd" d="M115.78 55.7704C115.605 56.062 115.516 56.3832 115.516 56.7326C115.516 57.076 115.603 57.3938 115.775 57.6868C115.947 57.9798 116.179 58.2116 116.471 58.3823C116.764 58.5536 117.085 58.6397 117.436 58.6397C117.793 58.6397 118.118 58.5517 118.409 58.3763C118.7 58.1989 118.929 57.9643 119.095 57.672C119.262 57.3784 119.346 57.0652 119.346 56.7326C119.346 56.3866 119.26 56.0687 119.088 55.7771C118.916 55.4854 118.684 55.2537 118.391 55.0836C118.099 54.9116 117.78 54.8262 117.436 54.8262C117.096 54.8262 116.778 54.9109 116.483 55.0789C116.189 55.2469 115.955 55.4767 115.78 55.7704ZM119.07 56.7326C119.07 56.4363 118.998 56.1621 118.852 55.9094C118.707 55.6568 118.509 55.4538 118.258 55.3053C118.007 55.1554 117.729 55.0809 117.426 55.0809C117.132 55.0809 116.86 55.1542 116.61 55.3027C116.358 55.4505 116.16 55.6507 116.013 55.9047C115.866 56.1567 115.792 56.4336 115.792 56.7326C115.792 57.0289 115.865 57.3038 116.009 57.5571C116.156 57.8104 116.354 58.0107 116.604 58.1612C116.854 58.3098 117.13 58.385 117.431 58.385C117.731 58.385 118.007 58.3097 118.258 58.1612C118.509 58.0107 118.707 57.8104 118.852 57.5571C118.998 57.3038 119.07 57.0289 119.07 56.7326ZM117.948 57.1236C117.981 57.2029 117.997 57.3199 117.997 57.4758L117.998 57.4765C117.998 57.5532 118.003 57.625 118.015 57.6935C118.026 57.7621 118.042 57.8126 118.063 57.8408H118.339C118.292 57.7642 118.268 57.6231 118.268 57.4168C118.268 57.2145 118.24 57.0693 118.186 56.9827C118.13 56.896 118.035 56.8322 117.902 56.7926V56.7831C118.035 56.7488 118.136 56.6876 118.205 56.5975C118.275 56.5075 118.308 56.3932 118.308 56.2528C118.308 56.0593 118.241 55.9121 118.108 55.8113C117.974 55.7092 117.795 55.6587 117.571 55.6587H116.614V57.84H116.89V56.9174H117.436C117.586 56.9174 117.701 56.9315 117.779 56.9617C117.858 56.9926 117.914 57.045 117.948 57.1236ZM117.511 55.9134C117.858 55.9134 118.033 56.0317 118.033 56.2675L118.033 56.2675C118.033 56.402 117.985 56.5014 117.889 56.5679C117.795 56.6344 117.66 56.6673 117.487 56.6673H116.891V55.9134H117.511Z" fill="white"/>
</svg>
