<svg width="157" height="85" viewBox="0 0 157 85" fill="none" xmlns="http://www.w3.org/2000/svg">
<path d="M111.928 24.9968V31.7719H121.016C121.016 31.7719 120.961 24.9968 121.016 24.9968H125.478V41.9353H121.016V34.4824H111.928V41.9353H107.467V24.9973L111.928 24.9968ZM69.3607 24.9968V27.8761H62.4729V41.9348H57.9564V27.8761H51.1253V24.9968H69.3607ZM86.8056 41.9353H81.7812L80.3136 38.2655H71.9017L70.4341 41.9353H65.4657L73.3698 24.9973H78.846L86.8056 41.9353ZM76.1352 27.8761L72.9736 35.5549H79.2407L76.1352 27.8761ZM129.038 41.9353V24.9968H133.554V41.9353H129.038ZM27.9221 24.9968V31.7719H36.9551V24.9968H41.4716V41.9353H36.9551V34.4824H27.9221V41.9353H23.4055C23.4055 41.9353 23.4621 24.9973 23.4055 24.9973L27.9221 24.9968ZM45.0284 41.9353V24.9968H49.4884V41.9353H45.0284ZM86.6363 37.2491C86.2411 36.0634 86.0152 34.8777 86.0152 33.6353C86.0152 31.8285 86.3538 30.1348 87.2008 28.6666C88.0478 27.1989 89.4033 26.0697 91.0407 25.4486C92.5644 24.884 94.2549 24.5454 96.011 24.5454C98.0416 24.5454 99.963 24.9973 101.657 25.7311C103.287 26.465 104.534 27.9332 104.871 29.6835C104.926 30.0221 104.981 30.3607 105.044 30.756H100.355C100.3 30.3041 100.245 29.8523 100.073 29.4576C99.7356 28.4978 98.9437 27.7634 97.987 27.4814C97.3599 27.3121 96.6852 27.1994 96.011 27.1994C95.2191 27.1994 94.4818 27.3121 93.8076 27.5946C92.6205 27.9898 91.7169 28.893 91.3217 30.0787C90.9265 31.1517 90.7006 32.3935 90.7006 33.6358C90.7006 34.6522 90.8699 35.6686 91.1524 36.5718C91.491 37.8141 92.3946 38.83 93.5802 39.2819C94.3721 39.5639 95.164 39.7337 96.011 39.7337C96.7403 39.7337 97.422 39.621 98.0967 39.3951C98.9437 39.113 99.6805 38.4914 100.073 37.6448C100.3 37.0803 100.41 36.4591 100.41 35.8379H105.154C105.099 36.3464 105.044 36.9109 104.926 37.4189C104.534 39.113 103.35 40.5242 101.766 41.1453C100.018 41.9358 98.0416 42.331 96.011 42.331C94.4272 42.331 92.903 42.1051 91.4349 41.6538C89.2896 40.9755 87.3702 39.3946 86.6363 37.2491ZM19.3974 46.6786L15.3888 47.0168V47.6369H15.5586C17.1389 47.8072 17.1389 47.8072 17.1389 48.9929V57.349H19.5667V46.6786H19.3974ZM27.8655 49.8395C26.3978 49.8395 25.4942 50.8564 25.099 51.4771V49.7834L24.9297 49.84L21.712 50.348V50.912H21.8247C22.841 50.9686 23.0669 51.1384 23.0669 52.0992V57.3495H25.0995V53.5093C25.0995 52.494 26.0592 51.1384 27.0756 51.1384C28.0353 51.1384 28.0919 51.9855 28.0919 53.2839V57.3485H30.1245V52.0987C30.124 50.63 29.3336 49.8395 27.8655 49.8395ZM35.7695 52.7755C34.9791 52.3802 34.3014 52.0421 34.3014 51.4771C34.3014 50.8569 35.0352 50.7998 35.3743 50.7998C36.2213 50.7998 36.9551 51.2521 37.2937 51.42L37.5757 51.6474V50.121L37.3498 50.0659C36.9546 50.0093 36.2774 49.8395 35.487 49.8395C33.6242 49.8395 32.4386 50.63 32.4386 52.0421C32.4386 53.2273 33.6242 53.8475 34.6971 54.3559C35.4875 54.7512 36.2779 55.0893 36.2779 55.7114C36.2779 56.2765 35.7695 56.5585 34.923 56.5585C33.9633 56.5585 33.1729 56.1067 32.7211 55.8247L32.4952 55.6548V57.2358H32.6079C33.0597 57.349 33.7935 57.5188 34.8664 57.5188C36.899 57.5188 38.1407 56.6717 38.1407 55.2596C38.1407 53.9046 36.8985 53.2844 35.7695 52.7755ZM44.6893 49.8395C43.9555 49.8395 43.2217 50.1781 42.544 50.8564V49.7829L42.3747 49.839L39.157 50.3475V50.9115H39.3263C40.286 50.9681 40.5119 51.1379 40.5119 52.0987V60.4548H42.5445V56.6717C42.8831 57.1236 43.5042 57.5188 44.6332 57.5188C46.7219 57.5188 47.851 56.1633 47.851 53.566C47.851 51.1945 46.7219 49.8395 44.6893 49.8395ZM44.1248 50.9681C45.4797 50.9681 45.649 52.4369 45.649 53.566C45.649 55.485 45.1406 56.4453 44.1248 56.4453C42.8265 56.4453 42.544 55.203 42.544 54.1876V53.5093C42.544 52.7755 42.7133 50.9681 44.1248 50.9681ZM49.2625 50.348V50.912H49.3752C50.3915 50.9686 50.6174 51.1384 50.6174 52.0992V57.3495H52.5934V49.7834L52.4807 49.84L49.2625 50.348ZM51.6337 48.9363C52.3109 48.9363 52.8759 48.4274 52.8759 47.8072C52.8759 47.2422 52.3114 46.7357 51.6337 46.7357C50.956 46.7357 50.3915 47.2422 50.3915 47.8072C50.3915 48.4274 50.956 48.9363 51.6337 48.9363ZM61.118 51.4771V49.9527L60.9487 49.8961C60.6662 49.8395 60.3276 49.8395 59.989 49.8395C58.86 49.8395 58.2389 50.6861 57.9564 51.3082V49.7829L57.7871 49.8395L54.5694 50.3475V50.9115H54.6821C55.6984 50.9681 55.9243 51.1379 55.9243 52.0987V57.349H57.9569V53.566C57.9569 52.9458 58.1828 51.4771 60.0456 51.4771C60.2715 51.4771 60.554 51.5337 60.7794 51.5898L61.118 51.7035V51.4771ZM69.0787 52.8887C69.0787 50.8564 67.9497 49.8395 65.7477 49.8395C63.2072 49.8395 61.965 51.0252 61.965 53.4527C61.965 55.994 63.6024 57.5193 66.3683 57.5193C67.1933 57.5183 68.0133 57.3846 68.7962 57.1241L68.9089 57.0675V56.1072L68.7396 56.1638C68.401 56.277 67.836 56.4453 67.1587 56.4453C65.0134 56.4453 64.1664 54.64 64.1664 53.0009H69.0782L69.0787 52.8887ZM65.6911 50.6305C66.764 50.6305 67.046 51.42 67.046 52.1543H64.1669C64.2235 51.5898 64.5055 50.63 65.6911 50.6305ZM87.5404 49.8395C86.0152 49.8395 85.1682 50.7432 84.7735 51.4195V46.3946H84.6042L81.3865 46.8464V47.412H81.5002C82.5155 47.412 82.7424 47.6369 82.7424 48.6543V57.3495H84.774V53.6231C84.774 52.2109 85.7903 51.1389 86.6368 51.1389C87.7659 51.1389 87.7658 51.986 87.7658 52.7194V57.3495H89.799V52.495C89.7985 51.7035 89.7985 49.84 87.5404 49.8395ZM98.8886 52.8887C98.8886 50.8564 97.7596 49.8395 95.5562 49.8395C93.0157 49.8395 91.774 51.0252 91.774 53.4527C91.774 55.994 93.4114 57.5193 96.1212 57.5193C97.3599 57.5193 98.2695 57.2363 98.6066 57.1241L98.7163 57.0675V56.1072L98.5515 56.1638C98.2064 56.277 97.6499 56.4453 96.9677 56.4453C94.8194 56.4453 93.9724 54.64 93.9724 53.0009H98.8886V52.8887ZM95.4465 50.6305C96.5755 50.6305 96.858 51.42 96.858 52.1543H93.9724C93.9724 51.5898 94.3175 50.63 95.4465 50.6305ZM76.1918 47.6945V50.0103H74.8374V50.912H76.1918V55.4304C76.1918 57.4061 77.434 57.5193 78.9582 57.5193C79.3534 57.5193 79.7486 57.4627 80.1438 57.4061H80.2575V56.5024H80.0872C79.9179 56.559 79.692 56.559 79.4661 56.559C78.2805 56.559 78.2239 56.2204 78.2239 55.204V50.9125H80.4829V50.0103H78.2239V47.6945H76.1918ZM115.99 46.8464H113.959V54.8083C113.567 54.1881 108.714 46.8464 108.714 46.8464H104.025V47.412L104.417 47.5257C105.664 47.6945 105.719 47.7511 105.719 48.9363V57.349H107.922V48.9929C108.314 49.6151 113.458 57.349 113.458 57.349H116.108V46.8464H115.99ZM125.195 52.8887C125.195 50.8564 124.066 49.8395 121.808 49.8395C119.322 49.8395 118.028 51.0252 118.028 53.4527C118.028 55.994 119.667 57.5193 122.427 57.5193C123.619 57.5193 124.576 57.2363 124.913 57.1241L125.031 57.0675V56.1072L124.858 56.1638C124.521 56.277 123.894 56.4453 123.219 56.4453C121.079 56.4453 120.287 54.64 120.224 53.0575H125.195V52.8887ZM121.753 50.6305C122.828 50.6305 123.11 51.42 123.165 52.1543H120.225C120.287 51.5898 120.624 50.63 121.753 50.6305ZM136.314 47.6945V50.0103H134.965V50.912H136.314V55.4304C136.314 57.4061 137.561 57.5193 139.082 57.5193C139.482 57.5193 139.874 57.4627 140.266 57.4061H140.438V56.5024H140.211C140.046 56.559 139.874 56.559 139.646 56.559C138.408 56.559 138.353 56.2204 138.353 55.204V50.9125H140.611V50.0103H138.353V47.6945H136.314ZM132.252 52.3802L134.338 50.0098H132.198L130.222 52.2675L128.473 50.0098H125.368V50.5729H125.533C126.552 50.6866 126.835 50.8569 127.454 51.7035L128.756 53.3976L126.662 55.7686H128.811L129.712 54.6946L131.743 57.349H134.119L130.331 52.3802H132.252Z" fill="white"/>
</svg>
