<svg width="157" height="85" viewBox="0 0 157 85" fill="none" xmlns="http://www.w3.org/2000/svg">
<path fill-rule="evenodd" clip-rule="evenodd" d="M6.63979 30.0601V29.6479H10.2428V30.0601H8.90655L4.69607 34.4349L10.2421 41.0376H11.0927V41.4505H6.47655V41.0376H7.93468L3.31921 35.3014C3.27926 35.2185 3.35915 35.1364 3.48107 35.0128L8.25841 30.0608H6.63979V30.0601ZM4.5342 41.4505H0V41.0376H1.37686V30.0601H0V29.6479H4.5342V30.0601H3.15803V41.0376H4.53489V41.4505H4.5342ZM14.4532 41.4505V41.0376H16.0719V30.0601H14.4532V29.6479H23.6842V32.5371H23.2785C22.9548 30.4315 21.8211 30.0601 20.1604 30.0601H17.8131V35.1371C19.6349 35.1371 20.2417 35.0963 20.4848 33.2385H20.8898V37.6963H20.4848C20.3636 35.8392 19.5943 35.592 17.8131 35.592V41.0397H19.9993C22.4279 41.0397 23.1979 40.7519 23.6842 38.1512H24.1691L23.926 41.4526H14.4532V41.4505ZM29.837 30.0601H28.4202V29.6479H31.9826L37.125 38.1906H37.1649V30.0601H35.7481V29.6479H39.1079V30.0601H37.6911V41.6976H37.2049L30.4046 30.4315V41.0376H31.7814V41.4505H28.4209V41.0376H29.8377L29.837 30.0601ZM44.4928 30.0601H43.076V29.6479H46.6376L51.7793 38.1906H51.8207V30.0601H50.4032V29.6479H53.7637V30.0601H52.3469V41.6976H51.9012L45.1003 30.4315H45.059V41.0376H46.4358V41.4505H43.076V41.0376H44.4928V30.0601ZM57.8123 41.4505V41.0376H59.3917V30.0601H57.8123V29.6479H67.0026V32.5371H66.5976C66.3152 30.4315 65.1815 30.0601 63.5216 30.0601H61.1742V35.1371C62.996 35.1371 63.5629 35.0963 63.806 33.2385H64.211V37.6963H63.806C63.7248 35.8392 62.9554 35.592 61.1742 35.592V41.0397H63.3604C65.7491 41.0397 66.5591 40.7519 67.0446 38.1512H67.4903L67.2471 41.4526H57.8123V41.4505ZM73.9655 41.4505V41.0376H75.5035V30.0601H74.2492C72.508 30.0601 72.3461 31.2986 71.9818 33.0735H71.5361L71.7386 29.6479H81.1308L81.2513 33.0735H80.7664C80.5639 31.3815 79.9571 30.0601 78.0533 30.0601H77.244V41.0376H78.7821V41.4505H73.9655ZM93.7223 35.0949V30.0601H92.3055V29.6479H96.8803V30.0601H95.4635V41.0376H96.8803V41.4505H92.3055V41.0376H93.7223V35.6314H88.5V41.0376H89.9168V41.4505H85.302V41.0376H86.7188V30.0601H85.302V29.6479H89.9168V30.0601H88.5V35.0949H93.7223ZM115.909 32.825H115.504C115.098 31.1329 114.168 29.8129 112.264 29.8129C111.09 29.8129 110.2 30.5972 109.835 31.2165C109.147 32.5371 109.107 35.0128 109.107 36.0035C109.107 39.0155 109.471 41.2033 112.347 41.2033C114.128 41.2033 115.22 39.7998 115.707 38.232H116.112V41.4512H115.625L115.14 40.7498C114.291 41.4512 113.277 41.6976 112.265 41.6976C108.946 41.6976 107.042 38.892 107.042 35.5078C107.042 32 109.796 29.4001 112.347 29.4001C113.439 29.4001 114.169 29.7301 115.018 30.3486L115.625 29.8122H115.909V32.825ZM125.825 41.2848C123.356 41.2848 122.709 39.1805 122.709 35.5485C122.709 31.9165 123.357 29.8122 125.825 29.8122C128.376 29.8122 128.983 31.9165 128.983 35.5485C128.983 39.1805 128.377 41.2848 125.825 41.2848ZM125.825 41.6983C128.983 41.6983 131.05 38.6448 131.05 35.5499C131.05 32.4136 128.984 29.4015 125.825 29.4015C122.709 29.4015 120.643 32.4136 120.643 35.5499C120.644 38.6448 122.71 41.6983 125.825 41.6983ZM134.936 41.4505V41.0376H136.435V30.0601H134.936V29.6479H139.875V30.0601H138.176V41.0376H141.454C142.952 41.0376 143.641 39.2627 143.843 38.1491H144.207L144.005 41.4505H134.936ZM147.283 41.4505V41.0376H148.902V30.0601H147.283V29.6479H156.515V32.5371H156.11C155.786 30.4315 154.651 30.0601 153.033 30.0601H150.644V35.1371C152.507 35.1371 153.073 35.0963 153.317 33.2385H153.722V37.6963H153.317C153.195 35.8392 152.466 35.592 150.644 35.592V41.0397H152.87C155.259 41.0397 156.068 40.7519 156.515 38.1512H157L156.758 41.4526H147.283V41.4505ZM109.511 48.136V48.8381H109.553C109.958 48.3832 110.483 48.0539 111.09 48.0539C111.86 48.0539 112.589 48.4667 112.589 49.5803V53.4594H111.86V49.621C111.86 48.9196 111.538 48.6731 111.011 48.6731C110.484 48.6731 109.838 49.1267 109.512 49.4574V53.4594H108.785V48.136H109.511ZM116.313 50.2824C116.394 49.3324 116.839 48.6724 117.73 48.6724C118.5 48.6724 118.984 49.3324 118.984 50.2824H116.313ZM119.268 52.0152C118.985 52.5523 118.5 52.9237 117.851 52.9237C117.001 52.9237 116.313 52.0987 116.313 50.9424H119.673V50.446C119.673 48.7553 118.783 48.0539 117.69 48.0539C116.434 48.0539 115.585 49.0853 115.585 50.7767C115.585 52.7173 116.677 53.5423 117.851 53.5423C119.024 53.5423 119.511 52.923 119.835 52.3045L119.268 52.0152ZM122.142 48.136H122.873L123.925 52.2209H123.964L124.976 48.136H125.706L126.758 52.2209L127.77 48.136H128.5L127.123 53.4594H126.393L125.34 49.3324L124.289 53.4594H123.559L122.142 48.136ZM138.621 48.136L136.799 53.913C136.394 55.1094 135.704 55.4001 135.018 55.4001C134.815 55.4001 134.653 55.3594 134.531 55.3594V54.7401C134.613 54.7808 134.733 54.7808 134.895 54.7808C135.34 54.7808 136.03 54.6973 136.272 53.5023L134.45 48.136H135.22L136.636 52.1802L137.851 48.136H138.621ZM144.369 50.7767C144.369 52.1388 143.802 52.923 142.95 52.923C142.101 52.923 141.534 52.1388 141.534 50.7767C141.534 49.4146 142.101 48.6724 142.95 48.6724C143.803 48.6731 144.369 49.4146 144.369 50.7767ZM145.097 50.7767C145.097 49.2489 144.37 48.0539 142.952 48.0539C141.535 48.0539 140.808 49.2489 140.808 50.7767C140.808 52.3045 141.535 53.5423 142.952 53.5423C144.369 53.5423 145.097 52.3052 145.097 50.7767ZM147.972 48.136H148.66V49.2088H148.7C149.105 48.4674 149.552 48.0539 150.401 48.0539V48.7953C149.51 48.8381 149.024 49.4146 148.66 50.5288V53.458H147.972V48.136H147.972ZM153.033 46.0725H153.761V50.8181H153.801L155.907 48.136H156.756L155.218 50.1174L156.959 53.4594H156.11L154.733 50.7359L153.761 51.8495V53.4594H153.033V46.0725Z" fill="white"/>
</svg>
