<svg width="235" height="127" viewBox="0 0 235 127" fill="none" xmlns="http://www.w3.org/2000/svg">
<path d="M96.445 58.4786C95.7895 57.9553 94.9652 57.6892 94.127 57.73H91.2441V63.6699H94.127C94.9726 63.7222 95.8048 63.4412 96.445 62.8873C96.73 62.6061 96.951 62.2669 97.0931 61.8929C97.2351 61.5188 97.2947 61.1185 97.2679 60.7195V60.6465C97.3194 60.2455 97.2712 59.8379 97.1277 59.4599C96.9843 59.0818 96.7497 58.7448 96.445 58.4786Z" fill="white"/>
<path d="M140.598 66.6009H144.829L142.697 59.9513L140.598 66.6009Z" fill="white"/>
<path d="M172.275 74.9032C170.661 74.3492 169.173 73.4856 167.892 72.361L170.999 68.1029C171.905 68.8419 172.897 69.4685 173.954 69.9695C174.963 70.4391 176.062 70.6814 177.174 70.6792C177.798 70.7275 178.421 70.5685 178.946 70.2271C179.138 70.0935 179.293 69.9141 179.398 69.7052C179.503 69.4963 179.554 69.2647 179.545 69.0313V68.9925C179.551 68.7723 179.498 68.5544 179.394 68.3605C179.26 68.1359 179.079 67.9433 178.864 67.7968C178.545 67.5786 178.205 67.3914 177.85 67.2377C177.403 67.053 176.876 66.8295 176.204 66.601C175.199 66.2668 174.213 65.8807 173.249 65.4441C172.414 65.0778 171.633 64.6004 170.926 64.0247C170.303 63.4967 169.796 62.8485 169.431 62.1193C169.048 61.2885 168.868 60.3789 168.905 59.4653V59.3535C168.893 58.3783 169.085 57.4113 169.47 56.5147C169.839 55.6733 170.387 54.9221 171.077 54.3128C171.838 53.6669 172.716 53.172 173.662 52.8545C174.749 52.4997 175.885 52.3225 177.027 52.3296C178.503 52.3256 179.97 52.542 181.381 52.9712C182.779 53.429 184.076 54.152 185.198 55.1002L182.243 59.475C181.465 58.8649 180.609 58.3629 179.696 57.9826C178.822 57.6025 177.879 57.3993 176.925 57.3848C176.383 57.3529 175.846 57.4962 175.391 57.7932C175.222 57.9171 175.084 58.0807 174.993 58.2697C174.902 58.4587 174.858 58.6672 174.866 58.8772V58.916C174.852 59.1492 174.905 59.3813 175.017 59.5867C175.171 59.8137 175.36 60.0154 175.577 60.1847C175.93 60.432 176.307 60.6452 176.701 60.8215C177.15 61.045 177.749 61.2687 178.46 61.5312C179.459 61.8334 180.435 62.2088 181.381 62.654C182.187 63.0239 182.93 63.5158 183.586 64.1123C184.176 64.6448 184.649 65.2935 184.975 66.0177C185.322 66.8192 185.489 67.6871 185.462 68.5598V68.6327C185.474 69.6641 185.255 70.685 184.824 71.6221C184.436 72.4968 183.845 73.2667 183.1 73.8678C182.332 74.5122 181.44 74.995 180.48 75.2872C179.392 75.6285 178.256 75.7927 177.115 75.7733C175.472 75.7287 173.843 75.4404 172.285 74.9179L172.275 74.9032ZM162.39 66.7954V75.3893H156.516V66.8683L149.183 52.6358H155.66L159.468 60.8554L163.324 52.6358H169.694L162.39 66.7954ZM147.61 75.3893L146.261 71.277H139.113L137.803 75.3893H131.779L139.79 52.5435H145.701L153.75 75.3893H147.61ZM126.276 74.5678C124.689 75.1267 123.017 75.4047 121.334 75.3893H113.961V52.6358H121.446C123.103 52.608 124.751 52.8729 126.316 53.4184C127.667 53.9004 128.903 54.6587 129.943 55.6446C130.943 56.6436 131.712 57.8479 132.198 59.1736C132.727 60.6346 132.981 62.1802 132.948 63.7331V64.1026C132.961 65.6666 132.707 67.2215 132.198 68.7008C131.712 70.0303 130.947 71.2402 129.953 72.2492C128.921 73.2876 127.668 74.0801 126.286 74.5678H126.276ZM111.127 75.3893H105.24V52.6358H111.117L111.127 75.3893ZM97.244 75.3893L93.3873 68.3266H91.2934V75.3893H85.4498V52.6358H94.3954C97.468 52.6358 99.7519 53.4184 101.247 54.9496C101.886 55.5879 102.383 56.3529 102.708 57.1952C103.066 58.1761 103.242 59.2138 103.229 60.2576V60.4082C103.288 61.872 102.897 63.3189 102.109 64.5545C101.363 65.6445 100.344 66.5194 99.1529 67.0918L103.828 75.3552H97.2342V75.3942L97.244 75.3893ZM83.6919 57.8903H74.0647V61.9637H82.7082V66.9801H74.0647V75.3893H68.1872V52.6358H83.6822V57.9049L83.6919 57.8903ZM58.5308 67.0579H58.3067C54.898 67.0579 52.5072 64.7003 52.5072 61.5651C52.4696 60.1324 52.9619 58.736 53.8901 57.6424L56.135 59.2854C55.5457 59.8842 55.2107 60.687 55.1999 61.5262C55.1999 62.9845 56.4709 64.0685 58.3458 64.0685H58.4919C60.6149 64.0685 61.7495 62.9359 61.7495 61.4777C61.7781 61.0173 61.6606 60.5598 61.4135 60.17H59.7287V61.9637H57.4448V57.4189H62.8744C63.7857 58.6239 64.2841 60.0895 64.2964 61.5992C64.2964 64.7003 62.0856 67.0579 58.5308 67.0579ZM64.1064 72.8908H55.3412V75.6906H52.6922V67.1308H55.3509V69.9307H64.1161L64.1064 72.8908ZM52.6922 52.6358H64.1064V55.5523H52.6922V52.6358ZM191.212 81.7375V68.1029L207.608 84.4644V57.1564L180.286 29.8823H152.922L169.318 46.2438H142.049L125.639 29.8823H98.3154L114.711 46.2438H87.349L70.9579 29.8823H43.5957L59.9917 46.2438H46.3275V59.8833L29.9365 43.5169V70.8298L57.2988 98.1379H84.6562L68.265 81.7765H95.6225L112.018 98.1379H139.376L122.985 81.7765H150.342L166.738 98.1379H194.095L177.539 81.7375H191.212Z" fill="white"/>
<path d="M121.485 57.8661H119.805V70.1591H121.485C122.204 70.1923 122.923 70.0802 123.598 69.8296C124.274 69.5791 124.891 69.1951 125.414 68.7008C126.427 67.7286 126.914 66.2363 126.914 64.1802V63.8789C126.914 61.8276 126.427 60.2964 125.414 59.3243C124.893 58.8269 124.276 58.441 123.6 58.1902C122.925 57.9394 122.205 57.8292 121.485 57.8661Z" fill="white"/>
</svg>
