<svg width="157" height="85" viewBox="0 0 157 85" fill="none" xmlns="http://www.w3.org/2000/svg">
<path fill-rule="evenodd" clip-rule="evenodd" d="M68.2135 12.158C64.6794 13.6079 61.3009 15.9416 58.721 19.4419L58.7051 12.158H68.2135Z" fill="white"/>
<path fill-rule="evenodd" clip-rule="evenodd" d="M98.2017 14.6396C95.7707 14.0813 93.64 15.1202 91.7136 16.2063C87.6095 12.7782 81.0739 14.314 76.6224 15.9117C74.1438 16.9043 70.6394 18.7967 70.718 21.9611C70.718 23.031 71.476 23.9774 72.4071 24.4895C73.102 24.9081 73.907 25.0788 74.6019 25.4974C74.6805 25.5594 74.712 25.6681 74.6489 25.7611C74.2069 26.1644 73.6071 26.2422 73.0389 26.3661C70.4973 26.8162 68.1138 27.6224 65.8405 28.6461C64.7671 29.1424 63.7248 29.7007 62.7306 30.3678C61.3098 29.5148 59.9366 28.4911 58.7051 27.2033V20.4096C60.9464 17.0903 64.3882 14.6086 67.877 13.2126L70.4812 12.158H98.2017V14.6396Z" fill="white"/>
<path fill-rule="evenodd" clip-rule="evenodd" d="M90.8875 16.774C84.6219 20.511 80.9429 27.0068 78.0832 32.9894C73.585 33.5183 68.6527 33.3902 64.5565 32.0911C67.2068 29.0917 70.7731 28.1136 74.2595 27.0551C74.6294 26.8949 75.2077 26.6538 75.2077 26.1406C75.1756 25.5796 74.5168 25.3227 74.1795 24.8898C73.3119 24.0079 73.1672 22.5638 73.5366 21.393C74.6773 17.9286 78.4047 16.3569 81.5538 15.5391C84.5735 14.7695 88.4135 14.8016 90.8875 16.774" fill="white"/>
<path fill-rule="evenodd" clip-rule="evenodd" d="M98.2017 15.9378V22.5932C93.4913 27.8578 87.692 30.893 81.3791 32.5529C84.0872 27.4938 87.0834 22.5145 91.7293 18.2615C92.4828 19.1785 92.7226 20.5542 92.3222 21.7238C92.0178 22.7671 91.2643 23.9528 90.1273 24.2847C89.7101 24.38 89.1822 24.2692 88.9577 24.7274C88.8936 24.8853 88.8936 25.0593 88.9577 25.2017C89.1014 25.4704 89.3743 25.5336 89.6629 25.5336C91.4889 25.3601 92.6423 23.4154 93.1229 21.9133C93.6198 20.4118 93.1397 18.815 92.4345 17.5662C94.0842 16.396 95.9911 15.4319 98.2017 15.9378" fill="white"/>
<path fill-rule="evenodd" clip-rule="evenodd" d="M98.2017 43.6907C94.6401 46.2165 90.4305 47.7159 85.7746 46.8954C84.3713 46.643 82.9836 46.2956 81.6424 45.8695C84.0784 43.6431 86.3604 41.1644 86.3755 37.818C86.2523 36.7756 86.1291 35.6231 85.204 35.0078C85.0192 34.9602 84.803 34.9442 84.6485 35.0233C84.4637 35.134 84.3561 35.3232 84.3405 35.5285C84.3869 36.0021 84.9111 36.2865 85.1267 36.697C85.7433 37.7704 85.404 39.2859 84.9879 40.3438C84.1708 42.3329 82.4438 44.0536 80.7632 45.5851C78.6822 44.6694 76.6622 43.5324 74.7963 42.2067C77.7106 39.744 79.7456 36.6655 81.4419 33.5709C87.7016 32.2447 93.3756 29.435 98.2017 24.5406V43.6907Z" fill="white"/>
<path fill-rule="evenodd" clip-rule="evenodd" d="M62.3622 31.3756C61.0148 32.3492 59.7023 33.5362 58.7223 34.7381L58.7051 28.911C59.8777 29.8239 61.0669 30.6909 62.3622 31.3756" fill="white"/>
<path fill-rule="evenodd" clip-rule="evenodd" d="M78.6991 32.941C77.4657 35.6675 76.1684 38.3621 73.9896 40.7057C71.9877 39.4624 69.9212 37.9474 67.3259 38.4895C66.5893 38.6811 65.7887 39.2075 65.4839 39.9726C65.1959 40.6264 65.2919 41.535 65.7562 42.0771C66.7336 43.1298 68.0792 43.3847 69.4884 43.4165C71.2668 43.4165 72.7725 42.7789 74.1659 41.8541C76.0403 43.1298 77.9463 44.3894 79.9162 45.4735C76.6326 47.1952 72.8365 48.2955 68.7995 47.6736C65.8045 47.2271 62.4726 44.9315 61.8321 41.806C61.031 37.9793 62.7292 34.6471 65.0196 31.8245C69.1363 33.2757 74.1019 33.4512 78.6991 32.941" fill="white"/>
<path fill-rule="evenodd" clip-rule="evenodd" d="M72.6021 41.3183C70.8437 42.7314 67.968 43.3173 65.9464 42.0593C65.4206 41.6625 65.1741 41.0254 65.3382 40.3532C65.5847 39.5264 66.4233 39.1991 67.1461 39.1127C69.299 39.0264 70.9094 40.2674 72.6021 41.3183" fill="white"/>
<path fill-rule="evenodd" clip-rule="evenodd" d="M71.6182 49.1047C74.6489 48.8084 77.3643 47.748 79.9215 46.3285C83.537 48.2159 88.0831 49.6349 92.3454 48.2001C94.4921 47.5141 96.418 46.3285 98.2017 44.7532V51.4911H58.7051V44.2072C62.1779 47.8256 66.5033 49.5879 71.6182 49.1047" fill="white"/>
<mask id="mask0" mask-type="alpha" maskUnits="userSpaceOnUse" x="33" y="12" width="92" height="62">
<path fill-rule="evenodd" clip-rule="evenodd" d="M33.1055 73.3429H124.533V12.158H33.1055V73.3429Z" fill="white"/>
</mask>
<g mask="url(#mask0)">
<path fill-rule="evenodd" clip-rule="evenodd" d="M55.048 61.6354H60.168V61.0134H55.048V61.6354Z" fill="white"/>
<path fill-rule="evenodd" clip-rule="evenodd" d="M45.8335 64.4808L45.96 64.7885L45.4379 65.0348C45.216 64.4501 44.6301 63.8353 43.9815 63.7426C43.2691 63.6198 42.5884 63.8202 42.1451 64.3731C41.8444 64.7729 41.8128 65.4341 42.0819 65.8495C43.3324 67.5405 46.5935 67.8018 46.2451 70.4621C46.1342 71.3383 45.2953 72.1531 44.4403 72.4145C43.4589 72.768 42.1767 72.6607 41.3534 72.0302C40.8946 71.6611 40.5939 71.2155 40.4197 70.7386C40.6255 70.6772 40.8313 70.6157 41.0372 70.5694C41.2585 71.1384 41.8128 71.784 42.4614 71.9225C43.3801 72.1531 44.3455 71.9532 44.9313 71.2306C45.2476 70.8 45.2476 70.1389 45.0101 69.6625C43.9971 67.9866 41.7179 67.971 40.8629 66.1567C40.6094 65.3268 40.8469 64.4657 41.4644 63.8816C42.2561 63.1741 43.4744 62.9591 44.5036 63.3126C45.0418 63.4969 45.5644 63.9733 45.8335 64.4808" fill="white"/>
<path fill-rule="evenodd" clip-rule="evenodd" d="M37.494 63.7562H34.2282L34.2134 67.2125L37.0857 67.2288V67.8238H34.2282V72.0037H37.494V72.6145H33.1055V63.1454H37.494V63.7562Z" fill="white"/>
<path fill-rule="evenodd" clip-rule="evenodd" d="M52.8538 63.7562H50.4762V72.6145H49.3655V63.772L47.0024 63.7562V63.1454H52.8538V63.7562Z" fill="white"/>
<path fill-rule="evenodd" clip-rule="evenodd" d="M60.168 63.7562H56.9345L56.9198 67.2125L59.7344 67.2288V67.8238H56.9345V72.0037H60.168V72.6145H55.7794V63.1454H60.168V63.7562Z" fill="white"/>
<path fill-rule="evenodd" clip-rule="evenodd" d="M68.2136 63.7562H64.9693V67.2125L67.779 67.2288V67.8238H64.9693V72.0037H68.1846V72.6145H63.825V63.1454H68.2136V63.7562Z" fill="white"/>
<path fill-rule="evenodd" clip-rule="evenodd" d="M76.6647 71.9879L79.9162 72.0037V72.6145H75.5277V63.1454H76.6647V71.9879Z" fill="white"/>
<path fill-rule="evenodd" clip-rule="evenodd" d="M92.1838 70.4041C92.3003 71.2185 92.683 72.0012 93.4805 72.4557C94.2618 72.8937 95.5085 72.847 96.2396 72.3459C97.4537 71.5473 97.5702 70.2471 97.4863 68.9002V63.8738H98.2017L98.1843 70.4353C98.0852 71.6099 97.1379 72.7844 95.9239 73.1286C94.5443 73.5517 92.849 73.3794 91.8517 72.33C91.1701 71.6412 90.9038 70.7954 90.8875 69.8399V63.8738H92.1674L92.1838 70.4041Z" fill="white"/>
<path fill-rule="evenodd" clip-rule="evenodd" d="M115.756 63.7562H112.512V67.2125L115.32 67.2288V67.8238H112.512V72.0037H115.756V72.6145H111.367V63.1454H115.756V63.7562Z" fill="white"/>
<path fill-rule="evenodd" clip-rule="evenodd" d="M106.681 71.0837C105.751 72.0624 104.412 72.0304 103.072 71.9978V63.7688C104.837 63.6406 106.649 63.9454 107.406 65.6618C108.099 67.3624 107.988 69.704 106.681 71.0837M106.476 63.5282C105.136 62.903 103.403 63.2556 101.859 63.1594V72.6073C103.498 72.5274 105.31 72.8647 106.665 72.0945C108.24 71.2923 109.17 69.6242 109.17 67.8757C109.233 66.0148 108.178 64.2018 106.476 63.5282" fill="white"/>
<path fill-rule="evenodd" clip-rule="evenodd" d="M119.91 67.5294V63.7756C121.071 63.7756 122.356 63.6957 122.921 64.8027C123.178 65.3154 123.162 66.0378 122.889 66.5191C122.276 67.5777 121.071 67.5777 119.91 67.5294V67.5294ZM122.309 67.8987L122.292 67.8183C122.921 67.6581 123.55 67.3213 123.936 66.7114C124.355 65.9895 124.323 64.8825 123.792 64.209C122.583 62.7732 120.503 63.2302 118.681 63.1662V72.6145H119.91V68.059H121.099L121.148 68.091L123.291 72.6145L124.533 72.5982L122.309 67.8987Z" fill="white"/>
<path fill-rule="evenodd" clip-rule="evenodd" d="M83.5258 67.8155L84.7755 65.0139L85.961 67.8155H83.5258ZM85.3601 63.1454H84.8702L80.6476 72.6145L81.4545 72.5981L83.2729 68.4601H86.2141L86.2618 68.4917C86.831 69.8609 87.3686 71.2458 87.9538 72.5981H89.4247L85.3601 63.1454Z" fill="white"/>
</g>
</svg>
