<?xml version="1.0" encoding="UTF-8"?>
<!DOCTYPE svg PUBLIC "-//W3C//DTD SVG 1.1//EN" "http://www.w3.org/Graphics/SVG/1.1/DTD/svg11.dtd">
<!-- Creator: CorelDRAW 2019 (64-Bit) -->
<svg width="20" height="20" viewBox="0 0 18 18" data-backend-test-id="messenger-button-svg">
<path d="M16.875 4.5H15.75v6.75a1.125 1.125 0 01-1.125 1.125H7.682l-2.057 2.25h5.625L14.625 18v-3.375h2.25A1.125 1.125 0 0018 13.5V5.625A1.125 1.125 0 0016.875 4.5z"></path>
<path d="M1.125 0h11.25A1.125 1.125 0 0113.5 1.125V9a1.125 1.125 0 01-1.125 1.125H6.75L3.375 13.5v-3.375h-2.25A1.125 1.125 0 010 9V1.125A1.125 1.125 0 011.125 0z"></path></svg>
