<svg width="278" height="54" viewBox="0 0 278 54" fill="none" xmlns="http://www.w3.org/2000/svg">
<path d="M79.3117 7.19214H43.2717V14.4948H79.3117V7.19214Z" fill="white"/>
<path d="M79.3117 21.7487H43.2717V29.0513H79.3117V21.7487Z" fill="white"/>
<path d="M79.3117 36.3053H43.2717V43.6079H79.3117V36.3053Z" fill="white"/>
<path d="M36.0444 7.19214H28.8172V43.6079H36.0444V7.19214Z" fill="white"/>
<path d="M21.6381 7.19214H14.4108V43.6079H21.6381V7.19214Z" fill="white"/>
<path d="M7.2317 7.19214H0.00442505V43.6079H7.2317V7.19214Z" fill="white"/>
<path d="M102.632 7.19214V23.5987H99.4517V12.9369L94.8744 20.5316H94.489L89.9117 12.9369V23.55H86.7317V7.19214H90.0081L94.6817 14.9329L99.3071 7.19214H102.632V7.19214Z" fill="white"/>
<path d="M105.282 7.19214H108.462V23.5987H105.282V7.19214Z" fill="white"/>
<path d="M122.29 7.19214V10.2592H117.905V23.55H114.725V10.2592H110.389V7.19214H122.29V7.19214Z" fill="white"/>
<path d="M133.083 23.55L129.806 17.854H127.397V23.55H124.217V7.19214H130.722C132.215 7.19214 133.516 7.72766 134.528 8.79872C135.588 9.86977 136.118 11.1356 136.118 12.6448C136.118 14.6895 134.865 16.5395 132.986 17.4158L136.6 23.5987H133.083V23.55ZM127.397 10.2106V15.079H130.674C131.878 15.079 132.89 13.9592 132.89 12.6448C132.89 11.3303 131.878 10.2106 130.674 10.2106H127.397Z" fill="white"/>
<path d="M141.659 20.4829H148.501V23.55H138.479V7.19214H148.356V10.2592H141.659V13.7645H147.778V16.7829H141.659V20.4829Z" fill="white"/>
<path d="M89.9599 40.4922H96.8017V43.5593H86.7799V27.2014H96.7053V30.2685H90.0081V33.7738H96.1272V36.8409H90.0081V40.4922H89.9599Z" fill="white"/>
<path d="M108.654 27.2014H111.834V43.608H109.425L102.487 33.579V43.608H99.3072V27.2014H101.716L108.654 37.1817V27.2014Z" fill="white"/>
<path d="M130.77 34.7961V36.0619C130.77 38.3988 130.047 40.2975 128.554 41.758C127.06 43.2185 125.133 43.9488 122.82 43.9488C120.314 43.9488 118.243 43.1211 116.604 41.5146C114.966 39.8593 114.147 37.8146 114.147 35.4777C114.147 33.0922 114.966 31.0961 116.556 29.3922C118.194 27.7369 120.218 26.9093 122.627 26.9093C125.663 26.9093 128.313 28.4185 129.71 30.7067L126.964 32.3132C126.193 30.9988 124.554 30.0251 122.627 30.0251C121.085 30.0251 119.784 30.5606 118.821 31.583C117.809 32.6054 117.327 33.8711 117.327 35.429C117.327 36.9869 117.857 38.2527 118.821 39.2751C119.833 40.2975 121.182 40.7843 122.868 40.7843C125.325 40.7843 127.012 39.6159 127.59 37.6685H122.675V34.7961H130.77Z" fill="white"/>
<path d="M136.166 40.4922H143.008V43.5593H132.986V27.2014H142.912V30.2685H136.214V33.7738H142.334V36.8409H136.214V40.4922H136.166Z" fill="white"/>
<path d="M154.909 27.2014H158.089V43.608H155.68L148.742 33.579V43.608H145.562V27.2014H147.971L154.909 37.1817V27.2014Z" fill="white"/>
<path d="M162.859 42.3909C161.703 41.3685 161.124 39.9567 161.124 38.2527V27.2014H164.304V37.9606C164.304 39.6646 165.268 40.7356 167.34 40.7356C169.412 40.7356 170.375 39.6646 170.375 37.9606V27.2014H173.555V38.2527C173.555 40.0054 172.977 41.3685 171.821 42.3909C170.664 43.4133 169.171 43.9488 167.34 43.9488C165.461 43.9001 164.015 43.4133 162.859 42.3909Z" fill="white"/>
<path d="M176.013 27.2014H179.193V43.608H176.013V27.2014Z" fill="white"/>
<path d="M193.069 27.2014V30.2685H188.684V43.5593H185.456V30.3172H181.12V27.2501H193.069V27.2014Z" fill="white"/>
<path d="M208.15 27.2014L202.609 37.1817V43.5593H199.429V37.1817L193.888 27.2014H197.502L201.019 34.0172L204.536 27.2014H208.15Z" fill="white"/>
<path d="M208.294 40.7356V41.0764H207.475V43.608H207.09V41.0764H206.271V40.7356H208.294Z" fill="white"/>
<path d="M211.619 40.7356V43.608H211.234V41.3685L210.318 42.9264H210.27L209.354 41.3685V43.608H208.969V40.7356H209.403L210.318 42.2448L211.185 40.7356H211.619Z" fill="white"/>
</svg>