<svg width="473" height="43" viewBox="0 0 473 43" fill="none" xmlns="http://www.w3.org/2000/svg">
<path d="M74.721 14.5102V14.4408C74.721 6.99849 80.5804 0.896729 88.5884 0.896729C93.3542 0.896729 96.233 2.16778 98.9942 4.48763L95.3254 8.8634C93.284 7.17907 91.4637 6.20668 88.4076 6.20668C84.1719 6.20668 80.8086 9.91045 80.8086 14.3678V14.4408C80.8086 19.2281 84.1438 22.7426 88.8236 22.7426C90.9406 22.7426 92.8311 22.2216 94.3056 21.1798V17.4274H88.4392V12.4526H99.9333V23.8174C97.2107 26.099 93.4683 27.9692 88.6288 27.9692C80.3873 27.9692 74.7158 22.239 74.7158 14.505L74.721 14.5102Z" fill="#6B0AEA"/>
<path d="M22.1638 10.1114C22.1638 14.3153 19.8695 16.9563 16.5221 18.184L22.1686 26.3504L32.8939 1.41761H38.2004L49.2943 27.2073V1.41929H54.6411L66.9866 17.4672V17.4551L72.709 24.8921V27.4846H67.7782L55.0168 10.914V27.4846L43.3962 27.4847L41.2301 22.2303H34.6317L32.7184 17.4499H39.2782L35.4725 8.25909L27.4663 27.4847H22.9528L22.9537 27.486H16.185L12.4689 21.9971L7.15196 14.093H11.8598C14.6807 14.093 16.2939 12.6031 16.2939 10.4101V10.3354C16.2939 7.8801 14.5684 6.61426 11.7475 6.61426H6.11279V27.4894H0.320099V1.44322H12.2355C15.5917 1.44322 18.1774 2.37394 19.9082 4.0843C21.3739 5.53595 22.1638 7.58144 22.1638 10.0367V10.1114Z" fill="#6B0AEA"/>
<path d="M145.982 10.1114C145.982 14.3153 143.686 16.9563 140.34 18.184L146.77 27.4842H140.001L136.285 21.9954L130.968 14.0913H135.678C138.499 14.0913 140.116 12.6031 140.116 10.4101V10.3354C140.116 7.8801 138.386 6.61426 135.566 6.61426H129.929V27.4894H124.136V1.44322H136.052C139.399 1.44322 141.996 2.37394 143.725 4.0843C145.19 5.53595 145.982 7.58144 145.982 10.0367V10.1114Z" fill="#6B0AEA"/>
<path d="M122.376 1.41929H102.395V27.4846H122.565V22.3552H108.186V16.8525H120.673V11.7232H108.186V6.54866H122.376V1.41929Z" fill="#6B0AEA"/>
<path d="M66.9871 1.41929H72.7079V17.4499H66.9871V1.41929Z" fill="#6B0AEA"/>
<path fill-rule="evenodd" clip-rule="evenodd" d="M155.334 26.7833L155.058 26.3753H154.835V26.7833H154.553V25.5106H155.141C155.444 25.5106 155.625 25.6686 155.625 25.9308C155.63 26.0174 155.605 26.103 155.555 26.1743C155.506 26.2456 155.433 26.2986 155.35 26.3249L155.664 26.7799L155.334 26.7833ZM155.334 25.9447C155.334 25.8248 155.25 25.771 155.113 25.771H154.83V26.1357H155.118C155.255 26.1357 155.334 26.0627 155.334 25.962V25.9447Z" fill="#6B0AEA"/>
<path fill-rule="evenodd" clip-rule="evenodd" d="M154.311 27.2653C154.527 27.4084 154.782 27.4847 155.042 27.4847C155.391 27.4838 155.726 27.3463 155.972 27.1023C156.219 26.8583 156.358 26.5275 156.359 26.1824C156.359 25.9249 156.282 25.6731 156.137 25.4589C155.992 25.2447 155.787 25.0778 155.546 24.9792C155.306 24.8807 155.041 24.8549 154.785 24.9051C154.53 24.9554 154.296 25.0794 154.111 25.2616C153.927 25.4437 153.802 25.6757 153.751 25.9284C153.7 26.181 153.726 26.4428 153.826 26.6808C153.926 26.9188 154.094 27.1222 154.311 27.2653ZM154.47 25.3349C154.639 25.2229 154.839 25.1632 155.042 25.1632C155.315 25.1636 155.577 25.2711 155.77 25.4622C155.964 25.6533 156.072 25.9122 156.073 26.1824C156.073 26.384 156.012 26.5811 155.899 26.7487C155.786 26.9163 155.625 27.047 155.437 27.1241C155.248 27.2013 155.041 27.2214 154.841 27.1821C154.641 27.1428 154.458 27.0457 154.314 26.9032C154.17 26.7606 154.071 26.579 154.032 26.3813C153.992 26.1836 154.012 25.9786 154.09 25.7924C154.168 25.6061 154.3 25.4469 154.47 25.3349Z" fill="#6B0AEA"/>
</svg>
