<svg width="473" height="42" viewBox="0 0 473 42" fill="none" xmlns="http://www.w3.org/2000/svg">
<path d="M45.7284 28.9362V13.1652C45.7284 12.9659 45.5654 12.8032 45.3652 12.8032H37.5415C37.3412 12.8032 37.1783 12.9659 37.1783 13.1652V28.9362H32.1987V12.1454C32.1987 9.87714 34.0504 8.03198 36.3261 8.03198H46.58C48.856 8.03198 50.7077 9.87742 50.7077 12.1454V28.9365H45.7284V28.9362Z" fill="#6B0AEA"/>
<path d="M82.5061 28.9363C80.2301 28.9363 78.3786 27.0908 78.3786 24.8228V8.03174H83.358V23.8028C83.358 24.0021 83.5212 24.1647 83.7212 24.1647H91.5449C91.7451 24.1647 91.9086 24.0021 91.9086 23.8028V8.03174H96.8877V24.8228C96.8877 27.0911 95.036 28.9363 92.7603 28.9363H82.5061Z" fill="#6B0AEA"/>
<path d="M132.946 28.9362V12.1454C132.946 9.87714 134.798 8.03198 137.074 8.03198H145.194V12.8035H138.284C138.086 12.8035 137.926 12.9636 137.926 13.1605V28.9365H132.946V28.9362Z" fill="#6B0AEA"/>
<path d="M21.0731 17.7762C20.6834 16.8746 20.1475 16.0926 19.4799 15.452C18.8149 14.8148 18.0271 14.2952 17.137 13.9077C16.2535 13.5232 15.3017 13.2533 14.3072 13.1045C13.4514 12.983 12.4912 12.8718 11.4527 12.7742C10.4222 12.678 9.48212 12.568 8.66031 12.447C7.92721 12.333 7.32662 12.0636 6.87443 11.6466C6.43089 11.2385 6.21581 10.6544 6.21581 9.86095C6.21581 9.40863 6.28862 9.02331 6.43256 8.71527C6.58097 8.39667 6.78377 8.09697 7.03176 7.82758C7.53584 7.30241 8.15875 6.94239 8.8832 6.7589C10.3494 6.38776 11.7135 6.34717 13.2123 6.82785C13.9293 7.05832 14.4888 7.3822 14.8741 7.78866C15.1737 8.11032 15.425 8.48952 15.6217 8.91571C15.8164 9.33801 15.9263 9.77116 15.9495 10.2026L15.9609 10.4223H21.2628L21.2577 10.1851C21.2318 9.05806 20.9701 8.00328 20.4797 7.0497C19.9927 6.10391 19.3413 5.24624 18.5429 4.50061C17.6416 3.6524 16.5202 3.00158 15.2099 2.56621C13.9069 2.13362 12.5306 1.91455 11.1193 1.91455C9.55828 1.91455 8.07534 2.16532 6.7104 2.65962C5.33821 3.15726 4.19867 3.85201 3.32331 4.72441C2.62368 5.42222 2.05293 6.21845 1.62808 7.09057C1.19821 7.97131 0.980345 8.95297 0.980345 10.0075C0.980345 11.1059 1.16585 12.1017 1.53045 12.9675C1.89588 13.8329 2.39382 14.5838 3.01171 15.1988C3.62681 15.8123 4.35294 16.3139 5.17 16.6895C5.97926 17.0623 6.85769 17.3267 7.77769 17.4754C8.63744 17.6222 9.60765 17.734 10.6627 17.8074C11.6979 17.8794 12.6633 18.0011 13.5359 18.1699C14.3028 18.3086 14.9907 18.6078 15.5818 19.0584C16.15 19.491 16.4259 20.1304 16.4259 21.0128C16.4259 21.6039 16.3369 22.0645 16.1617 22.3815C15.9743 22.719 15.7389 23.042 15.4632 23.3392C15.0066 23.8171 14.3893 24.1585 13.6297 24.3531C12.19 24.7232 10.5402 24.7793 8.84219 24.3884C8.09319 24.2161 7.44601 23.8619 6.91823 23.3351C6.54861 22.9678 6.23729 22.5163 5.99237 21.9937C5.75107 21.4788 5.62889 20.9152 5.62889 20.3184V20.0865H0.320053V20.3184C0.320053 21.5922 0.587294 22.7771 1.1148 23.8399C1.63924 24.898 2.31097 25.801 3.11102 26.5233C4.2076 27.5172 5.46598 28.2292 6.85239 28.6398C8.22486 29.0465 9.63555 29.2528 11.0454 29.2528C12.6734 29.2528 14.233 29.0343 15.68 28.6031C17.1409 28.1677 18.4018 27.4285 19.4281 26.406C20.0803 25.756 20.6209 24.9706 21.0343 24.0718C21.4502 23.1683 21.6608 22.0779 21.6608 20.8305C21.6611 19.7067 21.4628 18.6795 21.0731 17.7762Z" fill="#6B0AEA"/>
<path d="M160.963 24.2173C160.765 24.2173 160.604 24.0564 160.604 23.8592V12.7507H167.979V8.03177H160.604V2.15127V2.104L155.625 4.15573V24.8228C155.625 27.0911 157.476 28.936 159.752 28.936H166.968L169.117 24.2173H160.963Z" fill="#6B0AEA"/>
<path d="M105.114 0L100.135 2.05173V28.9363H105.114V0Z" fill="#6B0AEA"/>
<path d="M152.7 5.36108L147.721 7.41253V28.9362H152.7V5.36108Z" fill="#6B0AEA"/>
<path d="M24.2666 10.0832L29.2457 8.03174L29.246 28.9363H24.2666V10.0832Z" fill="#6B0AEA"/>
<path d="M70.3218 8.0318V9.8689C68.544 8.45688 66.3168 7.6145 63.8965 7.6145C58.0859 7.6145 53.3751 12.4583 53.3751 18.433C53.3751 24.306 57.9249 29.0901 63.5989 29.2516H66.5268L68.6843 24.514H64.2201C60.8503 24.514 58.1185 21.7917 58.1185 18.433C58.1185 15.0747 60.8503 12.3524 64.2201 12.3524C67.586 12.3524 70.3156 15.0688 70.3215 18.4225H70.3218V30.7009C70.3218 31.7501 69.4648 32.6036 68.4123 32.6036H58.9144L56.763 37.3273L69.4762 37.3317C71.0325 37.3317 72.4954 36.7279 73.595 35.6314C74.6953 34.5355 75.3011 33.0773 75.3011 31.5266V8.0318H70.3218Z" fill="#6B0AEA"/>
<path d="M124.832 8.0318V9.8689C123.055 8.45688 120.827 7.6145 118.407 7.6145C112.596 7.6145 107.886 12.4583 107.886 18.433C107.886 24.306 112.436 29.0901 118.109 29.2516H121.038L123.195 24.514H118.731C115.361 24.514 112.629 21.7917 112.629 18.433C112.629 15.0747 115.361 12.3524 118.731 12.3524C122.097 12.3524 124.826 15.0688 124.832 18.4225H124.832V28.9363H129.812V8.0318H124.832Z" fill="#6B0AEA"/>
<path d="M187.16 8.03174H192.499L179.142 37.3333H173.807L187.16 8.03174Z" fill="#6B0AEA"/>
<path d="M180.035 17.6365L175.657 8.03149H170.319L177.366 23.492L180.035 17.6365Z" fill="#6B0AEA"/>
<path d="M192.039 26.1304V28.9105H191.503V26.9989L190.684 28.9105H190.294L189.482 26.9675V28.9105H188.961V26.1304H189.635L190.5 28.2232L191.381 26.1304H192.039ZM186.692 26.5646V26.1304H188.461V26.5646H187.849L187.857 28.9105H187.298V26.5646H186.692Z" fill="#6B0AEA"/>
<path d="M229.414 0.70752V28.9104H226.584V4.97805L216.68 21.4969H216.275L206.371 4.97805V28.9101H203.541V0.70752H207.058L216.478 16.4205L225.897 0.70752H229.414Z" fill="#6B0AEA"/>
<path d="M244.367 29.3937C241.416 29.3937 238.869 28.3864 236.807 26.372C234.746 24.3172 233.735 21.8192 233.735 18.8378C233.735 15.8562 234.745 13.3582 236.807 11.3438C238.869 9.28925 241.416 8.28174 244.367 8.28174C247.318 8.28174 249.825 9.28925 251.886 11.3438C253.948 13.3582 255 15.8562 255 18.8378C255 21.8192 253.948 24.3172 251.886 26.372C249.825 28.3867 247.318 29.3937 244.367 29.3937ZM244.367 26.8154C246.591 26.8154 248.491 26.0497 250.027 24.519C251.563 22.9477 252.331 21.0539 252.331 18.8381C252.331 16.6221 251.563 14.7285 250.027 13.1973C248.491 11.6262 246.591 10.8606 244.367 10.8606C242.144 10.8606 240.244 11.6262 238.707 13.1973C237.171 14.7283 236.403 16.6221 236.403 18.8381C236.403 21.0539 237.171 22.9474 238.707 24.519C240.244 26.0497 242.144 26.8154 244.367 26.8154Z" fill="#6B0AEA"/>
<path d="M277.022 11.3441C279.084 13.3989 280.095 15.8968 280.095 18.8382C280.095 21.7792 279.084 24.2772 277.022 26.332C275.001 28.3867 272.534 29.394 269.664 29.394C266.066 29.394 263.358 27.9036 261.498 24.9622V28.9105H258.83V1.60589L261.498 0.498291V12.7138C263.358 9.77276 266.066 8.28206 269.664 8.28206C272.534 8.28206 275.001 9.28957 277.022 11.3441ZM269.462 26.8154C271.686 26.8154 273.586 26.0498 275.122 24.519C276.658 22.9477 277.426 21.0539 277.426 18.8382C277.426 16.6221 276.658 14.7286 275.122 13.1973C273.586 11.6263 271.686 10.8606 269.462 10.8606C267.239 10.8606 265.339 11.6263 263.802 13.1973C262.266 14.7283 261.498 16.6221 261.498 18.8382C261.498 21.0539 262.266 22.9474 263.802 24.519C265.339 26.0498 267.239 26.8154 269.462 26.8154Z" fill="#6B0AEA"/>
<path d="M291.445 28.9105V1.60589L294.113 0.498291V28.9105H291.445Z" fill="#6B0AEA"/>
<path d="M315.763 11.465C317.622 13.5601 318.552 16.058 318.552 18.9188C318.552 19.2007 318.512 19.6438 318.471 20.1676H300.724C301.249 24.2366 304.443 26.8151 308.769 26.8151C311.841 26.8151 314.145 25.4454 315.277 23.3906L317.622 24.7601C315.843 27.6208 312.65 29.3934 308.728 29.3934C305.535 29.3934 302.947 28.3862 300.966 26.412C298.985 24.4379 297.975 21.8996 297.975 18.8376C297.975 15.8156 298.945 13.3177 300.926 11.3035C302.907 9.28901 305.413 8.28149 308.526 8.28149C311.518 8.28205 313.943 9.32988 315.763 11.465ZM300.724 17.589H315.803C315.52 15.4536 314.712 13.8014 313.337 12.6332C311.962 11.465 310.345 10.8606 308.526 10.8606C304.322 10.8606 301.249 13.6004 300.724 17.589Z" fill="#6B0AEA"/>
<path d="M283.796 3.93098C283.028 3.16534 283.028 1.95682 283.796 1.19118C284.564 0.425532 285.777 0.425532 286.545 1.19118C287.313 1.95682 287.313 3.16534 286.545 3.93098C285.777 4.69662 284.564 4.69662 283.796 3.93098ZM283.837 28.9106V8.7656H286.505V28.9106H283.837Z" fill="#6B0AEA"/>
</svg>
