<svg width="446" height="43" viewBox="0 0 446 43" fill="none" xmlns="http://www.w3.org/2000/svg">
<path d="M105.053 0.502441L100.077 2.55417V29.4387H105.053V0.502441Z" fill="#6B0AEA"/>
<path d="M21.0608 18.2788C20.6713 17.3773 20.1357 16.5952 19.4686 15.9547C18.8039 15.3175 18.0166 14.7979 17.127 14.4103C16.244 14.0258 15.2928 13.7559 14.2989 13.6071C13.4435 13.4856 12.4839 13.3744 11.4459 13.2769C10.4161 13.1807 9.47653 13.0706 8.6552 12.9496C7.92253 12.8357 7.32228 12.5663 6.87035 12.1492C6.42707 11.7411 6.21212 11.157 6.21212 10.3636C6.21212 9.91125 6.28488 9.52593 6.42874 9.21789C6.57706 8.89929 6.77974 8.59959 7.02759 8.3302C7.53138 7.80504 8.15393 7.44501 8.87796 7.26152C10.3433 6.89038 11.7066 6.84979 13.2046 7.33047C13.9211 7.56094 14.4804 7.88483 14.8654 8.29128C15.1648 8.61294 15.416 8.99215 15.6125 9.41834C15.8071 9.84064 15.917 10.2738 15.9401 10.7053L15.9516 10.9249H21.2503L21.2453 10.6877C21.2194 9.56068 20.9579 8.5059 20.4678 7.55232C19.981 6.60653 19.33 5.74886 18.5321 5.00324C17.6313 4.15502 16.5105 3.5042 15.201 3.06883C13.8988 2.63625 12.5232 2.41717 11.1128 2.41717C9.55265 2.41717 8.07057 2.66794 6.70642 3.16224C5.33503 3.65989 4.19615 4.35464 3.32129 5.22704C2.62207 5.92484 2.05165 6.72107 1.62705 7.59319C1.19742 8.47393 0.979683 9.45559 0.979683 10.5101C0.979683 11.6085 1.16508 12.6043 1.52947 13.4701C1.89469 14.3355 2.39234 15.0864 3.00987 15.7014C3.62462 16.315 4.35032 16.8165 5.16691 17.1921C5.9757 17.5649 6.85363 17.8293 7.77309 17.978C8.63234 18.1248 9.60199 18.2366 10.6564 18.31C11.691 18.382 12.6559 18.5038 13.528 18.6725C14.2944 18.8112 14.9819 19.1104 15.5727 19.561C16.1406 19.9936 16.4163 20.633 16.4163 21.5155C16.4163 22.1065 16.3274 22.5672 16.1523 22.8841C15.9649 23.2216 15.7296 23.5447 15.4542 23.8418C14.9978 24.3197 14.3808 24.6611 13.6217 24.8558C12.1828 25.2258 10.534 25.2819 8.83698 24.8911C8.08841 24.7187 7.44161 24.3645 6.91412 23.8377C6.54472 23.4704 6.23358 23.0189 5.9888 22.4963C5.74764 21.9814 5.62553 21.4179 5.62553 20.821V20.5891H0.320053V20.821C0.320053 22.0948 0.587139 23.2797 1.11434 24.3425C1.63848 25.4007 2.30982 26.3036 3.1094 27.0259C4.20535 28.0198 5.46299 28.7318 6.84861 29.1424C8.22028 29.5491 9.63015 29.7554 11.0392 29.7554C12.6662 29.7554 14.225 29.5369 15.6711 29.1057C17.1311 28.6704 18.3913 27.9311 19.417 26.9086C20.0688 26.2586 20.6091 25.4732 21.0223 24.5744C21.438 23.6709 21.6485 22.5805 21.6485 21.3331C21.6487 20.2094 21.4505 19.1821 21.0608 18.2788Z" fill="#6B0AEA"/>
<path d="M45.7021 29.4382V13.6672C45.7021 13.4679 45.5393 13.3052 45.3391 13.3052H37.52C37.3198 13.3052 37.157 13.4679 37.157 13.6672V29.4382H32.1802V12.6475C32.1802 10.3792 34.0309 8.53399 36.3053 8.53399H46.5532C48.8279 8.53399 50.6786 10.3794 50.6786 12.6475V29.4385L45.7021 29.4382Z" fill="#6B0AEA"/>
<path d="M82.4591 29.4385C80.1844 29.4385 78.334 27.5931 78.334 25.3251V8.53399H83.3105V24.305C83.3105 24.5044 83.4736 24.667 83.6735 24.667H91.4926C91.6928 24.667 91.8562 24.5044 91.8562 24.305V8.53399H96.8324V25.3251C96.8324 27.5933 94.9818 29.4385 92.7073 29.4385H82.4591Z" fill="#6B0AEA"/>
<path d="M132.869 12.6475V29.4382L137.846 29.4385V13.6625C137.846 13.4656 138.006 13.3055 138.204 13.3055H145.109V8.53399H136.994C134.72 8.53399 132.869 10.3792 132.869 12.6475Z" fill="#6B0AEA"/>
<path d="M160.512 24.362C160.512 24.5591 160.673 24.72 160.871 24.72H169.02L166.872 29.4387H159.661C157.386 29.4387 155.536 27.5938 155.536 25.3256V4.65846L160.512 2.60673V8.53449H167.882V13.2535H160.512V24.362Z" fill="#6B0AEA"/>
<path d="M147.636 7.91464L152.612 5.86319V29.4383H147.636V7.91464Z" fill="#6B0AEA"/>
<path d="M24.2526 10.5854L29.2288 8.53399L29.2291 29.4385H24.2526V10.5854Z" fill="#6B0AEA"/>
<path d="M70.2817 10.371V8.53387H75.2582V32.0286C75.2582 33.5794 74.6527 35.0375 73.5531 36.1335C72.4541 37.2299 70.9921 37.8338 69.4367 37.8338L56.7309 37.8293L58.8809 33.1056H68.3734C69.4252 33.1056 70.2817 32.2521 70.2817 31.2029L70.2814 18.9246C70.2756 15.5709 67.5476 12.8544 64.1836 12.8544C60.8158 12.8544 58.0855 15.5767 58.0855 18.9351C58.0855 22.2938 60.8158 25.0161 64.1836 25.0161H68.6452L66.489 29.7537H63.5627C57.892 29.5921 53.3449 24.8081 53.3449 18.9351C53.3449 12.9604 58.0529 8.11658 63.8602 8.11658C66.279 8.11658 68.5049 8.95895 70.2817 10.371Z" fill="#6B0AEA"/>
<path d="M124.759 8.53387V10.371C122.983 8.95895 120.757 8.11658 118.338 8.11658C112.531 8.11658 107.823 12.9604 107.823 18.9351C107.823 24.8081 112.37 29.5921 118.041 29.7537H120.967L123.123 25.0161H118.661C115.293 25.0161 112.563 22.2938 112.563 18.9351C112.563 15.5767 115.293 12.8544 118.661 12.8544C122.025 12.8544 124.753 15.5709 124.759 18.9246L124.759 29.4384H129.736V8.53387H124.759Z" fill="#6B0AEA"/>
<path d="M192.387 8.53399H187.052L173.706 37.8356H179.039L192.387 8.53399Z" fill="#6B0AEA"/>
<path d="M179.93 18.139L175.555 8.53399H170.22L177.263 23.9945L179.93 18.139Z" fill="#6B0AEA"/>
<path fill-rule="evenodd" clip-rule="evenodd" d="M241.578 26.6589C243.689 28.7225 246.297 29.7545 249.319 29.7545C252.341 29.7545 254.907 28.7225 257.018 26.6589C259.129 24.5535 260.205 21.9944 260.205 18.9402C260.205 15.8856 259.129 13.3266 257.018 11.2623C254.907 9.15722 252.341 8.12524 249.319 8.12524C246.297 8.12524 243.689 9.15722 241.578 11.2623C239.467 13.3266 238.432 15.8856 238.432 18.9402C238.432 21.9941 239.467 24.5535 241.578 26.6589ZM255.114 24.7601C253.541 26.3289 251.595 27.1129 249.319 27.1129C247.043 27.1129 245.097 26.3286 243.524 24.7601C241.951 23.1501 241.164 21.2101 241.164 18.9402C241.164 16.6699 241.951 14.7297 243.524 13.1611C245.097 11.5512 247.042 10.7672 249.319 10.7672C251.595 10.7672 253.541 11.5515 255.114 13.1611C256.687 14.7297 257.473 16.6699 257.473 18.9402C257.473 21.2104 256.687 23.1504 255.114 24.7601Z" fill="#6B0AEA"/>
<path d="M205.571 25.514C202.777 22.6872 201.359 19.2143 201.359 15.1356C201.359 11.0572 202.776 7.58425 205.571 4.75743C208.365 1.9306 211.929 0.516917 216.221 0.516917C221.445 0.516917 226.103 3.2228 228.492 7.46276L225.981 8.91676C224.199 5.48387 220.432 3.26311 216.221 3.26311C212.698 3.26311 209.783 4.39351 207.555 6.69544C205.328 8.99738 204.194 11.7839 204.194 15.1353C204.194 18.487 205.328 21.2735 207.555 23.5755C209.783 25.8774 212.698 27.0081 216.221 27.0081C220.432 27.0081 224.199 24.7868 225.981 21.3544L228.492 22.7676C226.183 27.0081 221.445 29.754 216.221 29.754C211.929 29.7543 208.365 28.3409 205.571 25.514Z" fill="#6B0AEA"/>
<path d="M232.212 29.4389V3.7846L234.955 2.65392V29.4389H232.212Z" fill="#6B0AEA"/>
<path d="M278.322 8.53399H281.055V29.4385H278.322V26.0376C276.79 28.5152 274.472 29.7541 271.365 29.7541C266.355 29.7541 263.25 26.4507 263.25 21.2892V8.53399H265.983V21.2892C265.983 24.9642 268.012 27.1113 271.614 27.1113C275.589 27.1113 278.322 24.6751 278.322 19.4309V8.53399Z" fill="#6B0AEA"/>
<path fill-rule="evenodd" clip-rule="evenodd" d="M306.089 2.65392L303.356 3.7846V12.6598C301.452 9.64536 298.678 8.11768 294.992 8.11768C292.053 8.11768 289.527 9.14994 287.415 11.2559C285.344 13.3618 284.309 15.9217 284.309 18.9362C284.309 21.9504 285.344 24.5104 287.415 26.6166C289.526 28.7225 292.052 29.7548 294.992 29.7548C298.678 29.7548 301.452 28.2268 303.356 25.2123V29.4392H306.089V2.65392ZM300.997 24.7581C299.423 26.3272 297.477 27.1117 295.2 27.1117C292.922 27.1117 290.976 26.3272 289.402 24.7581C287.829 23.1478 287.042 21.207 287.042 18.9362C287.042 16.6651 287.829 14.7246 289.402 13.1555C290.976 11.5453 292.922 10.7605 295.2 10.7605C297.477 10.7605 299.423 11.5453 300.997 13.1555C302.57 14.7246 303.356 16.6651 303.356 18.9362C303.356 21.207 302.57 23.1478 300.997 24.7581Z" fill="#6B0AEA"/>
<path d="M191.928 29.4127V26.6326H191.27L190.389 28.7255L189.525 26.6326H188.851V29.4127H189.372V27.4697L190.183 29.4127H190.574L191.392 27.5011V29.4127H191.928Z" fill="#6B0AEA"/>
<path d="M186.584 26.6326V27.0668H187.189V29.4127H187.748L187.74 27.0668H188.352V26.6326H186.584Z" fill="#6B0AEA"/>
</svg>
