
<svg width="19px" height="15px" viewBox="0 0 19 15" version="1.1" xmlns="http://www.w3.org/2000/svg" xmlns:xlink="http://www.w3.org/1999/xlink">
    <g id="Page-1" stroke="none" stroke-width="1" fill="none" fill-rule="evenodd" opacity="1">
        <g id="S1_Web_Refresh_Homepage" transform="translate(-1083.000000, -9840.000000)" fill="#FFFFFF" fill-rule="nonzero">
            <g id="Footer" transform="translate(0.000000, 9554.000000)">
                <g id="Logo__x2014__FIXED-Copy-4" transform="translate(1083.000000, 286.000000)">
                    <path d="M5.96838735,15 C13.1380552,15 17.0612245,9.2273622 17.0612245,4.22982283 C17.0612245,4.06742126 17.0612245,3.90501969 17.0536214,3.74261811 C17.8139256,3.21112205 18.4753902,2.53937008 19,1.77903543 C18.3005202,2.08169291 17.5478191,2.28100394 16.7571028,2.3769685 C17.5630252,1.91190945 18.1788715,1.16633858 18.4753902,0.280511811 C17.7226891,0.716043307 16.8863545,1.02608268 15.9967987,1.19586614 C15.2821128,0.457677165 14.2709084,0 13.1532613,0 C11.0016006,0 9.25290116,1.69783465 9.25290116,3.78690945 C9.25290116,4.08218504 9.29091637,4.37007874 9.3517407,4.65059055 C6.11284514,4.49557087 3.23889556,2.98228346 1.31532613,0.693897638 C0.980792317,1.25492126 0.790716287,1.90452756 0.790716287,2.5984252 C0.790716287,3.91240157 1.48259304,5.07135827 2.52420968,5.75049213 C1.88555422,5.72834646 1.28491397,5.55856299 0.760304122,5.27805118 C0.760304122,5.29281496 0.760304122,5.30757874 0.760304122,5.32972441 C0.760304122,7.16043307 2.10604242,8.69586614 3.88515406,9.04281496 C3.55822329,9.13139764 3.21608643,9.17568898 2.8587435,9.17568898 C2.60784314,9.17568898 2.36454582,9.15354331 2.12885154,9.10925197 C2.62304922,10.6151575 4.06762705,11.7076772 5.77070828,11.7372047 C4.43257303,12.7559055 2.75230092,13.3612205 0.927571028,13.3612205 C0.615846339,13.3612205 0.304121649,13.3464567 0,13.3095472 C1.71828731,14.3725394 3.77110844,15 5.96838735,15" id="Path"></path>
                </g>
            </g>
        </g>
    </g>
</svg>