
<svg width="21px" height="16px" viewBox="0 0 21 16" version="1.1" xmlns="http://www.w3.org/2000/svg" xmlns:xlink="http://www.w3.org/1999/xlink">
    <g id="Page-1" stroke="none" stroke-width="1" fill="none" fill-rule="evenodd" opacity="1">
        <g id="S1_Web_Refresh_Homepage" transform="translate(-1254.000000, -9840.000000)" fill="#FFFFFF" fill-rule="nonzero">
            <g id="Footer" transform="translate(0.000000, 9554.000000)">
                <g id="001-youtube" transform="translate(1254.000000, 286.000000)">
                    <path d="M16.6385691,0 L4.36143089,0 C1.95267689,0 0,2.10245972 0,4.69598058 L0,11.3040194 C0,13.8975403 1.95267689,16 4.36143089,16 L16.6385691,16 C19.0473231,16 21,13.8975403 21,11.3040194 L21,4.69598058 C21,2.10245972 19.0473231,0 16.6385691,0 Z M13.6889638,8.32150477 L7.94654675,11.270373 C7.79353407,11.3489467 7.61678825,11.22883 7.61678825,11.0463251 L7.61678825,4.96426907 C7.61678825,4.77916473 7.79818048,4.65919513 7.95151204,4.74286976 L13.6939291,7.87605758 C13.8646619,7.96919832 13.861701,8.23282733 13.6889638,8.32150477 Z" id="Shape"></path>
                </g>
            </g>
        </g>
    </g>
</svg>