
<svg width="8px" height="16px" viewBox="0 0 8 16" version="1.1" xmlns="http://www.w3.org/2000/svg" xmlns:xlink="http://www.w3.org/1999/xlink">
    <defs>
        <polygon id="path-1" points="0 0 8 0 8 16 0 16"></polygon>
    </defs>
    <g id="Page-1" stroke="none" stroke-width="1" fill="none" fill-rule="evenodd" opacity="1">
        <g id="S1_Web_Refresh_Homepage" transform="translate(-1204.000000, -9840.000000)">
            <g id="Footer" transform="translate(0.000000, 9554.000000)">
                <g id="Group-3" transform="translate(1204.000000, 286.000000)">
                    <mask id="mask-2" fill="white">
                        <use xlink:href="#path-1"></use>
                    </mask>
                    <g id="Clip-2"></g>
                    <path d="M5.03092052,16 L5.04234346,9.087601 L7.33844534,9.087601 C7.54487743,9.087601 7.71881558,8.92694988 7.74311777,8.71372633 L7.99710751,6.48557334 C8.02586966,6.23350014 7.8364582,6.01194828 7.59243509,6.01194828 L5.03092052,6.01194828 L5.03092052,4.14806402 C5.03092052,3.30278833 5.25664873,2.72681028 6.42233469,2.72681028 L7.50182523,2.72628976 C7.72673427,2.7261478 7.90913722,2.53648957 7.90913722,2.3025399 L7.90913722,0.423749867 C7.90913722,0.189705552 7.72659774,0 7.50159769,0 L5.74264702,0 C3.59909372,0 2.13154179,1.36044765 2.13154179,3.85893932 L2.13154179,6.01190096 L0.407542595,6.01190096 C0.181859896,6.01190096 -0.000861628357,6.20260023 0,6.4372597 L0.00828582528,8.66541269 C0.00910500023,8.89879453 0.191325917,9.08750636 0.415779855,9.08750636 L2.14291922,9.08750636 L2.13149628,16 L5.03092052,16 Z" id="Fill-1" fill="#FFFFFF" mask="url(#mask-2)"></path>
                </g>
            </g>
        </g>
    </g>
</svg>