
<svg width="17px" height="17px" viewBox="0 0 17 17" version="1.1" xmlns="http://www.w3.org/2000/svg" xmlns:xlink="http://www.w3.org/1999/xlink">
    <defs>
        <polygon id="path-1" points="0 0 17 0 17 17 0 17"></polygon>
    </defs>
    <g id="Page-1" stroke="none" stroke-width="1" fill="none" fill-rule="evenodd" opacity="1">
        <g id="S1_Web_Refresh_Homepage" transform="translate(-1144.000000, -9839.000000)">
            <g id="Footer" transform="translate(0.000000, 9554.000000)">
                <g id="Group-3" transform="translate(1144.000000, 285.000000)">
                    <mask id="mask-2" fill="white">
                        <use xlink:href="#path-1"></use>
                    </mask>
                    <g id="Clip-2"></g>
                    <path d="M16.9999984,16.4721894 C16.9999984,16.7636098 16.7620309,17 16.468668,17 L13.8290332,17 C13.5356128,17 13.2977043,16.7636098 13.2977043,16.4721894 L13.2977043,11.6674345 C13.2977043,10.9506145 13.5093509,8.52654466 11.4120786,8.52654466 C9.78527884,8.52654466 9.45531013,10.1857858 9.38905205,10.9304063 L9.38905205,16.4721894 C9.38905205,16.7636098 9.15120104,17 8.85772313,17 L6.30474687,17 C6.01132642,17 5.77341795,16.7636098 5.77341795,16.4721894 L5.77341795,6.13621222 C5.77341795,5.84479181 6.01132642,5.6084587 6.30474687,5.6084587 L8.85772313,5.6084587 C9.15114358,5.6084587 9.38905205,5.84479181 9.38905205,6.13621222 L9.38905205,7.02993956 C9.9922707,6.13067495 10.8887374,5.43657488 12.7974644,5.43657488 C17.02419,5.43657488 16.9999984,9.35919073 16.9999984,11.514503 L16.9999984,16.4721894 Z M2.3369048,4.64286098 C1.04628008,4.64286098 0,3.60350907 0,2.32143049 C0,1.03935191 1.04628008,0 2.3369048,0 C3.62752952,0 4.6738096,1.03935191 4.6738096,2.32143049 C4.6738096,3.60350907 3.62758699,4.64286098 2.3369048,4.64286098 L2.3369048,4.64286098 Z M4.14472185,16.4258932 C4.14472185,16.743002 3.88601075,17 3.56684562,17 L1.10696398,17 C0.787798846,17 0.529087751,16.743002 0.529087751,16.4258932 L0.529087751,6.18250839 C0.529087751,5.86545668 0.787798846,5.6084587 1.10696398,5.6084587 L3.56684562,5.6084587 C3.88601075,5.6084587 4.14472185,5.86545668 4.14472185,6.18250839 L4.14472185,16.4258932 Z" id="Fill-1" fill="#FFFFFF" mask="url(#mask-2)"></path>
                </g>
            </g>
        </g>
    </g>
</svg>