<svg width="158" height="85" viewBox="0 0 158 85" fill="none" xmlns="http://www.w3.org/2000/svg">
<path d="M58.9624 68.6652C58.3867 68.1077 58.3272 67.4109 58.7838 66.4551C59.2801 65.3997 60.3323 64.6234 62.7543 63.4884C64.8985 62.473 64.9978 62.3933 65.1963 61.6566C65.5336 60.3826 65.8711 58.1924 65.7321 58.0727C65.6726 58.013 64.9777 58.6302 64.1836 59.4466C62.5756 61.0792 61.3447 61.796 60.094 61.796C59.3595 61.796 59.2602 61.7363 59.1411 61.2584C59.0617 60.9799 59.161 60.0839 59.3595 59.2673C59.5382 58.451 59.6374 57.7342 59.5779 57.6745C59.5183 57.6148 58.8433 58.1523 58.0691 58.8892C55.6868 61.1392 54.0589 62.0352 52.8479 61.7164C51.9942 61.5173 52.0737 60.9 53.2251 58.7099C53.8207 57.5749 54.2971 56.4998 54.2971 56.3206C54.2971 55.6436 53.5824 56.1613 52.3516 57.7143C50.4458 60.1434 49.334 61.3779 48.8178 61.7363C48.3612 62.0148 48.3017 62.0148 47.9245 61.6766C47.3686 61.1788 47.5274 60.5215 48.6193 58.63C50.8825 54.7275 49.473 55.2452 46.2966 59.4663C44.6687 61.6166 44.0136 62.1144 43.3386 61.756C42.7629 61.4573 42.9217 60.6012 43.8746 59.0083C45.2841 56.6588 45.0459 56.619 42.6834 58.7694C40.3012 60.9198 38.7725 61.8357 37.6211 61.756C36.7476 61.6963 36.7277 61.6766 36.6682 60.9994C36.6285 60.4618 36.8468 59.9242 37.6211 58.6101C39.4872 55.4443 38.6137 55.0461 36.4101 58.0526C34.1072 61.2383 33.1146 62.1542 32.38 61.8755C31.6653 61.5967 31.8043 60.8799 32.9359 58.849C35.08 55.066 34.0278 55.0262 31.1889 58.7893C30.3948 59.8446 29.4816 60.9397 29.1838 61.258C28.5287 61.8952 27.7941 61.9549 27.4963 61.3974C27.2383 60.9195 27.4566 60.382 28.8661 57.913C29.7397 56.3998 30.097 55.4242 29.7992 55.4242C29.7595 55.4242 29.0051 55.8025 28.1316 56.2803C26.7419 57.017 26.4044 57.296 25.7096 58.371C23.5258 61.6363 19.8928 62.9106 18.2848 60.9795C17.8679 60.4817 17.7686 60.1629 17.7686 59.2472C17.7686 56.3004 21.1237 53.0351 24.1611 53.0351C25.1934 53.0351 25.4118 53.1147 25.928 53.6125C26.325 54.0107 26.5037 54.4089 26.5037 54.827C26.5037 55.1854 26.6228 55.4841 26.8015 55.5438C27.2184 55.723 28.6478 54.9666 29.8588 53.9311C31.5462 52.4776 32.4793 52.7563 32.1617 54.6279C31.9631 55.7629 32.3602 55.6832 34.2859 54.2297C35.9733 52.9554 36.6682 52.7563 37.0454 53.4532C37.2042 53.7917 37.2042 54.0903 37.0255 54.6678C36.7476 55.6633 36.8865 55.8226 37.5814 55.2651C39.7254 53.5129 40.4997 53.0152 40.9761 53.0749C41.4327 53.1346 41.4923 53.2342 41.5519 53.9709C41.6114 54.6678 41.4129 55.1854 40.4004 57.1365C39.6262 58.6099 39.249 59.5258 39.3681 59.6455C39.8247 60.1034 41.8496 58.4508 44.2319 55.6235C46.2172 53.2939 46.4753 53.0351 46.9716 53.0351C47.8252 53.0351 48.1032 53.8912 47.6466 55.0859C47.3686 55.7828 48.3811 55.4244 49.8105 54.3492C52.2523 52.4577 52.8677 52.4975 52.6295 54.5284C52.5501 55.2253 52.5898 55.6235 52.7089 55.6235C52.828 55.6235 53.2846 55.285 53.7611 54.8669C55.6272 53.1545 56.5007 52.6966 56.9772 53.1545C57.5132 53.6921 57.2948 54.5682 56.064 56.9376C55.4089 58.2119 54.9125 59.3667 54.9721 59.5061C55.25 60.2428 56.7588 58.9486 60.4117 54.8868C62.1587 52.9355 62.794 52.6169 63.2307 53.4333C63.3895 53.7519 63.33 54.1501 62.9329 55.2651C61.8212 58.3311 61.583 59.1676 61.7021 59.4862C61.8212 59.7848 61.8808 59.7848 62.4366 59.5061C63.2109 59.1079 65.0174 56.8978 66.0895 55.0262C66.5657 54.2098 67.1613 53.3536 67.3799 53.1346C67.9953 52.597 68.4718 52.9355 68.551 53.9908C68.6105 54.7078 67.9755 59.5061 67.6576 60.7605C67.4988 61.3779 67.8164 61.318 68.9282 60.4419C70.3971 59.2672 71.1715 58.2915 71.1715 57.5946C71.1715 56.1808 72.3626 55.1655 73.4148 55.6432C74.3282 56.0615 74.2883 56.8579 73.3356 57.913C72.74 58.5701 72.6606 59.4461 73.117 60.0037C73.6928 60.7005 75.142 60.6806 76.3927 59.9439C77.7032 59.1674 78.7154 57.8931 80.8198 54.3888C82.5072 51.5814 84.0559 49.3315 85.5248 47.5594C86.1204 46.8426 85.9616 46.6634 84.6712 46.6634C82.4477 46.6634 79.7279 47.8979 78.6956 49.3713C78.0007 50.4067 77.6829 51.7009 77.9213 52.6964C78.1397 53.6919 78.4375 54.0304 79.1125 54.0304C79.7279 54.0304 79.9463 54.349 79.6683 54.8866C79.2713 55.6432 77.7625 55.0459 77.2265 53.891C77.0081 53.4331 76.8691 52.6964 76.8691 51.9796C76.9089 48.2762 81.0181 45.3493 85.6241 45.7475C86.9542 45.8471 87.1331 45.8272 87.8475 45.3493C88.5225 44.8914 88.6813 44.8515 88.9593 45.0905C89.2571 45.3294 89.2372 45.3891 88.8205 45.7276C88.3637 46.1059 88.3637 46.1258 88.7213 46.3449C90.5675 47.4599 91.4212 48.5948 91.4212 49.9288C91.4212 51.0438 91.0837 51.6809 89.972 52.6765C88.9992 53.5725 88.9593 53.6521 89.2176 54.0702C89.8727 55.1255 90.0315 55.5835 90.0315 56.539C90.0315 58.0524 89.4955 59.3466 88.4433 60.4017C86.5375 62.333 83.6986 62.4923 81.5545 60.7999C80.8398 60.2424 80.5619 60.2822 78.7156 61.2578C77.2664 61.9945 76.9488 62.0941 75.7576 62.0744C74.0702 62.0744 72.7402 61.4771 72.0254 60.382L71.5092 59.6054L70.5958 60.362C70.0995 60.7804 69.1863 61.497 68.571 61.935C67.6975 62.5721 67.2606 63.1095 66.5064 64.4637C64.8189 67.4702 62.6749 69.1626 60.5109 69.1626C59.6374 69.163 59.3396 69.0635 58.9624 68.6652ZM62.1388 67.5702C63.5087 66.7339 65.3748 63.9862 64.5807 63.9862C64.0447 63.9862 61.4639 65.3601 60.6698 66.0768C59.836 66.8335 59.558 67.8091 60.1139 68.0281C60.4911 68.1874 61.4837 67.9684 62.1388 67.5702ZM85.5647 59.785C87.0338 58.7694 87.6294 56.8183 86.9147 55.4246C86.4779 54.5883 85.0088 53.4335 84.3539 53.4335C84.0361 53.4335 83.7979 53.6127 83.5797 54.0308C83.1429 54.8671 83.2025 54.9666 84.0363 54.9467C84.6318 54.9268 84.7708 55.0066 84.7708 55.3053C84.7708 55.5641 84.5326 55.7633 83.9767 55.9624C82.9642 56.3208 82.329 56.9181 82.051 57.8338C81.4553 59.8846 83.639 61.0991 85.5647 59.785ZM22.7317 59.6257C23.5656 59.0682 24.717 57.595 24.717 57.0973C24.717 56.9579 24.6376 56.7785 24.5185 56.719C24.1611 56.5 24.3199 55.8827 24.8163 55.5442C25.253 55.2657 25.2927 55.146 25.0942 54.8077C24.7765 54.2104 23.8236 54.4493 22.8707 55.3849C21.6002 56.6393 20.3495 59.5463 20.8855 60.064C21.1634 60.3624 21.9178 60.1832 22.7317 59.6257ZM87.0934 52.438C88.3637 52.0796 89.297 50.4668 88.9593 49.1726C88.7808 48.4757 87.8874 47.4603 87.4505 47.4603C86.9939 47.4603 86.3388 48.2965 85.3858 50.1283C84.5917 51.6415 84.4925 52.3583 85.0285 52.4977C85.6441 52.657 86.339 52.6371 87.0934 52.438Z" fill="white"/>
<path d="M9.23206 62.0152C7.1277 61.3382 6.05566 59.9046 6.05566 57.814C6.05566 56.9379 6.15493 56.699 6.63138 56.2012C7.56445 55.2654 8.65633 55.5242 8.95412 56.7587C9.07324 57.1768 8.97397 57.3759 8.59678 57.7144C7.46519 58.6901 7.42548 59.7852 8.47766 60.3227C9.2122 60.701 10.1651 60.5617 11.4357 59.8648C12.4879 59.3073 13.1827 58.4312 15.1878 55.2256C17.2921 51.8806 17.7289 51.2633 18.9399 49.9891L20.0516 48.8143L19.5553 48.4161C17.9274 47.102 15.3863 46.5246 13.4606 47.0821C12.1901 47.4405 10.7408 48.8342 10.4232 50.0488C9.82763 52.2987 11.6938 54.1106 13.5996 53.135C14.4334 52.6969 14.6518 52.1792 14.493 50.9249C14.3937 50.0289 14.4135 49.8298 14.6915 49.7302C14.8701 49.6506 15.1679 49.7501 15.3863 49.9492C16.2598 50.7457 15.6047 53.0155 14.2746 53.8517C11.8724 55.345 9.05338 53.5332 9.29161 50.6262C9.41073 49.2125 9.94674 48.1573 11.118 47.0821C13.54 44.8521 16.5179 44.7127 20.9251 46.644C22.9699 47.5599 23.7243 47.6396 24.6773 47.0622C25.9478 46.2856 26.2655 46.7237 25.4515 48.1373C24.717 49.4515 24.1214 49.7501 22.3148 49.7501C20.806 49.7501 20.7266 49.77 20.2502 50.3474C19.5355 51.2434 18.7017 52.8761 17.6892 55.3849C16.1606 59.2476 15.1481 60.6015 13.1827 61.4975C11.9121 62.055 10.1056 62.3138 9.23206 62.0152ZM96.1858 61.597C95.9674 61.378 95.7887 61.0196 95.7887 60.8006C95.7887 60.263 95.5108 60.3028 94.3196 61.0395C92.9897 61.8758 91.4611 62.0351 90.8455 61.4176C90.3293 60.9 90.2896 59.6655 90.7263 58.4111C91.0837 57.3957 92.5726 55.2652 93.4263 54.5484C95.0345 53.1945 97.258 52.6967 98.1514 53.5131C98.5484 53.8714 98.5683 53.8715 99.1638 53.3538C99.8785 52.7764 100.395 52.6967 100.752 53.1348C101.149 53.6325 100.851 54.7475 99.6403 57.1766C98.985 58.5306 98.608 59.5261 98.7072 59.6257C98.9256 59.8449 101.069 58.0927 102.42 56.6191C103.968 54.8869 106.172 51.8605 107.383 49.7897C107.998 48.7345 108.733 47.719 109.01 47.5398C109.467 47.2212 109.527 47.2412 109.884 47.5597C110.102 47.7588 110.281 48.1571 110.281 48.4358C110.281 49.1128 109.527 50.6857 108.415 52.4379C107.402 54.0108 106.906 54.9068 106.906 55.2254C106.906 55.6634 107.522 55.3847 108.733 54.3493C110.499 52.856 110.777 52.7365 111.274 53.2343C111.492 53.4533 111.671 53.8515 111.671 54.1303C111.671 54.409 111.115 55.7431 110.44 57.097C109.765 58.4706 109.269 59.6456 109.328 59.725C109.844 60.2228 111.492 58.9087 113.457 56.4001C114.291 55.3648 115.264 54.3493 115.8 54.0108C117.448 52.9755 118.996 52.7963 119.85 53.5728C120.187 53.8714 120.247 53.8715 120.763 53.3737C121.776 52.3981 122.748 52.8361 122.53 54.1502C122.47 54.5484 121.914 55.8426 121.299 57.0373C120.148 59.327 120.048 59.6058 120.465 59.6058C121.001 59.6058 122.49 58.2319 124.595 55.763C126.917 53.0551 127.513 52.5972 128.069 53.0551C128.327 53.2542 128.347 53.533 128.247 54.3692C128.069 55.8227 128.327 55.7829 130.749 54.0108C131.483 53.4732 132.258 53.0352 132.476 53.0352C133.072 53.0352 133.33 53.6524 133.191 54.7077C133.112 55.2652 133.131 55.6236 133.25 55.6236C133.37 55.6236 134.064 55.086 134.799 54.429C135.553 53.7719 136.367 53.1746 136.625 53.1148C138.075 52.7365 138.055 53.9511 136.546 57.0572C135.931 58.3514 135.474 59.4664 135.553 59.5259C135.792 59.7648 136.685 59.4065 137.4 58.7693C137.797 58.4109 138.889 57.2561 139.802 56.1809C141.609 54.0704 142.681 53.2938 144.09 53.1146C144.825 53.0151 145.142 53.0748 145.738 53.4133L146.472 53.8513L146.989 53.3536C147.624 52.7363 148.299 52.6965 148.597 53.2142C148.934 53.8713 148.835 54.2496 147.604 56.7981C146.016 60.0633 146.036 60.4418 147.664 59.0082C148.577 58.1919 148.875 58.0724 149.093 58.4109C149.47 59.0281 147.108 61.4373 145.778 61.8157C144.646 62.1143 144.051 61.9152 143.713 61.0989C143.554 60.7206 143.376 60.402 143.316 60.402C143.257 60.402 142.641 60.7206 141.966 61.0989C139.921 62.2338 138.274 61.9351 138.274 60.4219C138.274 59.6056 138.015 59.5259 137.34 60.0635C135.871 61.2984 134.183 62.0749 133.389 61.8758C132.496 61.6566 132.555 60.94 133.687 58.7896C134.62 56.9578 134.918 56.022 134.541 56.022C134.263 56.022 132.595 57.8538 131.483 59.4068C129.935 61.5373 129.002 62.2541 128.426 61.7762C127.93 61.3579 128.129 60.4422 129.042 58.7896C130.134 56.8583 130.372 56.2807 130.134 56.1216C129.756 55.8826 128.863 56.7587 127.215 58.9489C125.429 61.3581 124.873 61.8559 124.138 61.7563C123.781 61.7165 123.662 61.5572 123.622 60.9997C123.582 60.4621 123.741 60.0042 124.376 59.0485C125.627 57.0972 125.409 56.5795 123.94 58.1126C121.716 60.4621 119.096 62.1744 118.203 61.8957C117.964 61.8161 117.666 61.4577 117.508 61.0794C117.349 60.701 117.17 60.4024 117.091 60.4024C117.031 60.4024 116.535 60.6811 115.999 61.0395C114.172 62.1944 112.068 61.9753 112.068 60.6015C112.068 59.8051 111.75 59.6856 111.016 60.263C109.209 61.6369 107.145 62.1944 106.727 61.4178C106.469 60.9402 106.727 60.1635 107.72 58.4312C108.574 56.9976 108.693 56.4202 108.137 56.4202C107.7 56.4202 106.926 57.2366 105.556 59.148C104.543 60.5418 103.114 61.9952 102.757 61.9952C102.657 61.9952 102.38 61.836 102.141 61.6369C101.724 61.2984 101.705 61.1988 101.903 60.6212C102.022 60.2628 102.38 59.6458 102.697 59.2476C104.583 56.8382 103.829 56.7786 101.328 59.1279C100.136 60.2431 99.0445 61.0592 98.2899 61.4176C96.8607 62.0948 96.7019 62.1147 96.1858 61.597ZM95.0343 59.4666C96.0269 58.6303 96.5032 58.0131 97.1784 56.7587C97.8335 55.544 97.8931 54.907 97.3372 54.5486C96.2255 53.8517 92.5528 58.6701 93.4064 59.7055C93.7836 60.1435 94.2998 60.0639 95.0343 59.4666ZM117.13 58.9887C118.182 57.9932 119.413 55.9623 119.413 55.2256C119.413 54.7079 118.897 54.3694 118.341 54.5088C117.587 54.688 115.701 56.918 115.244 58.1724C114.45 60.263 115.363 60.6612 117.13 58.9887ZM142.859 59.5064C143.951 58.7299 145.618 56.1813 145.618 55.2654C145.618 54.8075 145.241 54.4292 144.785 54.4292C143.514 54.4292 140.556 58.8493 141.251 59.7055C141.608 60.1236 142.025 60.0838 142.859 59.5064ZM149.629 54.5884C149.49 54.4491 149.39 54.2101 149.41 54.0508C149.41 53.8517 149.489 53.9115 149.589 54.1902C149.708 54.469 149.946 54.6283 150.224 54.6283C150.661 54.6083 150.661 54.6083 150.303 54.3296C149.867 53.9911 150.005 53.4336 150.522 53.5133C151.256 53.6327 150.958 54.8274 150.204 54.8274C150.026 54.8274 149.768 54.7278 149.629 54.5884ZM96.0666 42.3632C95.1135 41.7062 94.8954 41.4473 94.2998 40.1929C93.8829 39.3567 93.8035 38.8987 93.8035 37.3457C93.8035 36.3302 93.7042 35.3148 93.5851 35.0759C93.3268 34.5781 91.9175 33.921 91.1234 33.941H90.5278L91.0241 34.2197C91.3021 34.379 91.4013 34.4985 91.2425 34.5184C91.0837 34.5184 89.7933 33.9609 88.3639 33.3038C85.3465 31.8702 84.4331 31.691 83.639 32.3282C83.0434 32.7861 82.8846 33.7817 83.3015 34.5582C83.5001 34.9166 83.4605 34.9365 83.0434 34.817C82.1104 34.5184 81.3163 33.4034 80.82 31.6512C80.6016 30.8946 80.5023 30.815 79.609 30.5561C78.4972 30.2575 72.8393 30.138 71.3504 30.3968C70.5563 30.5362 70.4369 30.6159 70.5166 30.9344C70.6555 31.4521 71.5489 32.3282 72.2636 32.6468C72.8393 32.9056 72.8393 32.9056 72.3628 32.9056C71.7275 32.9255 70.3974 32.3083 69.2857 31.5118L68.4321 30.8946L67.0622 31.1136C66.3277 31.253 64.4616 31.3326 62.9329 31.3127C60.8484 31.2729 59.9551 31.3526 59.3595 31.5716C57.6919 32.2087 57.7316 32.2087 58.2279 31.7707C58.4661 31.5517 59.1411 31.2132 59.7168 31.034C60.2727 30.8548 60.8881 30.6557 61.0469 30.6158C61.2852 30.5362 61.2653 30.4566 60.9477 30.2774C60.7094 30.138 59.7168 30.0384 58.3669 30.0584C56.1434 30.0584 53.8206 30.4367 49.473 31.472C48.2818 31.7508 47.2693 31.93 47.2098 31.8702C47.0907 31.7309 47.4282 31.6512 52.4111 30.4367C56.5801 29.4013 58.5852 28.7044 60.372 27.6292C63.588 25.6979 64.5013 23.5674 64.0248 19.1671C63.9057 18.0322 63.7469 17.0367 63.7072 16.9571C63.5285 16.6584 63.9849 16.7978 64.8386 17.2955C66.0098 17.9526 67.3995 17.9725 68.4717 17.3154C69.2061 16.8774 69.3054 16.8575 69.9406 17.1362C70.854 17.5146 71.9656 17.3354 73.2957 16.6186C74.0697 16.2004 74.3479 16.1208 74.4273 16.3199C74.4868 16.4593 74.9236 16.6385 75.4199 16.6982C76.1346 16.8177 76.3331 16.9172 76.3331 17.2159C76.3331 17.7336 77.0478 18.0521 77.9015 17.9327C78.5762 17.8132 78.6358 17.853 79.0132 18.6495C79.2316 19.0875 79.5691 19.5654 79.7874 19.6649C79.986 19.7844 80.363 20.083 80.6211 20.3419C80.8793 20.5808 81.2166 20.7799 81.3556 20.7799C81.7727 20.7799 82.2887 21.656 82.2887 22.333C82.2887 22.99 83.4997 24.2444 84.6908 24.8815C86.7753 25.9567 89.4754 28.0075 92.1555 30.576C94.0812 32.4277 95.054 33.1246 95.6694 33.1246C95.8878 33.1246 96.642 32.8857 97.3569 32.6069C99.1235 31.8901 101.03 31.8702 102.518 32.5472L103.571 33.0251H101.526C99.1831 33.0251 98.0316 33.4034 96.8208 34.5781C95.6694 35.6931 95.2922 36.609 95.2922 38.401C95.2922 40.1133 95.6098 40.9695 96.6819 42.2637C97.3372 43.0203 97.099 43.0601 96.0666 42.3632ZM64.5013 29.1225C65.0968 28.6447 65.176 27.9876 64.6601 27.3505C64.3027 26.9124 64.3027 26.9124 64.3821 27.7288C64.4417 28.4058 64.3821 28.6049 63.9255 29.0429C63.2506 29.6601 63.727 29.7398 64.5013 29.1225ZM70.2783 28.3261C71.1518 28.0075 72.1047 27.8483 73.9312 27.7686C76.4326 27.6491 77.0083 27.4301 76.0355 26.9921C75.3407 26.6735 75.1819 26.6934 75.6583 27.0518C75.9958 27.3107 75.8569 27.3306 74.1694 27.3505C73.1569 27.3505 71.8072 27.4899 71.1915 27.6491C69.9609 27.9677 68.1938 28.6845 68.1938 28.8836C68.1938 29.023 68.8489 28.8637 70.2783 28.3261ZM61.841 27.8283C61.841 27.6491 61.7021 27.5496 61.5035 27.5894C61.0072 27.689 60.9477 28.1469 61.4241 28.1469C61.6624 28.1469 61.841 28.0274 61.841 27.8283ZM83.1824 24.9811C83.0037 24.6625 80.0854 23.6272 78.4377 23.2887C77.584 23.1095 76.7107 22.8706 76.5122 22.771C76.3137 22.6515 75.9365 22.5719 75.6387 22.5719C75.3607 22.5719 75.0828 22.4524 75.0233 22.2931C74.9438 22.094 74.6657 22.0542 74.0306 22.1339C73.3753 22.1936 73.0579 22.1339 72.7601 21.875C72.4226 21.5564 72.3432 21.5564 71.9263 21.8551C71.4101 22.2135 69.7822 22.2931 69.4447 21.9547C69.2859 21.7954 69.0677 21.8352 68.6308 22.0542C67.8166 22.4723 67.3602 22.4524 66.7247 21.9547C66.3078 21.6162 66.2086 21.5963 66.2086 21.8551C66.2086 22.0343 65.8909 22.5122 65.5137 22.9502C65.1365 23.3683 64.8189 23.7466 64.8189 23.8064C64.8189 23.8462 65.474 23.7068 66.2681 23.4878C67.4593 23.1692 68.3129 23.0896 71.5687 23.0896C75.0231 23.0896 75.698 23.1493 77.9215 23.6272C79.2913 23.9059 81.0384 24.3639 81.7927 24.6426C82.567 24.9015 83.2023 25.1404 83.242 25.1404C83.2817 25.1603 83.2618 25.0807 83.1824 24.9811Z" fill="white"/>
</svg>
