<svg width="149" height="53" viewBox="0 0 149 53" fill="none" xmlns="http://www.w3.org/2000/svg">
<path d="M49.674 52.4664H36.2584L25.1532 36.1903L14.1226 52.4664H0.707031L18.52 26.335L0.707031 0.203613H14.0481L49.674 52.4664ZM49.674 0.203613L38.5688 16.4797H25.1532L36.2584 0.203613H49.674Z" fill="white"/>
<path d="M51.5186 52.4664V0.203613H71.8656C75.9399 0.203613 79.6913 0.875564 83.1198 2.21947C86.5482 3.56337 89.4549 5.40501 91.8399 7.74439C94.2746 10.034 96.1627 12.7716 97.5043 15.9571C98.8955 19.0929 99.5911 22.5024 99.5911 26.1857V26.335C99.5911 30.0183 98.8955 33.4527 97.5043 36.6383C96.1627 39.8238 94.2746 42.5863 91.8399 44.9257C89.4549 47.265 86.5482 49.1067 83.1198 50.4506C79.6913 51.7945 75.9399 52.4664 71.8656 52.4664H51.5186ZM62.9964 42.0885H71.8656C76.5362 42.0885 80.3124 40.6451 83.1943 37.7582C86.1259 34.8713 87.5916 31.1133 87.5916 26.4843V26.335C87.5916 21.706 86.1259 17.9232 83.1943 14.9865C80.3124 12.0499 76.5362 10.5815 71.8656 10.5815H62.9964V42.0885Z" fill="white"/>
<path d="M134.787 52.4664L126.141 39.4754L116.825 25.5884H126.216C128.998 25.5884 131.16 24.9165 132.7 23.5726C134.24 22.1789 135.01 20.387 135.01 18.197V18.0476C135.01 15.6087 134.19 13.7671 132.551 12.5227C130.961 11.2286 128.775 10.5815 125.992 10.5815H114.589V52.4664H103.111V0.203613H126.961C130.24 0.203613 133.172 0.676467 135.756 1.62217C138.339 2.51811 140.476 3.81224 142.165 5.50456C143.606 6.94801 144.699 8.6901 145.445 10.7308C146.24 12.7716 146.637 15.0114 146.637 17.4503V17.5997C146.637 21.7807 145.594 25.2151 143.507 27.9029C141.42 30.5907 138.737 32.5568 135.457 33.8011L148.202 52.4664H134.787Z" fill="white"/>
</svg>
